<svg width="146" height="36" viewBox="0 0 146 36" fill="none" xmlns="http://www.w3.org/2000/svg">
<path fill-rule="evenodd" clip-rule="evenodd" d="M130.328 1.06421C129.899 2.58344 129.119 4.30802 128.473 5.16356C127.324 6.68599 124.975 7.73178 122.705 7.73178C120.486 7.73178 118.439 6.98361 116.205 5.35667C115.708 4.99461 115.189 4.6211 115.051 4.52666L114.801 4.35496L115.047 4.7556C115.835 6.03993 116.339 7.44675 116.339 8.36468C116.339 8.97205 116.053 9.94595 115.69 10.5745L115.403 11.0706L115.671 10.9285C117.246 10.0926 117.822 8.99357 117.318 7.78535C117.226 7.56706 117.174 7.38837 117.202 7.38837C117.229 7.38837 117.698 7.64444 118.244 7.9574C119.823 8.86307 121.168 9.21987 123.002 9.21987C124.137 9.21987 125.492 8.97663 126.352 8.61857C127.226 8.25479 128.41 7.43565 128.926 6.83801C129.515 6.15601 130.127 4.94893 130.314 4.09889L130.459 3.43921L130.561 4.06879C131.144 7.68107 132.274 9.62795 134.352 10.6013C136.831 11.7628 139.353 11.9208 142.445 11.1081C143.035 10.9534 143.563 10.8258 143.62 10.8246C143.676 10.8233 142.93 11.3712 141.96 12.0419C138.913 14.1507 138.039 14.9725 137.394 16.3374C136.625 17.9621 137.153 20.1619 138.862 22.4579C139.681 23.5581 140.985 24.8677 141.948 25.5582C142.345 25.8421 142.647 26.0967 142.619 26.1238C142.592 26.151 141.779 26.0116 140.812 25.8139C139.463 25.5383 138.721 25.4504 137.623 25.4359C135.939 25.4139 135.396 25.545 134.748 26.131C133.965 26.8388 133.618 27.8325 133.618 29.372C133.618 29.8096 133.587 30.1676 133.549 30.1676C133.511 30.1676 133.329 30.0409 133.145 29.886C132.476 29.3226 131.537 29.3895 130.729 30.0583C130.493 30.2535 130.3 30.4514 130.3 30.4981C130.3 30.5447 130.604 30.5608 130.976 30.5339C131.864 30.4697 132.485 30.7708 133.558 31.7864L134.362 32.5468L134.326 31.2141C134.282 29.6099 134.53 27.7502 134.846 27.3174C135.387 26.5761 136.827 26.3064 139.213 26.4991C140.07 26.5683 141.62 26.7202 142.658 26.8367C143.697 26.9531 144.553 27.0421 144.562 27.0342C144.57 27.0261 143.99 26.5046 143.271 25.875C139.058 22.1819 137.637 19.0496 138.919 16.2788C139.697 14.5947 141.391 12.9709 144.774 10.6662C145.973 9.84888 146.186 9.66561 145.867 9.72388C142.575 10.3248 140.452 10.539 138.882 10.428C134.849 10.1429 132.647 8.32793 131.514 4.35496C131.255 3.44848 130.83 1.13072 130.734 0.102908C130.709 -0.167009 130.607 0.0740614 130.328 1.06421ZM60.1746 7.67729C58.1407 7.88334 56.4624 8.07015 56.4451 8.09224C56.4279 8.11433 55.3293 13.5662 54.004 20.2076L51.5944 32.2828L51.8347 32.6274C52.9863 34.2796 54.6516 35.5203 56.0686 35.782C57.1928 35.9896 58.0916 35.4951 58.6491 34.3623C59.0642 33.5188 59.098 33.3662 60.7338 24.9593C61.4321 21.3707 62.1316 18.0483 62.2883 17.5761C62.8349 15.9294 63.6564 14.874 64.6152 14.5866C65.5012 14.3212 66.0134 14.743 66.2294 15.9163C66.429 17.001 66.2969 17.9059 64.6669 26.6191C64.0999 29.6502 64.012 30.3068 64.0004 31.6009C63.9868 33.0875 63.9879 33.0936 64.3874 33.8903C64.861 34.835 65.5983 35.4581 66.4984 35.6748C67.2528 35.8564 68.8559 35.8526 69.6512 35.6674C70.4378 35.4841 71.5868 34.9506 72.0692 34.5444C72.4178 34.2511 73.0841 33.3171 73.0841 33.1219C73.0841 33.0717 72.8481 32.9194 72.5595 32.7838C71.8582 32.4541 71.479 31.8703 71.4041 31.0052C71.3579 30.4729 71.5312 29.4089 72.2672 25.7033C73.903 17.4685 74.0735 15.966 73.5552 14.3532C72.9584 12.4955 71.7004 11.756 68.9646 11.6545C66.7041 11.5707 65.1796 11.9052 63.6653 12.8174C63.3071 13.033 63.0142 13.1911 63.0142 13.1687C63.0142 13.1018 64.0526 7.81134 64.1206 7.53146C64.1632 7.35678 64.1333 7.27848 64.0278 7.28821C63.9423 7.29611 62.2084 7.47114 60.1746 7.67729ZM106.241 7.72594C103.928 7.95957 102.015 8.17237 101.989 8.19881C101.91 8.28031 98.7409 24.2811 98.4428 26.104C98.0188 28.6964 97.8822 30.1215 97.9372 31.3771C97.9971 32.7465 98.2941 33.4335 99.2031 34.3053C100.268 35.3261 101.596 35.75 103.306 35.6141C105.412 35.4469 107.134 34.475 107.865 33.0412C108.132 32.5181 108.099 32.3425 107.732 32.3425C107.6 32.3425 107.299 32.1387 107.062 31.8893C106.527 31.3276 106.322 30.4981 106.44 29.3784C106.484 28.9625 107.468 23.8833 108.626 18.0912C109.784 12.2991 110.731 7.49575 110.732 7.41699C110.732 7.33835 110.668 7.28009 110.589 7.28753C110.51 7.29497 108.554 7.49231 106.241 7.72594ZM50.2673 7.94091C50.1554 8.122 47.5012 9.88139 46.3072 10.5658C44.7954 11.4324 42.9232 12.2882 41.3481 12.8325C40.4718 13.1353 40.1276 13.3066 40.1267 13.4406C40.126 13.543 40.0935 13.8201 40.0545 14.0562L39.9835 14.4854H41.2573C41.9578 14.4854 42.531 14.5289 42.531 14.582C42.531 14.6353 42.0918 16.9146 41.555 19.6473C39.9289 27.9259 39.7727 28.8048 39.704 30.0656C39.6224 31.5602 39.8431 32.597 40.4548 33.5916C40.966 34.4228 41.6389 34.9934 42.5042 35.3296C43.0424 35.5386 43.3969 35.5854 44.4763 35.5897C46.4645 35.5977 47.9015 35.1312 49.038 34.1091C49.6165 33.5887 50.2288 32.5626 50.0053 32.4881C49.9395 32.4663 49.6436 32.2947 49.3478 32.1071C48.5306 31.5886 48.3216 31.0238 48.4001 29.5469C48.4501 28.6044 50.0479 19.7377 51.0052 15.0894L51.1283 14.4915L52.8042 14.4598L54.4799 14.4282L54.6226 13.7414C54.8679 12.5595 54.9931 12.6539 53.1799 12.6539C52.3024 12.6539 51.5592 12.6127 51.528 12.5625C51.4834 12.4902 51.896 10.4556 52.4322 8.1038C52.4898 7.85071 52.4721 7.84625 51.4083 7.84625C50.813 7.84625 50.2995 7.88883 50.2673 7.94091ZM11.4742 11.9111C6.94894 12.6487 3.61179 15.0084 1.68293 18.8352C0.123692 21.9287 -0.437135 26.5207 0.361824 29.6525C0.908233 31.7946 2.35853 33.5944 4.31588 34.5598C8.55075 36.6485 15.5448 35.578 17.9316 32.4758C18.7617 31.3969 18.9965 29.5446 18.4516 28.3739C18.0181 27.4426 17.86 27.4247 17.0478 28.2147C15.831 29.3984 13.7899 30.1676 11.8659 30.1676C10.6363 30.1676 9.87712 29.9499 9.25759 29.4193C8.45566 28.7326 8.16947 27.3692 8.38803 25.2769L8.46001 24.588L10.0187 24.5084C15.14 24.2471 18.2511 23.258 20.0703 21.3124C21.2026 20.1016 21.7045 18.7764 21.7045 16.9974C21.7045 15.7824 21.4518 14.9518 20.8354 14.1405C20.0734 13.1378 18.7514 12.3997 17.0128 12.0067C15.9236 11.7604 12.7366 11.7054 11.4742 11.9111ZM31.3627 11.8561C28.2843 12.2406 25.9422 13.2445 24.2873 14.8889C22.6581 16.5079 21.8501 18.4929 21.9596 20.6072C22.0653 22.6484 22.7791 23.533 26.2115 25.8762C29.2337 27.9396 30.2454 29.0037 30.4888 30.3756C30.6862 31.4889 30.3172 32.4232 29.4738 32.9447C28.0679 33.8142 26.2205 33.2184 25.8193 31.7661C25.6042 30.9871 25.6492 29.7609 25.9243 28.9085C26.0563 28.4992 26.165 28.1295 26.1658 28.0868C26.1666 28.0441 25.8712 27.8914 25.5093 27.7474C24.945 27.5229 24.6394 27.4852 23.3614 27.4816C21.905 27.4777 21.8542 27.4861 21.1088 27.8532C20.2042 28.2986 19.3695 29.1628 19.167 29.8635C19.0915 30.1252 19.0264 30.6741 19.0225 31.0834C19.0166 31.6958 19.0708 31.9216 19.3283 32.36C19.8046 33.1704 20.9091 34.0987 22.0931 34.6837C23.5941 35.4253 24.3863 35.5879 26.5106 35.5907C29.7589 35.5949 32.2887 34.8703 34.4782 33.3089C37.5979 31.0839 38.758 27.0105 37.0362 24.3265C36.4834 23.4648 35.6092 22.7412 33.2048 21.1559C29.4832 18.7018 28.9185 18.1184 29.0651 16.8799C29.349 14.4827 31.9276 13.0468 33.4093 14.4609C34.195 15.2108 34.2528 17.089 33.5571 19.2668C33.4868 19.4866 33.5327 19.551 33.8544 19.6849C34.7904 20.0744 36.6662 20.0005 37.7606 19.5312C38.5022 19.2132 39.2532 18.4811 39.5632 17.7738C39.7529 17.341 39.8393 16.8854 39.8755 16.1271C39.92 15.1918 39.8947 15.0118 39.6409 14.4572C39.1252 13.3301 37.9352 12.4613 36.2945 12.0137C35.4852 11.793 32.6052 11.701 31.3627 11.8561ZM85.3855 11.9111C80.367 12.7176 76.5872 15.9422 74.9878 20.7812C73.7181 24.6231 73.8671 29.8089 75.3223 32.4178C76.1475 33.8971 77.6801 34.9463 79.6639 35.3899C80.8092 35.646 83.3772 35.6778 84.2984 35.4475C85.4117 35.1691 86.5442 34.5744 87.2574 33.894L87.9252 33.2569L88.2701 33.812C88.7097 34.5195 89.257 34.9344 90.2038 35.2783C92.686 36.1795 96.0979 35.2881 97.3706 33.4059C97.8394 32.7127 97.8651 32.4974 97.4901 32.4061C96.941 32.2724 96.3277 31.7887 96.0723 31.2879C95.6266 30.414 95.7159 29.7333 97.5022 20.3806C98.4039 15.6587 99.1307 11.7813 99.1174 11.7642C99.104 11.747 97.4677 11.8959 95.4814 12.0952L91.8697 12.4574L90.8019 12.1437C89.9067 11.8809 89.4654 11.8233 88.0746 11.7879C86.9815 11.76 86.064 11.8021 85.3855 11.9111ZM120.058 11.9047C116.903 12.4008 114.492 13.6701 112.475 15.8959C110.262 18.3395 109.081 21.3108 108.788 25.1767C108.429 29.8975 109.776 33.0462 112.813 34.5852C114.435 35.4075 117.187 35.7997 119.695 35.566C123.411 35.2196 125.902 34.0707 128.145 31.6686C129.924 29.7631 130.963 27.6519 131.588 24.6731C131.806 23.636 131.84 23.118 131.838 20.8957C131.836 18.6056 131.808 18.2217 131.587 17.4322C130.861 14.8387 129.173 13.0731 126.695 12.3145C124.895 11.7636 122.067 11.5889 120.058 11.9047ZM12.9505 14.0512C11.4135 14.5887 9.89223 17.4698 9.06466 21.4108C8.95893 21.9144 8.84438 22.4239 8.81028 22.5429C8.75204 22.7458 8.79907 22.7543 9.56587 22.6786C11.2647 22.5112 12.5994 21.9088 13.654 20.8335C14.9098 19.5532 15.6081 17.6582 15.491 15.8481C15.4262 14.8461 15.2039 14.333 14.728 14.0867C14.3475 13.89 13.4624 13.8722 12.9505 14.0512ZM87.2233 14.3723C85.6834 14.6456 84.738 16.0557 83.9049 19.3217C82.9097 23.2227 82.4407 26.2996 82.4349 28.9657C82.43 31.2258 82.5683 31.9615 83.1051 32.5308C83.4834 32.932 83.5193 32.9446 84.1139 32.8833C84.453 32.8482 84.8845 32.7398 85.0729 32.6424C86.0285 32.148 86.8478 31.0466 87.3232 29.6173C87.5907 28.8127 90.02 15.8503 90.02 15.2273C90.02 15.0186 89.8886 14.8959 89.4192 14.6667C88.7204 14.3255 88.0179 14.2313 87.2233 14.3723ZM121.644 14.3657C120.807 14.5653 120.192 15.1473 119.616 16.2859C118.975 17.5525 118.626 18.762 117.956 22.0404C117.276 25.3666 117.136 26.4472 117.061 28.9722C116.986 31.5056 117.09 32.1545 117.656 32.6871C118.197 33.1953 119.565 33.1688 120.335 32.6351C121.465 31.8519 122.472 28.9348 123.303 24.0352C123.816 21.0141 123.916 19.8958 123.869 17.6818C123.817 15.2739 123.684 14.8168 122.93 14.4743C122.431 14.2476 122.215 14.2294 121.644 14.3657Z" fill="#FF5A13"/>
</svg>
