<svg width="155" height="78" viewBox="0 0 155 78" fill="none" xmlns="http://www.w3.org/2000/svg">
<path d="M18.6603 6.17425L39.5779 23.7704L18.6603 41.3665L26.011 47.5346L54.3353 23.7704L26.011 0L18.6603 6.17425Z" fill="#78716C"/>
<path d="M0 25.6272L13.137 36.6455C16.6323 34.0706 19.0691 30.1407 19.6744 25.6272H0ZM13.5265 10.5237L0.366295 21.5575H19.7815C19.2724 17.0797 16.8992 13.1638 13.5265 10.5237Z" fill="#78716C"/>
<path d="M42.6243 50.0558C43.8908 42.972 48.125 38.131 56.3495 38.131C60.191 38.131 62.3065 38.904 64.0697 39.4767L63.1213 44.9789C61.6515 44.355 59.3466 43.5091 56.1152 43.5091C52.0021 43.5091 49.6972 45.8574 48.8498 50.0558C48.0039 54.3163 48.662 56.7391 53.5728 56.7391C54.5041 56.7391 55.5797 56.5824 56.1974 56.3542L56.6987 53.5806H53.3105L55.5936 48.7427H63.7732L61.6996 60.5076C57.3584 60.0746 55.4617 61.9682 51.5846 61.9682C43.3072 61.9682 41.3516 57.1598 42.6243 50.0558Z" fill="#78716C"/>
<path d="M78.1563 43.1652C74.5523 43.1652 73.084 45.8224 72.2801 50.0565C71.4745 54.3155 71.8532 56.9665 75.4712 56.9665C79.0798 56.9665 80.545 54.3155 81.3474 50.0565C82.1592 45.8224 81.7696 43.1652 78.1563 43.1652ZM74.7417 61.9674C66.7779 61.9674 64.8222 57.1233 66.0468 50.0565C67.2792 42.9728 70.9716 38.1318 78.9323 38.1318C86.8915 38.1318 88.8425 42.9728 87.5775 50.0565C86.311 57.1233 82.6869 61.9674 74.7417 61.9674Z" fill="#78716C"/>
<path d="M93.3836 61.582L89.3916 38.5209H95.5441L98.2355 54.6643L106.614 38.5209H113.143L100.997 61.582H93.3836Z" fill="#78716C"/>
<path d="M119.857 43.3688H122.859C124.827 43.3688 125.454 43.7491 125.661 43.985C125.79 44.1247 125.853 44.3389 125.853 44.6198C125.853 44.775 125.824 44.9799 125.782 45.1925C125.54 46.3473 124.816 47.4182 121.244 47.4182H119.12C119.348 46.1362 119.685 44.3451 119.857 43.3688ZM121.091 57.2337H117.281C117.537 55.8306 118.014 53.3193 118.204 52.2608H122.158C124.028 52.2608 125.333 52.5634 125.824 53.1222C125.917 53.2169 126.108 53.4419 126.108 53.979C126.108 54.1326 126.092 54.3266 126.049 54.547C125.79 55.8027 124.996 57.2337 121.091 57.2337ZM129.249 49.1783C130.212 48.1369 130.818 46.9293 131.054 45.5557C131.144 45.0808 131.182 44.6198 131.182 44.179C131.182 42.8054 130.761 41.6072 129.931 40.6914C128.631 39.262 126.424 38.5216 123.357 38.5216H115.44L111.017 62.0778H120.634C126.449 62.0778 130.451 59.4082 131.318 54.9257C131.399 54.488 131.442 54.055 131.442 53.6375C131.442 51.8402 130.666 50.2741 129.249 49.1783Z" fill="#78716C"/>
<path d="M143.339 48.3851H140.262C140.518 46.9851 140.99 44.4583 141.19 43.4106H144.766C146.613 43.4106 147.934 43.7443 148.472 44.3729C148.685 44.6011 148.78 44.8851 148.78 45.2281C148.78 45.3787 148.764 45.5308 148.722 45.6953C148.258 47.9195 145.537 48.3851 143.339 48.3851ZM153.996 46.0818C154.075 45.6472 154.122 45.2281 154.122 44.8153C154.122 43.4106 153.636 42.1208 152.728 41.1058C151.671 39.9246 149.532 38.5231 145.263 38.5231H136.765L132.341 62.0793H137.687C137.687 62.0793 139.13 54.4817 139.358 53.2509C139.718 53.2183 140.117 53.1873 140.493 53.1873C143.335 53.1873 144.634 54.0565 145.439 55.5341C145.618 55.8833 146.517 57.7489 147.203 62.0855L152.607 62.07C152.058 55.5341 149.279 51.8494 149.279 51.8494C151.743 50.6419 153.498 48.5388 153.996 46.0818Z" fill="#78716C"/>
<path d="M46.3086 68.8657H45.1181V68.5972C45.1181 68.3256 45.053 68.0897 44.9257 67.891C44.7969 67.6923 44.5811 67.593 44.2769 67.593C44.1139 67.593 43.9789 67.624 43.8749 67.6861C43.7694 67.7482 43.6871 67.8289 43.6297 67.9267C43.5707 68.0229 43.5303 68.1362 43.5071 68.265C43.4838 68.3923 43.4714 68.5273 43.4714 68.667C43.4714 68.83 43.4776 68.9697 43.4884 69.0814C43.5009 69.1948 43.5303 69.2925 43.5769 69.3732C43.6235 69.4555 43.6918 69.5269 43.7802 69.5905C43.8703 69.6526 43.9929 69.7147 44.1481 69.7768L45.0592 70.1384C45.3246 70.2393 45.5388 70.3588 45.7017 70.4939C45.8647 70.6304 45.992 70.7903 46.0804 70.9735C46.1705 71.1566 46.231 71.3661 46.262 71.6036C46.2931 71.8411 46.3086 72.1111 46.3086 72.4154C46.3086 72.7661 46.2729 73.0905 46.2031 73.3901C46.1332 73.6896 46.0184 73.9473 45.8585 74.1615C45.7002 74.3757 45.4875 74.5448 45.2221 74.669C44.9583 74.7932 44.6354 74.8553 44.2536 74.8553C43.9665 74.8553 43.698 74.8056 43.4481 74.7031C43.1982 74.6023 42.9856 74.4641 42.8055 74.2887C42.627 74.1149 42.4842 73.9054 42.3802 73.6648C42.2747 73.4242 42.2219 73.1619 42.2219 72.8825V72.4386H43.4139V72.8127C43.4139 73.03 43.4776 73.2271 43.6064 73.4025C43.7337 73.5763 43.9494 73.6648 44.2536 73.6648C44.4554 73.6648 44.6137 73.6353 44.727 73.5763C44.8388 73.5189 44.9257 73.4366 44.9831 73.3311C45.0421 73.2271 45.0793 73.0967 45.0949 72.94C45.1104 72.7848 45.1181 72.614 45.1181 72.4262C45.1181 72.2089 45.1104 72.0304 45.0949 71.8892C45.0793 71.7495 45.0452 71.6362 44.9955 71.5508C44.9443 71.4655 44.8745 71.3956 44.7844 71.3413C44.696 71.287 44.5765 71.228 44.429 71.1659L43.5769 70.8151C43.0632 70.6056 42.7186 70.3278 42.5432 69.9801C42.3678 69.634 42.2809 69.201 42.2809 68.6795C42.2809 68.3675 42.3228 68.0726 42.4097 67.7917C42.4951 67.5107 42.6208 67.2701 42.7884 67.0684C42.9561 66.8651 43.1687 66.7036 43.4248 66.5826C43.6809 66.4631 43.982 66.4025 44.3235 66.4025C44.6199 66.4025 44.89 66.4569 45.1352 66.5655C45.3804 66.6741 45.5915 66.8185 45.7654 66.9985C45.9408 67.177 46.0758 67.3772 46.1689 67.5992C46.262 67.8211 46.3086 68.0493 46.3086 68.2821V68.8657Z" fill="#78716C"/>
<path d="M46.8361 68.4354C46.8361 68.1002 46.8951 67.8053 47.0115 67.5476C47.1279 67.2915 47.2816 67.0789 47.4725 66.9113C47.6634 66.7437 47.8776 66.6179 48.115 66.5326C48.3525 66.4472 48.5915 66.4037 48.8321 66.4037C49.0742 66.4037 49.3133 66.4472 49.5507 66.5326C49.7882 66.6179 50.0024 66.7437 50.1933 66.9113C50.3827 67.0789 50.5379 67.2915 50.6543 67.5476C50.7707 67.8053 50.8297 68.1002 50.8297 68.4354V72.8248C50.8297 73.1678 50.7707 73.4658 50.6543 73.7188C50.5379 73.9718 50.3827 74.1813 50.1933 74.3489C50.0024 74.5166 49.7882 74.6423 49.5507 74.7292C49.3133 74.8146 49.0742 74.8565 48.8321 74.8565C48.5915 74.8565 48.3525 74.8146 48.115 74.7292C47.8776 74.6423 47.6634 74.5166 47.4725 74.3489C47.2816 74.1813 47.1279 73.9718 47.0115 73.7188C46.8951 73.4658 46.8361 73.1678 46.8361 72.8248V68.4354ZM48.0266 72.8248C48.0266 73.1135 48.1073 73.3261 48.2656 73.4611C48.4255 73.5977 48.6148 73.666 48.8321 73.666C49.051 73.666 49.2388 73.5977 49.3986 73.4611C49.5585 73.3261 49.6377 73.1135 49.6377 72.8248V68.4354C49.6377 68.1483 49.5585 67.9357 49.3986 67.7991C49.2388 67.6625 49.051 67.5942 48.8321 67.5942C48.6148 67.5942 48.4255 67.6625 48.2656 67.7991C48.1073 67.9357 48.0266 68.1483 48.0266 68.4354V72.8248Z" fill="#78716C"/>
<path d="M51.5876 66.4734H52.7781V73.596H55.1373V74.7864H51.5876V66.4734Z" fill="#78716C"/>
<path d="M59.4672 72.9168C59.4672 73.19 59.416 73.443 59.3151 73.6758C59.2142 73.9086 59.076 74.1135 58.9007 74.2889C58.7253 74.4643 58.5219 74.6024 58.2876 74.7033C58.0548 74.8042 57.8049 74.8554 57.541 74.8554C57.2756 74.8554 57.0273 74.8042 56.7929 74.7033C56.5601 74.6024 56.3552 74.4643 56.1798 74.2889C56.006 74.1135 55.8679 73.9086 55.7654 73.6758C55.6645 73.443 55.6149 73.19 55.6149 72.9168V66.4725H56.8053V72.8004C56.8053 73.0953 56.8752 73.3142 57.0149 73.4539C57.1545 73.5936 57.3299 73.665 57.541 73.665C57.7506 73.665 57.9259 73.5936 58.0656 73.4539C58.2069 73.3142 58.2767 73.0953 58.2767 72.8004V66.4725H59.4672V72.9168Z" fill="#78716C"/>
<path d="M61.9769 74.8542C61.7674 74.8386 61.5563 74.7921 61.3468 74.7145C61.1357 74.6369 60.9479 74.5205 60.7802 74.3699C60.6126 74.2178 60.4791 74.0207 60.3767 73.7801C60.2758 73.538 60.2261 73.2431 60.2261 72.8923V68.3152C60.2261 68.0435 60.2727 67.7906 60.3658 67.5562C60.459 67.3234 60.5909 67.1216 60.7632 66.9493C60.9339 66.7786 61.1372 66.6436 61.3747 66.5473C61.6122 66.4495 61.876 66.4014 62.1632 66.4014C62.4363 66.4014 62.6893 66.4495 62.9221 66.5473C63.1565 66.6436 63.3583 66.7801 63.529 66.9555C63.7013 67.1309 63.8348 67.3404 63.9325 67.5857C64.0303 67.8309 64.0784 68.0979 64.0784 68.385V68.8522H62.888V68.4564C62.888 68.222 62.8212 68.0203 62.6893 67.848C62.5574 67.6773 62.3773 67.5919 62.1523 67.5919C61.8558 67.5919 61.6603 67.6835 61.5625 67.8666C61.4647 68.0498 61.4166 68.281 61.4166 68.5604V72.8116C61.4166 73.0522 61.4694 73.2539 61.5734 73.4185C61.6789 73.5814 61.8683 73.6637 62.1399 73.6637C62.2175 73.6637 62.3013 73.6497 62.3913 73.6218C62.4813 73.5954 62.562 73.5504 62.6365 73.4883C62.711 73.4262 62.77 73.3409 62.8181 73.2307C62.8647 73.122 62.888 72.9854 62.888 72.8225V72.4143H64.0784V72.928C64.0784 73.1531 64.0396 73.3719 63.962 73.5814C63.8844 73.791 63.7773 73.9819 63.6408 74.1526C63.5042 74.3249 63.3412 74.4692 63.1503 74.5856C62.9594 74.7021 62.7514 74.7843 62.5248 74.8309L62.0235 75.4843C62.0855 75.4765 62.1461 75.4703 62.2051 75.4672C62.2625 75.4626 62.323 75.461 62.3851 75.461C62.5807 75.461 62.739 75.489 62.8647 75.5433C62.9889 75.5976 63.0898 75.669 63.1674 75.759C63.245 75.8491 63.2993 75.9437 63.3319 76.0446C63.3614 76.1455 63.3784 76.2433 63.3784 76.3364C63.3784 76.5242 63.3334 76.6856 63.2434 76.8207C63.1534 76.9572 63.0385 77.069 62.8988 77.1544C62.7592 77.2397 62.6055 77.3018 62.4379 77.3406C62.2702 77.3794 62.1057 77.3996 61.9412 77.3996C61.7161 77.3996 61.5066 77.3717 61.3111 77.3173C61.117 77.263 60.9649 77.2164 60.8563 77.1776L61.055 76.6872C61.1791 76.7337 61.3033 76.7741 61.4275 76.8098C61.5532 76.8455 61.6805 76.8626 61.8139 76.8626C61.876 76.8626 61.9443 76.8564 62.0173 76.8455C62.0918 76.8331 62.16 76.8098 62.2221 76.7741C62.2842 76.74 62.337 76.6903 62.3789 76.6282C62.4224 76.5661 62.4441 76.4854 62.4441 76.383C62.4441 76.251 62.3898 76.1439 62.2811 76.0632C62.1709 75.981 62.0499 75.9406 61.9179 75.9406C61.755 75.9406 61.6028 75.967 61.4632 76.0213L61.2645 75.7885L61.9769 74.8542Z" fill="#78716C"/>
<path d="M64.6886 68.4348C64.6886 68.0996 64.7476 67.8047 64.864 67.547C64.9804 67.2909 65.1341 67.0783 65.325 66.9107C65.5159 66.743 65.7301 66.6173 65.9675 66.532C66.205 66.4466 66.444 66.4031 66.6846 66.4031C66.9267 66.4031 67.1657 66.4466 67.4032 66.532C67.6407 66.6173 67.8549 66.743 68.0458 66.9107C68.2367 67.0783 68.3904 67.2909 68.5068 67.547C68.6232 67.8047 68.6821 68.0996 68.6821 68.4348V72.8242C68.6821 73.1672 68.6232 73.4652 68.5068 73.7182C68.3904 73.9712 68.2367 74.1807 68.0458 74.3483C67.8549 74.516 67.6407 74.6417 67.4032 74.7286C67.1657 74.814 66.9267 74.8559 66.6846 74.8559C66.444 74.8559 66.205 74.814 65.9675 74.7286C65.7301 74.6417 65.5159 74.516 65.325 74.3483C65.1341 74.1807 64.9804 73.9712 64.864 73.7182C64.7476 73.4652 64.6886 73.1672 64.6886 72.8242V68.4348ZM68.6697 64.64C68.6309 64.8184 68.5844 64.9861 68.53 65.1428C68.4757 65.298 68.4012 65.4346 68.3081 65.551C68.215 65.6674 68.1017 65.7606 67.9697 65.8304C67.8378 65.9018 67.6779 65.936 67.4901 65.936C67.397 65.936 67.2713 65.9127 67.1114 65.8661C66.9516 65.8195 66.787 65.7668 66.6148 65.7078C66.444 65.6504 66.2842 65.596 66.1367 65.5448C65.9877 65.4936 65.8791 65.4688 65.8092 65.4688C65.6462 65.4688 65.5221 65.5184 65.4352 65.6147C65.3498 65.7125 65.3032 65.8382 65.2955 65.9949H64.701C64.7321 65.8149 64.7755 65.6488 64.8345 65.4921C64.8935 65.3368 64.9695 65.2003 65.0627 65.0839C65.1558 64.9674 65.2691 64.8743 65.401 64.8029C65.5329 64.7331 65.6928 64.6989 65.8791 64.6989C65.9737 64.6989 66.0995 64.7238 66.2593 64.775C66.4192 64.8247 66.5837 64.879 66.7544 64.938C66.9267 64.9969 67.0881 65.0482 67.2402 65.0947C67.3924 65.1428 67.4979 65.1661 67.5615 65.1661C67.7245 65.1661 67.8487 65.1164 67.934 65.0202C68.0194 64.9224 68.066 64.7952 68.0753 64.64H68.6697ZM65.8791 72.8242C65.8791 73.1129 65.9598 73.3255 66.1196 73.4605C66.2779 73.5971 66.4673 73.6654 66.6846 73.6654C66.9034 73.6654 67.0912 73.5971 67.2511 73.4605C67.411 73.3255 67.4901 73.1129 67.4901 72.8242V68.4348C67.4901 68.1477 67.411 67.9351 67.2511 67.7985C67.0912 67.6619 66.9034 67.5936 66.6846 67.5936C66.4673 67.5936 66.2779 67.6619 66.1196 67.7985C65.9598 67.9351 65.8791 68.1477 65.8791 68.4348V72.8242Z" fill="#78716C"/>
<path d="M69.4402 66.4734H72.9898V67.594H70.6306V70.0339H72.6856V71.1561H70.6306V73.596H72.9898V74.7864H69.4402V66.4734Z" fill="#78716C"/>
<path d="M77.3198 68.8657H76.1293V68.5972C76.1293 68.3256 76.0641 68.0897 75.9368 67.891C75.808 67.6923 75.5923 67.593 75.2881 67.593C75.1251 67.593 74.9901 67.624 74.8861 67.6861C74.7805 67.7482 74.6983 67.8289 74.6408 67.9267C74.5819 68.0229 74.5415 68.1362 74.5182 68.265C74.4949 68.3923 74.4825 68.5273 74.4825 68.667C74.4825 68.83 74.4887 68.9697 74.4996 69.0814C74.512 69.1948 74.5415 69.2925 74.5881 69.3732C74.6346 69.4555 74.7029 69.5269 74.7914 69.5905C74.8814 69.6526 75.004 69.7147 75.1592 69.7768L76.0703 70.1384C76.3357 70.2393 76.5499 70.3588 76.7129 70.4939C76.8759 70.6304 77.0031 70.7903 77.0916 70.9735C77.1816 71.1566 77.2422 71.3661 77.2732 71.6036C77.3042 71.8411 77.3198 72.1111 77.3198 72.4154C77.3198 72.7661 77.2841 73.0905 77.2142 73.3901C77.1444 73.6896 77.0295 73.9473 76.8697 74.1615C76.7113 74.3757 76.4987 74.5448 76.2333 74.669C75.9694 74.7932 75.6466 74.8553 75.2648 74.8553C74.9777 74.8553 74.7091 74.8056 74.4593 74.7031C74.2094 74.6023 73.9967 74.4641 73.8167 74.2887C73.6382 74.1149 73.4954 73.9054 73.3914 73.6648C73.2859 73.4242 73.2331 73.1619 73.2331 72.8825V72.4386H74.4251V72.8127C74.4251 73.03 74.4887 73.2271 74.6176 73.4025C74.7448 73.5763 74.9606 73.6648 75.2648 73.6648C75.4666 73.6648 75.6249 73.6353 75.7382 73.5763C75.8499 73.5189 75.9368 73.4366 75.9943 73.3311C76.0533 73.2271 76.0905 73.0967 76.106 72.94C76.1215 72.7848 76.1293 72.614 76.1293 72.4262C76.1293 72.2089 76.1215 72.0304 76.106 71.8892C76.0905 71.7495 76.0564 71.6362 76.0067 71.5508C75.9555 71.4655 75.8856 71.3956 75.7956 71.3413C75.7071 71.287 75.5876 71.228 75.4402 71.1659L74.5881 70.8151C74.0743 70.6056 73.7298 70.3278 73.5544 69.9801C73.379 69.634 73.2921 69.201 73.2921 68.6795C73.2921 68.3675 73.334 68.0726 73.4209 67.7917C73.5063 67.5107 73.632 67.2701 73.7996 67.0684C73.9672 66.8651 74.1799 66.7036 74.436 66.5826C74.6921 66.4631 74.9916 66.4025 75.3346 66.4025C75.6311 66.4025 75.9012 66.4569 76.1464 66.5655C76.3916 66.6741 76.6011 66.8185 76.7765 66.9985C76.9519 67.177 77.087 67.3772 77.1801 67.5992C77.2732 67.8211 77.3198 68.0493 77.3198 68.2821V68.8657Z" fill="#78716C"/>
<path d="M79.7964 66.4734H81.5829C81.9104 66.4734 82.1975 66.5168 82.4474 66.6022C82.6958 66.6876 82.9224 66.8397 83.1241 67.057C83.3259 67.2758 83.4672 67.5304 83.5448 67.8222C83.6224 68.114 83.6612 68.5097 83.6612 69.008C83.6612 69.3727 83.6394 69.6862 83.5975 69.947C83.5541 70.2077 83.4625 70.4514 83.3228 70.6765C83.1598 70.9496 82.941 71.1607 82.6694 71.3128C82.3962 71.4649 82.0377 71.541 81.5938 71.541H80.9869V74.7864H79.7964V66.4734ZM80.9869 70.4204H81.5596C81.8002 70.4204 81.988 70.3847 82.1199 70.3148C82.2519 70.245 82.3496 70.1488 82.4117 70.0292C82.4738 69.9082 82.5111 69.7623 82.5235 69.5916C82.5343 69.4193 82.5406 69.2284 82.5406 69.0188C82.5406 68.8248 82.5343 68.6386 82.5235 68.4647C82.5111 68.2893 82.4754 68.1372 82.4179 68.0084C82.359 67.8796 82.2674 67.7787 82.1432 67.7058C82.0191 67.6313 81.839 67.594 81.6062 67.594H80.9869V70.4204Z" fill="#78716C"/>
<path d="M85.1415 66.4734H86.1333L87.9896 74.7864H86.7992L86.4499 73H84.8265L84.4757 74.7864H83.2852L85.1415 66.4734ZM85.6429 68.8667H85.6196L85.036 71.8793H86.228L85.6429 68.8667Z" fill="#78716C"/>
<path d="M88.2859 66.4734H90.2012C91.6012 66.4734 92.3027 67.2867 92.3027 68.9133C92.3027 69.396 92.2267 69.8104 92.0746 70.1565C91.9225 70.5042 91.6555 70.782 91.2752 70.9915L92.5588 74.7864H91.2985L90.1888 71.2368H89.4763V74.7864H88.2859V66.4734ZM89.4763 70.186H90.1531C90.3641 70.186 90.5318 70.1565 90.6559 70.0991C90.7801 70.0401 90.8763 69.9563 90.9415 69.8477C91.0083 69.739 91.0533 69.604 91.0766 69.4457C91.0998 69.2858 91.1107 69.1011 91.1107 68.89C91.1107 68.6805 91.0998 68.4958 91.0766 68.3359C91.0533 68.176 91.0036 68.0395 90.9307 67.9277C90.8562 67.8144 90.7537 67.7306 90.6218 67.6763C90.4883 67.6219 90.3129 67.594 90.0956 67.594H89.4763V70.186Z" fill="#78716C"/>
<path d="M94.2862 66.4734H95.278L97.1343 74.7864H95.9439L95.5947 73H93.9712L93.6204 74.7864H92.4299L94.2862 66.4734ZM94.7876 68.8667H94.7643L94.1807 71.8793H95.3727L94.7876 68.8667Z" fill="#78716C"/>
<path d="M99.2357 68.4354C99.2357 68.1002 99.2946 67.8053 99.411 67.5476C99.5275 67.2915 99.6811 67.0789 99.872 66.9113C100.063 66.7437 100.277 66.6179 100.515 66.5326C100.752 66.4472 100.991 66.4037 101.232 66.4037C101.474 66.4037 101.713 66.4472 101.95 66.5326C102.188 66.6179 102.402 66.7437 102.593 66.9113C102.784 67.0789 102.937 67.2915 103.054 67.5476C103.17 67.8053 103.229 68.1002 103.229 68.4354V68.8561H102.037V68.4354C102.037 68.1483 101.958 67.9357 101.798 67.7991C101.638 67.6625 101.451 67.5942 101.232 67.5942C101.014 67.5942 100.825 67.6625 100.667 67.7991C100.507 67.9357 100.426 68.1483 100.426 68.4354V72.8248C100.426 73.1135 100.507 73.3261 100.667 73.4611C100.825 73.5977 101.014 73.666 101.232 73.666C101.451 73.666 101.638 73.5977 101.798 73.4611C101.958 73.3261 102.037 73.1135 102.037 72.8248V71.2603H101.092V70.2095H103.229V72.8248C103.229 73.1678 103.17 73.4658 103.054 73.7188C102.937 73.9718 102.784 74.1813 102.593 74.3489C102.402 74.5166 102.188 74.6423 101.95 74.7292C101.713 74.8146 101.474 74.8565 101.232 74.8565C100.991 74.8565 100.752 74.8146 100.515 74.7292C100.277 74.6423 100.063 74.5166 99.872 74.3489C99.6811 74.1813 99.5275 73.9718 99.411 73.7188C99.2946 73.4658 99.2357 73.1678 99.2357 72.8248V68.4354Z" fill="#78716C"/>
<path d="M103.987 66.4734H107.537V67.594H105.178V70.0339H107.233V71.1561H105.178V73.596H107.537V74.7864H103.987V66.4734Z" fill="#78716C"/>
<path d="M111.867 68.8657H110.676V68.5972C110.676 68.3256 110.611 68.0897 110.484 67.891C110.355 67.6923 110.139 67.593 109.835 67.593C109.672 67.593 109.537 67.624 109.431 67.6861C109.327 67.7482 109.245 67.8289 109.188 67.9267C109.129 68.0229 109.088 68.1362 109.065 68.265C109.042 68.3923 109.029 68.5273 109.029 68.667C109.029 68.83 109.036 68.9697 109.047 69.0814C109.059 69.1948 109.088 69.2925 109.135 69.3732C109.182 69.4555 109.25 69.5269 109.338 69.5905C109.428 69.6526 109.551 69.7147 109.706 69.7768L110.617 70.1384C110.881 70.2393 111.097 70.3588 111.26 70.4939C111.423 70.6304 111.55 70.7903 111.639 70.9735C111.729 71.1566 111.789 71.3661 111.82 71.6036C111.851 71.8411 111.867 72.1111 111.867 72.4154C111.867 72.7661 111.831 73.0905 111.761 73.3901C111.691 73.6896 111.576 73.9473 111.417 74.1615C111.258 74.3757 111.046 74.5448 110.78 74.669C110.516 74.7932 110.194 74.8553 109.812 74.8553C109.523 74.8553 109.255 74.8056 109.006 74.7031C108.756 74.6023 108.542 74.4641 108.364 74.2887C108.185 74.1149 108.042 73.9054 107.938 73.6648C107.833 73.4242 107.78 73.1619 107.78 72.8825V72.4386H108.97V72.8127C108.97 73.03 109.036 73.2271 109.163 73.4025C109.292 73.5763 109.508 73.6648 109.812 73.6648C110.013 73.6648 110.172 73.6353 110.285 73.5763C110.397 73.5189 110.484 73.4366 110.541 73.3311C110.6 73.2271 110.637 73.0967 110.653 72.94C110.668 72.7848 110.676 72.614 110.676 72.4262C110.676 72.2089 110.668 72.0304 110.653 71.8892C110.637 71.7495 110.603 71.6362 110.554 71.5508C110.502 71.4655 110.433 71.3956 110.343 71.3413C110.254 71.287 110.135 71.228 109.987 71.1659L109.135 70.8151C108.621 70.6056 108.277 70.3278 108.101 69.9801C107.926 69.634 107.839 69.201 107.839 68.6795C107.839 68.3675 107.881 68.0726 107.966 67.7917C108.053 67.5107 108.179 67.2701 108.347 67.0684C108.514 66.8651 108.725 66.7036 108.983 66.5826C109.239 66.4631 109.539 66.4025 109.882 66.4025C110.178 66.4025 110.448 66.4569 110.693 66.5655C110.939 66.6741 111.148 66.8185 111.323 66.9985C111.499 67.177 111.632 67.3772 111.727 67.5992C111.82 67.8211 111.867 68.0493 111.867 68.2821V68.8657Z" fill="#78716C"/>
<path d="M113.247 67.5937H111.869V66.4731H115.816V67.5937H114.438V74.7861H113.247V67.5937Z" fill="#78716C"/>
<path d="M116.726 66.4726H117.717L119.574 74.7856H118.383L118.034 72.9991H116.41L116.06 74.7856H114.869L116.726 66.4726ZM119.212 64.6395C119.173 64.818 119.127 64.9856 119.072 65.1409C119.018 65.2976 118.943 65.4342 118.85 65.5506C118.757 65.667 118.644 65.7601 118.512 65.83C118.38 65.8998 118.22 65.9355 118.034 65.9355C117.939 65.9355 117.814 65.9122 117.654 65.8657C117.494 65.8191 117.329 65.7663 117.157 65.7074C116.986 65.6499 116.826 65.5956 116.679 65.5444C116.53 65.4932 116.421 65.4683 116.351 65.4683C116.188 65.4683 116.064 65.518 115.979 65.6142C115.892 65.712 115.845 65.8377 115.838 65.9945H115.242C115.274 65.8145 115.319 65.6468 115.377 65.4916C115.436 65.3364 115.512 65.1998 115.605 65.0834C115.698 64.967 115.811 64.8723 115.943 64.8025C116.075 64.7327 116.235 64.6985 116.421 64.6985C116.516 64.6985 116.642 64.7233 116.802 64.7746C116.96 64.8242 117.126 64.8785 117.298 64.9375C117.469 64.995 117.63 65.0477 117.782 65.0943C117.935 65.1409 118.04 65.1641 118.104 65.1641C118.267 65.1641 118.391 65.116 118.476 65.0182C118.562 64.922 118.61 64.7947 118.618 64.6395H119.212ZM117.227 68.8659H117.204L116.62 71.8785H117.812L117.227 68.8659Z" fill="#78716C"/>
<path d="M119.796 68.4354C119.796 68.1002 119.855 67.8053 119.971 67.5476C120.087 67.2915 120.241 67.0789 120.432 66.9113C120.623 66.7437 120.837 66.6179 121.075 66.5326C121.312 66.4472 121.551 66.4037 121.792 66.4037C122.034 66.4037 122.273 66.4472 122.51 66.5326C122.748 66.6179 122.962 66.7437 123.153 66.9113C123.342 67.0789 123.497 67.2915 123.614 67.5476C123.73 67.8053 123.789 68.1002 123.789 68.4354V72.8248C123.789 73.1678 123.73 73.4658 123.614 73.7188C123.497 73.9718 123.342 74.1813 123.153 74.3489C122.962 74.5166 122.748 74.6423 122.51 74.7292C122.273 74.8146 122.034 74.8565 121.792 74.8565C121.551 74.8565 121.312 74.8146 121.075 74.7292C120.837 74.6423 120.623 74.5166 120.432 74.3489C120.241 74.1813 120.087 73.9718 119.971 73.7188C119.855 73.4658 119.796 73.1678 119.796 72.8248V68.4354ZM120.986 72.8248C120.986 73.1135 121.067 73.3261 121.225 73.4611C121.385 73.5977 121.574 73.666 121.792 73.666C122.01 73.666 122.198 73.5977 122.358 73.4611C122.518 73.3261 122.597 73.1135 122.597 72.8248V68.4354C122.597 68.1483 122.518 67.9357 122.358 67.7991C122.198 67.6625 122.01 67.5942 121.792 67.5942C121.574 67.5942 121.385 67.6625 121.225 67.7991C121.067 67.9357 120.986 68.1483 120.986 68.4354V72.8248Z" fill="#78716C"/>
<path d="M126.427 66.4734H128.213C128.541 66.4734 128.828 66.5168 129.078 66.6022C129.326 66.6876 129.551 66.8397 129.754 67.057C129.956 67.2758 130.097 67.5304 130.175 67.8222C130.252 68.114 130.291 68.5097 130.291 69.008C130.291 69.3727 130.27 69.6862 130.228 69.947C130.184 70.2077 130.093 70.4514 129.953 70.6765C129.788 70.9496 129.571 71.1607 129.3 71.3128C129.026 71.4649 128.668 71.541 128.224 71.541H127.617V74.7864H126.427V66.4734ZM127.617 70.4204H128.19C128.43 70.4204 128.618 70.3847 128.75 70.3148C128.882 70.245 128.98 70.1488 129.042 70.0292C129.104 69.9082 129.141 69.7623 129.154 69.5916C129.164 69.4193 129.171 69.2284 129.171 69.0188C129.171 68.8248 129.164 68.6386 129.154 68.4647C129.141 68.2893 129.105 68.1372 129.048 68.0084C128.989 67.8796 128.898 67.7787 128.773 67.7058C128.649 67.6313 128.469 67.594 128.236 67.594H127.617V70.4204Z" fill="#78716C"/>
<path d="M134.743 72.9183C134.743 73.1915 134.692 73.4445 134.591 73.6773C134.49 73.9101 134.352 74.115 134.176 74.2904C134.001 74.4658 133.798 74.6039 133.563 74.7048C133.33 74.8057 133.081 74.8569 132.817 74.8569C132.551 74.8569 132.303 74.8057 132.069 74.7048C131.836 74.6039 131.631 74.4658 131.456 74.2904C131.28 74.115 131.144 73.9101 131.041 73.6773C130.94 73.4445 130.891 73.1915 130.891 72.9183V66.474H132.081V72.8019C132.081 73.0968 132.151 73.3157 132.291 73.4554C132.43 73.595 132.606 73.6664 132.817 73.6664C133.026 73.6664 133.202 73.595 133.341 73.4554C133.483 73.3157 133.552 73.0968 133.552 72.8019V66.474H134.743V72.9183ZM133.109 64.4532H134.369L132.828 66.1H132.058L133.109 64.4532Z" fill="#78716C"/>
<path d="M135.571 66.4734H137.311C137.691 66.4734 138.017 66.5324 138.286 66.6488C138.554 66.7652 138.775 66.9204 138.945 67.116C139.116 67.31 139.239 67.5335 139.313 67.7865C139.388 68.0395 139.423 68.3033 139.423 68.5749V68.8791C139.423 69.1042 139.406 69.2951 139.372 69.4503C139.337 69.6071 139.284 69.7421 139.214 69.8601C139.144 69.9765 139.059 70.0789 138.958 70.1689C138.855 70.259 138.739 70.3428 138.607 70.4204C138.886 70.5523 139.093 70.7494 139.226 71.0102C139.358 71.2709 139.423 71.6186 139.423 72.0547V72.5219C139.423 73.253 139.247 73.8133 138.893 74.2028C138.539 74.5924 137.972 74.7864 137.195 74.7864H135.571V66.4734ZM136.762 69.8833H137.299C137.696 69.8833 137.963 69.784 138.1 69.5853C138.235 69.3867 138.303 69.0964 138.303 68.7146C138.303 68.3421 138.227 68.0612 138.076 67.8749C137.924 67.6871 137.649 67.594 137.252 67.594H136.762V69.8833ZM136.762 73.596H137.275C137.517 73.596 137.705 73.5603 137.842 73.4904C137.978 73.4206 138.081 73.3228 138.151 73.1986C138.222 73.0745 138.264 72.927 138.28 72.7547C138.295 72.584 138.303 72.3962 138.303 72.1944C138.303 71.9849 138.292 71.8017 138.269 71.6465C138.245 71.4898 138.196 71.3594 138.123 71.2554C138.048 71.1499 137.944 71.0692 137.812 71.0148C137.68 70.9605 137.505 70.9341 137.288 70.9341H136.762V73.596Z" fill="#78716C"/>
<path d="M140.253 66.4734H141.443V73.596H143.802V74.7864H140.253V66.4734Z" fill="#78716C"/>
<path d="M145.507 66.4701H144.315V74.7847H145.507V66.4701Z" fill="#78716C"/>
<path d="M150.152 72.9291C150.152 73.1867 150.102 73.432 150.006 73.6648C149.908 73.8976 149.774 74.1025 149.602 74.2779C149.431 74.4533 149.231 74.593 149.001 74.6985C148.772 74.8025 148.525 74.8553 148.26 74.8553C148.035 74.8553 147.805 74.8242 147.57 74.7621C147.338 74.7 147.128 74.5929 146.94 74.4408C146.754 74.2887 146.6 74.0885 146.479 73.8402C146.358 73.5903 146.298 73.2752 146.298 72.8934V68.3178C146.298 68.0446 146.344 67.7917 146.439 67.5588C146.532 67.3245 146.664 67.1227 146.836 66.952C147.007 66.7797 147.21 66.6462 147.448 66.5484C147.685 66.4506 147.949 66.4025 148.236 66.4025C148.509 66.4025 148.762 66.4506 148.995 66.5484C149.23 66.6462 149.431 66.7812 149.602 66.9566C149.774 67.132 149.908 67.3415 150.006 67.5868C150.102 67.832 150.152 68.099 150.152 68.3877V68.8548H148.961V68.4575C148.961 68.2231 148.894 68.0214 148.762 67.8506C148.629 67.6784 148.45 67.593 148.225 67.593C147.929 67.593 147.732 67.6846 147.636 67.8677C147.538 68.0509 147.49 68.2821 147.49 68.563V72.8127C147.49 73.0533 147.543 73.2566 147.647 73.4196C147.752 73.5825 147.941 73.6648 148.213 73.6648C148.291 73.6648 148.374 73.6508 148.464 73.6244C148.554 73.5965 148.635 73.5515 148.71 73.4894C148.783 73.4273 148.843 73.342 148.891 73.2333C148.938 73.1231 148.961 72.9881 148.961 72.8236V72.4154H150.152V72.9291Z" fill="#78716C"/>
<path d="M152.15 66.4734H153.142L155 74.7864H153.808L153.457 73H151.835L151.485 74.7864H150.294L152.15 66.4734ZM152.653 68.8667H152.628L152.045 71.8793H153.237L152.653 68.8667Z" fill="#78716C"/>
</svg>
