<svg width="155" height="29" viewBox="0 0 155 29" fill="none" xmlns="http://www.w3.org/2000/svg">
<path fill-rule="evenodd" clip-rule="evenodd" d="M129.308 0.36341L122.242 0.248863L122.247 0.444513C123.389 1.92276 125.713 -1.04293 121.844 4.36588C121.235 5.2162 118.923 8.5155 118.191 8.9369L112.647 0.893505L113.048 0.686149C115 0.648524 114.844 0.0665906 112.832 0.00220999C112.157 -0.0195289 110.29 0.125118 109.395 0.172776C108.736 0.207893 105.912 0.222107 105.719 0.276455C103.939 0.778121 107.555 0.947852 107.887 1.05237C109.179 1.45788 113.554 7.43273 114.584 8.78138C118.509 13.9184 118.288 11.3842 121.633 7.24544C122.686 5.94195 123.928 4.69614 124.965 3.36589C125.543 2.62258 126.003 2.25887 126.668 1.45872C127.286 0.713741 129.232 1.15103 129.308 0.36341Z" fill="#78716C"/>
<path fill-rule="evenodd" clip-rule="evenodd" d="M68.0801 12.2098H68.7307C70.5396 12.2098 72.714 10.8838 71.7037 9.22827C70.8329 9.29098 71.2801 11.0811 67.2438 11.0811C63.4706 11.0811 59.3317 10.1146 59.0838 5.96744C58.9409 3.59874 62.7628 1.89474 65.5711 1.89474H66.9656C69.0753 1.89474 71.1464 2.24424 71.1464 4.15141C72.0685 4.13301 72.1164 1.69909 71.7121 1.08204C71.2616 0.392248 69.2249 0.524354 67.9868 0.524354C64.57 0.524354 61.8256 0.502615 58.7694 2.11965C57.2926 2.90142 54.8886 5.04019 55.6838 7.23666C57.3699 11.8938 61.7802 12.2098 68.0801 12.2098Z" fill="#78716C"/>
<path fill-rule="evenodd" clip-rule="evenodd" d="M142.674 3.5236L148.377 10.8797C147.475 11.9048 147.696 11.7258 149.608 11.7258H152.767L155 11.6732L154.997 11.5653C154.811 10.9591 153.312 11.3036 152.507 10.9851C151.911 10.7484 151.49 9.98339 151.051 9.50765C149.884 8.2401 149.34 7.99596 148.405 6.40317C147.722 5.23846 144.558 0.12146 143.104 0.12146C140.691 3.24768 138.408 6.42908 136.133 9.62888C134.813 11.485 132.674 11.577 132.604 11.7258L139.665 11.7559L139.731 11.4575L137.776 10.9851L142.674 3.5236Z" fill="#78716C"/>
<path fill-rule="evenodd" clip-rule="evenodd" d="M90.0318 3.48757L90.2873 3.56282L95.6366 11.6639L95.3482 12.031L102.41 12.0485L102.411 11.6455C102.242 11.4448 99.2837 10.8537 98.1893 9.90723C97.6463 9.43733 96.1938 7.36294 95.6937 6.67315C95.0129 5.73253 91.47 0.212518 90.3319 0.685757C90.2344 0.742612 86.088 6.36797 85.666 6.95408C84.8011 8.15558 84.2253 8.93567 83.2797 10.0418C82.2156 11.286 79.8604 11.832 79.8326 12.1288L79.836 12.2609L86.8983 12.1104L86.9436 11.7316L85.0028 11.3713L90.0318 3.48757Z" fill="#78716C"/>
<path fill-rule="evenodd" clip-rule="evenodd" d="M8.43221 0.605248C6.54099 0.605248 4.58252 0.456419 2.34583 0.565114C-2.38896 0.795881 1.29599 1.54755 2.57866 2.13617L2.47527 2.13784L2.67112 10.4371C2.67112 12.2063 -0.138818 11.3016 0.639525 12.2456C1.09426 12.7966 2.33322 12.1294 4.15804 12.1294C5.98286 12.1294 15.534 13.6862 17.1949 11.8317C17.5008 11.4897 18.3464 9.43709 17.4454 9.22806C16.8015 9.63692 17.7765 10.4898 15.4861 10.5909C12.4147 10.7264 9.11389 10.8827 6.10895 10.2757L5.78954 6.5709L5.83073 2.45891C5.83073 1.15374 8.43221 1.91878 8.43221 0.605248Z" fill="#78716C"/>
<path fill-rule="evenodd" clip-rule="evenodd" d="M25.4803 11.9679C25.8889 12.6376 29.0838 12.4118 30.4723 12.4035C31.0809 12.4001 33.3243 12.4804 32.4619 11.8307C31.8349 11.3592 30.2067 12.0966 31.2288 10.794C32.2139 9.5398 34.7986 4.64353 35.7014 4.0708C36.842 5.54821 37.9944 7.38013 39.1333 8.91021C42.3887 13.2847 42.6518 12.7881 48.0338 12.3341L47.9657 11.7262C44.8591 11.7262 43.0469 9.12258 41.5331 6.9905C39.9554 4.76644 38.3003 2.96629 36.9092 0.686218C34.8491 0.686218 32.5275 5.34085 31.5432 6.66943C29.7427 9.09833 28.5231 10.702 25.4803 11.9679Z" fill="#78716C"/>
<path fill-rule="evenodd" clip-rule="evenodd" d="M143.167 25.1827C143.167 24.3332 142.613 24.1167 141.886 24.0439L141.177 23.9812C140.56 23.9177 140.287 23.7095 140.287 23.2488C140.287 22.707 140.678 22.4085 141.405 22.4085C141.886 22.4085 142.295 22.5348 142.63 22.7789L142.94 22.472C142.549 22.1828 142.014 22.0105 141.405 22.0105C140.451 22.0105 139.833 22.4904 139.833 23.2488C139.833 23.9361 140.269 24.3148 141.15 24.3876L141.876 24.4503C142.458 24.5046 142.713 24.722 142.713 25.1827C142.713 25.7697 142.258 26.0682 141.396 26.0682C140.778 26.0682 140.296 25.8876 139.96 25.5347L139.642 25.8508C140.087 26.2755 140.65 26.4745 141.413 26.4745C142.494 26.4745 143.167 25.9779 143.167 25.1827ZM135.911 24.9026C135.911 25.2998 135.83 25.5799 135.666 25.7337C135.348 26.0322 134.976 26.0682 134.576 26.0682C133.776 26.0682 133.431 25.7973 133.431 25.2187C133.431 24.6317 133.804 24.3424 134.549 24.3424H135.911V24.9026ZM136.374 26.4202V23.4386C136.374 22.5256 135.839 22.0105 134.676 22.0105C133.958 22.0105 133.504 22.1644 133.131 22.6794L133.468 22.9687C133.749 22.5707 134.058 22.4177 134.676 22.4177C135.575 22.4177 135.911 22.7881 135.911 23.4837V23.972H134.494C133.54 23.972 132.968 24.4327 132.968 25.2279C132.968 25.5531 133.077 25.8692 133.286 26.0774C133.568 26.3667 133.922 26.4745 134.576 26.4745C135.193 26.4745 135.539 26.3575 135.911 25.9871V26.4202H136.374ZM129.146 24.2429C129.146 25.1468 128.983 26.0682 127.911 26.0682C126.838 26.0682 126.675 25.1468 126.675 24.2429C126.675 23.3391 126.838 22.4177 127.911 22.4177C128.983 22.4177 129.146 23.3391 129.146 24.2429ZM129.609 26.4202V19.9871H129.146V22.6259C128.756 22.1192 128.346 22.0105 127.847 22.0105C127.384 22.0105 127.002 22.1644 126.775 22.3901C126.33 22.8332 126.212 23.5556 126.212 24.2429C126.212 24.9294 126.33 25.6526 126.775 26.0949C127.002 26.3207 127.384 26.4745 127.847 26.4745C128.346 26.4745 128.756 26.3667 129.146 25.86V26.4202H129.609ZM122.308 24.9026C122.308 25.2998 122.226 25.5799 122.063 25.7337C121.745 26.0322 121.372 26.0682 120.973 26.0682C120.174 26.0682 119.828 25.7973 119.828 25.2187C119.828 24.6317 120.201 24.3424 120.945 24.3424H122.308V24.9026ZM122.771 26.4202V23.4386C122.771 22.5256 122.236 22.0105 121.073 22.0105C120.355 22.0105 119.9 22.1644 119.528 22.6794L119.864 22.9687C120.146 22.5707 120.455 22.4177 121.073 22.4177C121.972 22.4177 122.308 22.7881 122.308 23.4837V23.972H120.891C119.937 23.972 119.365 24.4327 119.365 25.2279C119.365 25.5531 119.474 25.8692 119.683 26.0774C119.964 26.3667 120.319 26.4745 120.973 26.4745C121.591 26.4745 121.935 26.3575 122.308 25.9871V26.4202H122.771ZM116.397 26.4202V26.0138H113.754L116.397 22.4988V22.0649H113.417V22.472H115.906L113.272 25.9871V26.4202H116.397ZM109.986 19.9871H109.414V20.5565H109.986V19.9871ZM109.932 22.0649H109.468V26.4202H109.932V22.0649ZM106.327 26.4202V26.0138H106.01C105.492 26.0138 105.337 25.7789 105.337 25.2822V19.9871H104.874V25.2914C104.874 25.9779 105.21 26.4202 105.928 26.4202H106.327ZM100.734 24.9026C100.734 25.2998 100.653 25.5799 100.489 25.7337C100.171 26.0322 99.7989 26.0682 99.3988 26.0682C98.5994 26.0682 98.2548 25.7973 98.2548 25.2187C98.2548 24.6317 98.6271 24.3424 99.3719 24.3424H100.734V24.9026ZM101.198 26.4202V23.4386C101.198 22.5256 100.662 22.0105 99.4988 22.0105C98.781 22.0105 98.3271 22.1644 97.9547 22.6794L98.2909 22.9687C98.5725 22.5707 98.881 22.4177 99.4988 22.4177C100.398 22.4177 100.734 22.7881 100.734 23.4837V23.972H99.3172C98.3632 23.972 97.7908 24.4327 97.7908 25.2279C97.7908 25.5531 97.9001 25.8692 98.1094 26.0774C98.3909 26.3667 98.7448 26.4745 99.3988 26.4745C100.017 26.4745 100.362 26.3575 100.734 25.9871V26.4202H101.198ZM94.4866 26.4202V23.6376C94.4866 23.1225 94.3328 22.7162 94.0327 22.4261C93.7419 22.1468 93.3519 22.0105 92.8703 22.0105C92.334 22.0105 91.907 22.2003 91.58 22.5807V22.0649H91.1169V26.4202H91.58V23.7187C91.58 22.8876 92.0255 22.4177 92.8156 22.4177C93.6057 22.4177 94.0235 22.8784 94.0235 23.7187V26.4202H94.4866ZM87.1772 24.2429C87.1772 24.7488 87.1495 25.3357 86.7864 25.6978C86.541 25.9419 86.2325 26.0682 85.8778 26.0682C85.5239 26.0682 85.2146 25.9419 84.97 25.6978C84.606 25.3357 84.5791 24.7488 84.5791 24.2429C84.5791 23.7371 84.606 23.1493 84.97 22.7881C85.2146 22.544 85.5239 22.4177 85.8778 22.4177C86.2325 22.4177 86.541 22.544 86.7864 22.7881C87.1495 23.1493 87.1772 23.7371 87.1772 24.2429ZM87.6404 24.2429C87.6404 23.6192 87.5589 22.9503 87.0949 22.4904C86.7771 22.1736 86.3686 22.0105 85.8778 22.0105C85.3877 22.0105 84.9784 22.1736 84.6607 22.4904C84.1975 22.9503 84.1151 23.6192 84.1151 24.2429C84.1151 24.8667 84.1975 25.5347 84.6607 25.9954C84.9784 26.3123 85.3877 26.4745 85.8778 26.4745C86.3686 26.4745 86.7771 26.3123 87.0949 25.9954C87.5589 25.5347 87.6404 24.8667 87.6404 24.2429ZM81.011 25.1827C81.011 24.3332 80.4571 24.1167 79.73 24.0439L79.0223 23.9812C78.4045 23.9177 78.1321 23.7095 78.1321 23.2488C78.1321 22.707 78.5222 22.4085 79.2492 22.4085C79.73 22.4085 80.1394 22.5348 80.4756 22.7789L80.7841 22.472C80.3932 22.1828 79.8578 22.0105 79.2492 22.0105C78.2952 22.0105 77.6774 22.4904 77.6774 23.2488C77.6774 23.9361 78.1137 24.3148 78.9945 24.3876L79.7216 24.4503C80.3024 24.5046 80.5571 24.722 80.5571 25.1827C80.5571 25.7697 80.1032 26.0682 79.24 26.0682C78.6222 26.0682 78.1406 25.8876 77.8043 25.5347L77.4866 25.8508C77.9321 26.2755 78.4953 26.4745 79.2585 26.4745C80.3394 26.4745 81.011 25.9779 81.011 25.1827ZM74.7826 22.7613L75.118 22.4261C74.8002 22.11 74.4918 22.0105 74.0648 22.0105C73.547 22.0105 73.0385 22.2371 72.7838 22.6434V22.0649H72.3206V26.4202H72.7838V23.7371C72.7838 23.0414 73.2015 22.4177 73.9555 22.4177C74.3186 22.4177 74.5186 22.4988 74.7826 22.7613ZM68.3894 23.972H65.8098C65.8367 23.5556 65.8459 23.4118 65.9644 23.1493C66.1729 22.6978 66.5906 22.4177 67.0992 22.4177C67.6085 22.4177 68.0448 22.6886 68.2347 23.1493C68.3533 23.4118 68.3625 23.5556 68.3894 23.972ZM68.8525 24.3424V24.1342C68.8525 22.7973 68.1986 22.0105 67.0992 22.0105C66.0006 22.0105 65.3458 22.8332 65.3458 24.2429C65.3458 25.6978 66.0006 26.4745 67.2084 26.4745C67.9355 26.4745 68.344 26.2488 68.7887 25.8065L68.444 25.5347C68.0717 25.906 67.754 26.059 67.2353 26.059C66.3006 26.059 65.8098 25.4536 65.8098 24.3424H68.8525ZM61.6608 24.2429C61.6608 25.1468 61.4969 26.0682 60.4252 26.0682C59.3535 26.0682 59.1896 25.1468 59.1896 24.2429C59.1896 23.3391 59.3535 22.4177 60.4252 22.4177C61.4969 22.4177 61.6608 23.3391 61.6608 24.2429ZM62.124 24.2429C62.124 23.5556 62.0055 22.8332 61.5608 22.3901C61.3339 22.1644 60.9523 22.0105 60.4883 22.0105C59.989 22.0105 59.5805 22.1192 59.1896 22.6259V22.0649H58.7265V28.4987H59.1896V25.86C59.5805 26.3667 59.989 26.4745 60.4883 26.4745C60.9523 26.4745 61.3339 26.3207 61.5608 26.0949C62.0055 25.6526 62.124 24.9294 62.124 24.2429ZM49.2292 25.1827C49.2292 24.3332 48.6753 24.1167 47.9482 24.0439L47.2405 23.9812C46.6227 23.9177 46.3503 23.7095 46.3503 23.2488C46.3503 22.707 46.7403 22.4085 47.4674 22.4085C47.9482 22.4085 48.3576 22.5348 48.6938 22.7789L49.0022 22.472C48.6114 22.1828 48.076 22.0105 47.4674 22.0105C46.5134 22.0105 45.8956 22.4904 45.8956 23.2488C45.8956 23.9361 46.3318 24.3148 47.2127 24.3876L47.9398 24.4503C48.5206 24.5046 48.7753 24.722 48.7753 25.1827C48.7753 25.7697 48.3214 26.0682 47.4582 26.0682C46.8404 26.0682 46.3587 25.8876 46.0225 25.5347L45.7048 25.8508C46.1503 26.2755 46.7134 26.4745 47.4758 26.4745C48.5576 26.4745 49.2292 25.9779 49.2292 25.1827ZM41.9736 24.9026C41.9736 25.2998 41.8921 25.5799 41.7282 25.7337C41.4105 26.0322 41.0381 26.0682 40.638 26.0682C39.8386 26.0682 39.494 25.7973 39.494 25.2187C39.494 24.6317 39.8664 24.3424 40.6111 24.3424H41.9736V24.9026ZM42.4368 26.4202V23.4386C42.4368 22.5256 41.9013 22.0105 40.7389 22.0105C40.021 22.0105 39.5663 22.1644 39.1939 22.6794L39.5302 22.9687C39.8117 22.5707 40.1211 22.4177 40.7389 22.4177C41.6374 22.4177 41.9736 22.7881 41.9736 23.4837V23.972H40.5573C39.6033 23.972 39.0309 24.4327 39.0309 25.2279C39.0309 25.5531 39.1393 25.8692 39.3486 26.0774C39.6302 26.3667 39.9841 26.4745 40.638 26.4745C41.2566 26.4745 41.6013 26.3575 41.9736 25.9871V26.4202H42.4368ZM35.2089 24.2429C35.2089 25.1468 35.045 26.0682 33.9733 26.0682C32.9016 26.0682 32.7377 25.1468 32.7377 24.2429C32.7377 23.3391 32.9016 22.4177 33.9733 22.4177C35.045 22.4177 35.2089 23.3391 35.2089 24.2429ZM35.6721 26.6643V22.0649H35.2089V22.6259C34.8181 22.1192 34.4096 22.0105 33.9094 22.0105C33.4463 22.0105 33.0647 22.1644 32.8377 22.3901C32.3923 22.8332 32.2746 23.5556 32.2746 24.2429C32.2746 24.9294 32.3923 25.6526 32.8377 26.0949C33.0647 26.3207 33.4463 26.4745 33.9094 26.4745C34.4096 26.4745 34.8181 26.3667 35.2089 25.86V26.6376C35.2089 27.5046 34.8004 28.1467 33.8825 28.1467C33.3286 28.1467 33.0924 27.9837 32.747 27.6676L32.4376 27.9745C32.8924 28.3808 33.2286 28.5531 33.8825 28.5531C35.0181 28.5531 35.6721 27.7579 35.6721 26.6643ZM28.598 23.972H26.0184C26.0453 23.5556 26.0546 23.4118 26.1722 23.1493C26.3815 22.6978 26.7993 22.4177 27.3078 22.4177C27.8172 22.4177 28.2526 22.6886 28.4434 23.1493C28.5619 23.4118 28.5703 23.5556 28.598 23.972ZM29.0612 24.3424V24.1342C29.0612 22.7973 28.4072 22.0105 27.3078 22.0105C26.2092 22.0105 25.5544 22.8332 25.5544 24.2429C25.5544 25.6978 26.2092 26.4745 27.4171 26.4745C28.1441 26.4745 28.5526 26.2488 28.9973 25.8065L28.6527 25.5347C28.2803 25.906 27.9626 26.059 27.444 26.059C26.5093 26.059 26.0184 25.4536 26.0184 24.3424H29.0612ZM21.6148 24.2429C21.6148 25.1468 21.4509 26.0682 20.3792 26.0682C19.3075 26.0682 19.1436 25.1468 19.1436 24.2429C19.1436 23.3391 19.3075 22.4177 20.3792 22.4177C21.4509 22.4177 21.6148 23.3391 21.6148 24.2429ZM22.0779 26.4202V19.9871H21.6148V22.6259C21.2239 22.1192 20.8154 22.0105 20.3162 22.0105C19.8522 22.0105 19.4706 22.1644 19.2436 22.3901C18.799 22.8332 18.6805 23.5556 18.6805 24.2429C18.6805 24.9294 18.799 25.6526 19.2436 26.0949C19.4706 26.3207 19.8522 26.4745 20.3162 26.4745C20.8154 26.4745 21.2239 26.3667 21.6148 25.86V26.4202H22.0779ZM14.777 24.9026C14.777 25.2998 14.6954 25.5799 14.5315 25.7337C14.2138 26.0322 13.8414 26.0682 13.4413 26.0682C12.642 26.0682 12.2974 25.7973 12.2974 25.2187C12.2974 24.6317 12.6697 24.3424 13.4144 24.3424H14.777V24.9026ZM15.2401 26.4202V23.4386C15.2401 22.5256 14.7047 22.0105 13.5414 22.0105C12.8235 22.0105 12.3697 22.1644 11.9973 22.6794L12.3335 22.9687C12.6151 22.5707 12.9236 22.4177 13.5414 22.4177C14.4407 22.4177 14.777 22.7881 14.777 23.4837V23.972H13.3598C12.4066 23.972 11.8342 24.4327 11.8342 25.2279C11.8342 25.5531 11.9427 25.8692 12.1519 26.0774C12.4335 26.3667 12.7874 26.4745 13.4413 26.4745C14.0591 26.4745 14.4046 26.3575 14.777 25.9871V26.4202H15.2401Z" fill="#78716C"/>
<path d="M143.167 25.1827C143.167 24.3332 142.613 24.1167 141.886 24.0439L141.177 23.9812C140.56 23.9177 140.287 23.7095 140.287 23.2488C140.287 22.707 140.678 22.4085 141.405 22.4085C141.886 22.4085 142.295 22.5348 142.63 22.7789L142.94 22.472C142.549 22.1828 142.014 22.0105 141.405 22.0105C140.451 22.0105 139.833 22.4904 139.833 23.2488C139.833 23.9361 140.269 24.3148 141.15 24.3876L141.876 24.4503C142.458 24.5046 142.713 24.722 142.713 25.1827C142.713 25.7697 142.258 26.0682 141.396 26.0682C140.778 26.0682 140.296 25.8876 139.96 25.5347L139.642 25.8508C140.087 26.2755 140.65 26.4745 141.413 26.4745C142.494 26.4745 143.167 25.9779 143.167 25.1827ZM135.911 24.9026C135.911 25.2998 135.83 25.5799 135.666 25.7337C135.348 26.0322 134.976 26.0682 134.576 26.0682C133.776 26.0682 133.431 25.7973 133.431 25.2187C133.431 24.6317 133.804 24.3424 134.549 24.3424H135.911V24.9026ZM136.374 26.4202V23.4386C136.374 22.5256 135.839 22.0105 134.676 22.0105C133.958 22.0105 133.504 22.1644 133.131 22.6794L133.468 22.9687C133.749 22.5707 134.058 22.4177 134.676 22.4177C135.575 22.4177 135.911 22.7881 135.911 23.4837V23.972H134.494C133.54 23.972 132.968 24.4327 132.968 25.2279C132.968 25.5531 133.077 25.8692 133.286 26.0774C133.568 26.3667 133.922 26.4745 134.576 26.4745C135.193 26.4745 135.539 26.3575 135.911 25.9871V26.4202H136.374ZM129.146 24.2429C129.146 25.1468 128.983 26.0682 127.911 26.0682C126.838 26.0682 126.675 25.1468 126.675 24.2429C126.675 23.3391 126.838 22.4177 127.911 22.4177C128.983 22.4177 129.146 23.3391 129.146 24.2429ZM129.609 26.4202V19.9871H129.146V22.6259C128.756 22.1192 128.346 22.0105 127.847 22.0105C127.384 22.0105 127.002 22.1644 126.775 22.3901C126.33 22.8332 126.212 23.5556 126.212 24.2429C126.212 24.9294 126.33 25.6526 126.775 26.0949C127.002 26.3207 127.384 26.4745 127.847 26.4745C128.346 26.4745 128.756 26.3667 129.146 25.86V26.4202H129.609ZM122.308 24.9026C122.308 25.2998 122.226 25.5799 122.063 25.7337C121.745 26.0322 121.372 26.0682 120.973 26.0682C120.174 26.0682 119.828 25.7973 119.828 25.2187C119.828 24.6317 120.201 24.3424 120.945 24.3424H122.308V24.9026ZM122.771 26.4202V23.4386C122.771 22.5256 122.236 22.0105 121.073 22.0105C120.355 22.0105 119.9 22.1644 119.528 22.6794L119.864 22.9687C120.146 22.5707 120.455 22.4177 121.073 22.4177C121.972 22.4177 122.308 22.7881 122.308 23.4837V23.972H120.891C119.937 23.972 119.365 24.4327 119.365 25.2279C119.365 25.5531 119.474 25.8692 119.683 26.0774C119.964 26.3667 120.319 26.4745 120.973 26.4745C121.591 26.4745 121.935 26.3575 122.308 25.9871V26.4202H122.771ZM116.397 26.4202V26.0138H113.754L116.397 22.4988V22.0649H113.417V22.472H115.906L113.272 25.9871V26.4202H116.397ZM109.986 19.9871H109.414V20.5565H109.986V19.9871ZM109.932 22.0649H109.468V26.4202H109.932V22.0649ZM106.327 26.4202V26.0138H106.01C105.492 26.0138 105.337 25.7789 105.337 25.2822V19.9871H104.874V25.2914C104.874 25.9779 105.21 26.4202 105.928 26.4202H106.327ZM100.734 24.9026C100.734 25.2998 100.653 25.5799 100.489 25.7337C100.171 26.0322 99.7989 26.0682 99.3988 26.0682C98.5994 26.0682 98.2548 25.7973 98.2548 25.2187C98.2548 24.6317 98.6271 24.3424 99.3719 24.3424H100.734V24.9026ZM101.198 26.4202V23.4386C101.198 22.5256 100.662 22.0105 99.4988 22.0105C98.781 22.0105 98.3271 22.1644 97.9547 22.6794L98.2909 22.9687C98.5725 22.5707 98.881 22.4177 99.4988 22.4177C100.398 22.4177 100.734 22.7881 100.734 23.4837V23.972H99.3172C98.3632 23.972 97.7908 24.4327 97.7908 25.2279C97.7908 25.5531 97.9001 25.8692 98.1094 26.0774C98.3909 26.3667 98.7448 26.4745 99.3988 26.4745C100.017 26.4745 100.362 26.3575 100.734 25.9871V26.4202H101.198ZM94.4866 26.4202V23.6376C94.4866 23.1225 94.3328 22.7162 94.0327 22.4261C93.7419 22.1468 93.3519 22.0105 92.8703 22.0105C92.334 22.0105 91.907 22.2003 91.58 22.5807V22.0649H91.1169V26.4202H91.58V23.7187C91.58 22.8876 92.0255 22.4177 92.8156 22.4177C93.6057 22.4177 94.0235 22.8784 94.0235 23.7187V26.4202H94.4866ZM87.1772 24.2429C87.1772 24.7488 87.1495 25.3357 86.7864 25.6978C86.541 25.9419 86.2325 26.0682 85.8778 26.0682C85.5239 26.0682 85.2146 25.9419 84.97 25.6978C84.606 25.3357 84.5791 24.7488 84.5791 24.2429C84.5791 23.7371 84.606 23.1493 84.97 22.7881C85.2146 22.544 85.5239 22.4177 85.8778 22.4177C86.2325 22.4177 86.541 22.544 86.7864 22.7881C87.1495 23.1493 87.1772 23.7371 87.1772 24.2429ZM87.6404 24.2429C87.6404 23.6192 87.5589 22.9503 87.0949 22.4904C86.7771 22.1736 86.3686 22.0105 85.8778 22.0105C85.3877 22.0105 84.9784 22.1736 84.6607 22.4904C84.1975 22.9503 84.1151 23.6192 84.1151 24.2429C84.1151 24.8667 84.1975 25.5347 84.6607 25.9954C84.9784 26.3123 85.3877 26.4745 85.8778 26.4745C86.3686 26.4745 86.7771 26.3123 87.0949 25.9954C87.5589 25.5347 87.6404 24.8667 87.6404 24.2429ZM81.011 25.1827C81.011 24.3332 80.4571 24.1167 79.73 24.0439L79.0223 23.9812C78.4045 23.9177 78.1321 23.7095 78.1321 23.2488C78.1321 22.707 78.5222 22.4085 79.2492 22.4085C79.73 22.4085 80.1394 22.5348 80.4756 22.7789L80.7841 22.472C80.3932 22.1828 79.8578 22.0105 79.2492 22.0105C78.2952 22.0105 77.6774 22.4904 77.6774 23.2488C77.6774 23.9361 78.1137 24.3148 78.9945 24.3876L79.7216 24.4503C80.3024 24.5046 80.5571 24.722 80.5571 25.1827C80.5571 25.7697 80.1032 26.0682 79.24 26.0682C78.6222 26.0682 78.1406 25.8876 77.8043 25.5347L77.4866 25.8508C77.9321 26.2755 78.4953 26.4745 79.2585 26.4745C80.3394 26.4745 81.011 25.9779 81.011 25.1827ZM74.7826 22.7613L75.118 22.4261C74.8002 22.11 74.4918 22.0105 74.0648 22.0105C73.547 22.0105 73.0385 22.2371 72.7838 22.6434V22.0649H72.3206V26.4202H72.7838V23.7371C72.7838 23.0414 73.2015 22.4177 73.9555 22.4177C74.3186 22.4177 74.5186 22.4988 74.7826 22.7613ZM68.3894 23.972H65.8098C65.8367 23.5556 65.8459 23.4118 65.9644 23.1493C66.1729 22.6978 66.5906 22.4177 67.0992 22.4177C67.6085 22.4177 68.0448 22.6886 68.2347 23.1493C68.3533 23.4118 68.3625 23.5556 68.3894 23.972ZM68.8525 24.3424V24.1342C68.8525 22.7973 68.1986 22.0105 67.0992 22.0105C66.0006 22.0105 65.3458 22.8332 65.3458 24.2429C65.3458 25.6978 66.0006 26.4745 67.2084 26.4745C67.9355 26.4745 68.344 26.2488 68.7887 25.8065L68.444 25.5347C68.0717 25.906 67.754 26.059 67.2353 26.059C66.3006 26.059 65.8098 25.4536 65.8098 24.3424H68.8525ZM61.6608 24.2429C61.6608 25.1468 61.4969 26.0682 60.4252 26.0682C59.3535 26.0682 59.1896 25.1468 59.1896 24.2429C59.1896 23.3391 59.3535 22.4177 60.4252 22.4177C61.4969 22.4177 61.6608 23.3391 61.6608 24.2429ZM62.124 24.2429C62.124 23.5556 62.0055 22.8332 61.5608 22.3901C61.3339 22.1644 60.9523 22.0105 60.4883 22.0105C59.989 22.0105 59.5805 22.1192 59.1896 22.6259V22.0649H58.7265V28.4987H59.1896V25.86C59.5805 26.3667 59.989 26.4745 60.4883 26.4745C60.9523 26.4745 61.3339 26.3207 61.5608 26.0949C62.0055 25.6526 62.124 24.9294 62.124 24.2429ZM49.2292 25.1827C49.2292 24.3332 48.6753 24.1167 47.9482 24.0439L47.2405 23.9812C46.6227 23.9177 46.3503 23.7095 46.3503 23.2488C46.3503 22.707 46.7403 22.4085 47.4674 22.4085C47.9482 22.4085 48.3576 22.5348 48.6938 22.7789L49.0022 22.472C48.6114 22.1828 48.076 22.0105 47.4674 22.0105C46.5134 22.0105 45.8956 22.4904 45.8956 23.2488C45.8956 23.9361 46.3318 24.3148 47.2127 24.3876L47.9398 24.4503C48.5206 24.5046 48.7753 24.722 48.7753 25.1827C48.7753 25.7697 48.3214 26.0682 47.4582 26.0682C46.8404 26.0682 46.3587 25.8876 46.0225 25.5347L45.7048 25.8508C46.1503 26.2755 46.7134 26.4745 47.4758 26.4745C48.5576 26.4745 49.2292 25.9779 49.2292 25.1827ZM41.9736 24.9026C41.9736 25.2998 41.8921 25.5799 41.7282 25.7337C41.4105 26.0322 41.0381 26.0682 40.638 26.0682C39.8386 26.0682 39.494 25.7973 39.494 25.2187C39.494 24.6317 39.8664 24.3424 40.6111 24.3424H41.9736V24.9026ZM42.4368 26.4202V23.4386C42.4368 22.5256 41.9013 22.0105 40.7389 22.0105C40.021 22.0105 39.5663 22.1644 39.1939 22.6794L39.5302 22.9687C39.8117 22.5707 40.1211 22.4177 40.7389 22.4177C41.6374 22.4177 41.9736 22.7881 41.9736 23.4837V23.972H40.5573C39.6033 23.972 39.0309 24.4327 39.0309 25.2279C39.0309 25.5531 39.1393 25.8692 39.3486 26.0774C39.6302 26.3667 39.9841 26.4745 40.638 26.4745C41.2566 26.4745 41.6013 26.3575 41.9736 25.9871V26.4202H42.4368ZM35.2089 24.2429C35.2089 25.1468 35.045 26.0682 33.9733 26.0682C32.9016 26.0682 32.7377 25.1468 32.7377 24.2429C32.7377 23.3391 32.9016 22.4177 33.9733 22.4177C35.045 22.4177 35.2089 23.3391 35.2089 24.2429ZM35.6721 26.6643V22.0649H35.2089V22.6259C34.8181 22.1192 34.4096 22.0105 33.9094 22.0105C33.4463 22.0105 33.0647 22.1644 32.8377 22.3901C32.3923 22.8332 32.2746 23.5556 32.2746 24.2429C32.2746 24.9294 32.3923 25.6526 32.8377 26.0949C33.0647 26.3207 33.4463 26.4745 33.9094 26.4745C34.4096 26.4745 34.8181 26.3667 35.2089 25.86V26.6376C35.2089 27.5046 34.8004 28.1467 33.8825 28.1467C33.3286 28.1467 33.0924 27.9837 32.747 27.6676L32.4376 27.9745C32.8924 28.3808 33.2286 28.5531 33.8825 28.5531C35.0181 28.5531 35.6721 27.7579 35.6721 26.6643ZM28.598 23.972H26.0184C26.0453 23.5556 26.0546 23.4118 26.1722 23.1493C26.3815 22.6978 26.7993 22.4177 27.3078 22.4177C27.8172 22.4177 28.2526 22.6886 28.4434 23.1493C28.5619 23.4118 28.5703 23.5556 28.598 23.972ZM29.0612 24.3424V24.1342C29.0612 22.7973 28.4072 22.0105 27.3078 22.0105C26.2092 22.0105 25.5544 22.8332 25.5544 24.2429C25.5544 25.6978 26.2092 26.4745 27.4171 26.4745C28.1441 26.4745 28.5526 26.2488 28.9973 25.8065L28.6527 25.5347C28.2803 25.906 27.9626 26.059 27.444 26.059C26.5093 26.059 26.0184 25.4536 26.0184 24.3424H29.0612ZM21.6148 24.2429C21.6148 25.1468 21.4509 26.0682 20.3792 26.0682C19.3075 26.0682 19.1436 25.1468 19.1436 24.2429C19.1436 23.3391 19.3075 22.4177 20.3792 22.4177C21.4509 22.4177 21.6148 23.3391 21.6148 24.2429ZM22.0779 26.4202V19.9871H21.6148V22.6259C21.2239 22.1192 20.8154 22.0105 20.3162 22.0105C19.8522 22.0105 19.4706 22.1644 19.2436 22.3901C18.799 22.8332 18.6805 23.5556 18.6805 24.2429C18.6805 24.9294 18.799 25.6526 19.2436 26.0949C19.4706 26.3207 19.8522 26.4745 20.3162 26.4745C20.8154 26.4745 21.2239 26.3667 21.6148 25.86V26.4202H22.0779ZM14.777 24.9026C14.777 25.2998 14.6954 25.5799 14.5315 25.7337C14.2138 26.0322 13.8414 26.0682 13.4413 26.0682C12.642 26.0682 12.2974 25.7973 12.2974 25.2187C12.2974 24.6317 12.6697 24.3424 13.4144 24.3424H14.777V24.9026ZM15.2401 26.4202V23.4386C15.2401 22.5256 14.7047 22.0105 13.5414 22.0105C12.8235 22.0105 12.3697 22.1644 11.9973 22.6794L12.3335 22.9687C12.6151 22.5707 12.9236 22.4177 13.5414 22.4177C14.4407 22.4177 14.777 22.7881 14.777 23.4837V23.972H13.3598C12.4066 23.972 11.8342 24.4327 11.8342 25.2279C11.8342 25.5531 11.9427 25.8692 12.1519 26.0774C12.4335 26.3667 12.7874 26.4745 13.4413 26.4745C14.0591 26.4745 14.4046 26.3575 14.777 25.9871V26.4202H15.2401Z" fill="#78716C"/>
</svg>
