<svg width="155" height="27" viewBox="0 0 155 27" fill="none" xmlns="http://www.w3.org/2000/svg">
<path d="M150.388 6.27431C147.601 6.79182 145.726 8.13018 144.565 10.3965C143.85 11.8062 143.743 13.8227 144.297 15.2681C145.083 17.3025 146.869 19.0156 148.87 19.658C151.067 20.3539 154.854 19.8543 154.997 18.8371C155.033 18.623 154.765 17.6058 154.407 16.5708C153.764 14.7685 153.729 14.7328 153.353 14.9648C152.103 15.7856 150.692 15.6964 149.799 14.7685C148.727 13.6621 148.798 12.3773 149.959 11.3423C150.71 10.682 151.817 10.6106 152.889 11.1638C153.282 11.3601 153.621 11.5207 153.657 11.5207C153.818 11.5207 155.05 7.59484 154.997 7.30932C154.89 6.75613 151.674 6.04233 150.388 6.27431Z" fill="#78716C"/>
<path d="M64.5556 6.61335C64.1626 6.75611 63.6981 6.88103 63.5374 6.88103C63.0193 6.88103 61.0544 8.61198 60.447 9.59345C59.6432 10.8604 59.411 11.9311 59.5003 13.7156C59.5717 15.0004 59.6611 15.3395 60.2505 16.428C60.715 17.2846 61.2152 17.8913 61.8225 18.3731C64.5734 20.5145 69.3072 20.4967 71.8437 18.3374C72.9513 17.3917 73.2907 16.9098 73.7551 15.5358C74.5589 13.216 74.023 10.218 72.5225 8.68336C71.3614 7.48775 70.7005 7.07732 69.325 6.68473C67.896 6.2743 65.5916 6.23861 64.5556 6.61335ZM67.9496 11.253C68.5569 11.5921 68.7534 11.8419 68.9142 12.4665C69.6108 14.9469 67.0743 16.6243 65.2344 14.9112C64.0733 13.8227 64.3412 11.8776 65.7703 11.1816C66.7349 10.6998 67.0385 10.7177 67.9496 11.253Z" fill="#78716C"/>
<path d="M90.8144 6.43491C90.7251 6.4706 90.1714 6.63121 89.6176 6.79181C87.1168 7.48776 85.2233 9.95035 85.0446 12.6985C84.9375 14.358 85.2411 15.5536 86.0628 16.8206C87.4026 18.8906 89.6176 19.9792 92.4221 19.9613C95.7447 19.9613 98.4599 18.2839 99.2637 15.7678C99.7818 14.1617 99.8711 13.2517 99.6567 12.0382C99.3709 10.4679 98.835 9.37932 97.9061 8.46923C96.7629 7.36285 96.3342 7.09517 94.9051 6.70258C93.8155 6.38138 91.3861 6.23862 90.8144 6.43491ZM93.4939 11.1816C94.137 11.5029 94.2978 11.6992 94.4764 12.3416C94.7443 13.2695 94.6193 14.2867 94.1727 14.7685C92.8866 16.1961 90.6715 15.6607 90.1714 13.787C90.0106 13.1981 90.0463 12.984 90.4036 12.2702C90.6715 11.6992 91.0288 11.3244 91.4396 11.1281C92.2435 10.7177 92.5829 10.7177 93.4939 11.1816Z" fill="#78716C"/>
<path d="M43.87 6.77399C43.8164 6.8989 43.6378 7.9339 43.477 9.04029C43.3163 10.1645 42.8697 12.9126 42.4767 15.1789C42.0837 17.4274 41.78 19.3903 41.78 19.4974C41.78 19.6758 42.3874 19.7294 44.1916 19.7294C46.3709 19.7294 46.6031 19.6937 46.6209 19.4082C46.6567 18.3375 47.264 13.6086 47.3355 13.7513C47.3891 13.8406 47.5677 14.3759 47.7285 14.9113C47.8892 15.4466 48.2822 16.7314 48.6038 17.7664L49.1932 19.6401L50.7295 19.6937C52.2657 19.7472 52.2657 19.7472 52.4622 19.2476C52.5872 18.9799 52.748 18.391 52.8552 17.9449C52.9445 17.4988 53.3375 16.2496 53.7305 15.1789L54.445 13.216V14.1975C54.4629 14.7328 54.5522 16.1961 54.6594 17.4452L54.8737 19.7294H57.3746C59.3753 19.7294 59.8397 19.6758 59.7682 19.4974C59.7147 19.3546 59.5896 18.623 59.4646 17.8378C59.3574 17.0705 58.9108 14.3402 58.4642 11.7884C58.0355 9.23658 57.6783 7.00597 57.6783 6.82752C57.6783 6.55985 57.446 6.52416 55.1238 6.52416H52.5515L51.9084 8.70123C51.5512 9.91469 51.1582 11.3601 51.0153 11.9312L50.7831 12.9483L50.2114 10.9497C49.8899 9.84331 49.6398 8.8083 49.6398 8.6477C49.6398 8.50494 49.5148 7.95175 49.3719 7.45209L49.0861 6.52416H46.5316C44.5131 6.52416 43.9415 6.57769 43.87 6.77399Z" fill="#78716C"/>
<path d="M74.291 8.77261V11.0211L75.6307 10.9497L76.9705 10.8962V15.3038V19.7294H79.5606H82.1508V15.3038V10.8962L83.4905 10.9497L84.8303 11.0211V8.77261V6.52416H79.5606H74.291V8.77261Z" fill="#78716C"/>
<path d="M100.729 13.1267V19.7293H103.14H105.534L105.587 18.0162L105.641 16.321L106.516 18.0162L107.409 19.7293H112.554C116.555 19.7293 117.699 19.6758 117.699 19.4974C117.699 19.3903 117.824 18.2839 117.966 17.0526C118.109 15.8213 118.234 14.4116 118.252 13.9298L118.27 13.0375L118.413 13.8405C118.502 14.2867 118.842 15.4644 119.199 16.4816C119.556 17.4809 119.914 18.6051 119.985 18.9799L120.128 19.6401L121.664 19.6937L123.183 19.7472L123.915 17.6415C124.308 16.4816 124.772 15.0183 124.951 14.3759L125.29 13.216L125.487 15.1789C125.612 16.2496 125.755 17.7307 125.826 18.4267L125.951 19.7293H130.828H135.722L135.847 18.9263L135.955 18.1233H137.616H139.259L139.492 18.9263L139.724 19.7293H142.368C143.832 19.7293 145.029 19.7115 145.029 19.6758C145.029 19.6044 143.404 14.9826 142.296 11.8776C141.742 10.3608 141.171 8.70121 140.992 8.2194C140.331 6.29215 140.76 6.50629 137.58 6.55982L134.758 6.61336L134.508 7.41638C134.365 7.8625 133.9 9.16518 133.472 10.3429C133.061 11.5029 132.704 12.5735 132.704 12.6985C132.704 12.8412 132.346 13.8584 131.918 14.9648C131.489 16.0533 131.096 17.2668 131.024 17.6237C130.953 17.9984 130.846 18.3374 130.756 18.3731C130.631 18.4624 130.185 15.9641 129.131 9.39716C128.917 8.07664 128.702 6.89888 128.649 6.75612C128.577 6.57767 127.988 6.52413 126.005 6.52413H123.468L123.004 8.25509C122.754 9.21871 122.361 10.682 122.111 11.5207L121.664 13.0375L121.557 12.3237C121.432 11.5921 120.967 9.82544 120.36 7.71974L120.003 6.50629L117.466 6.55982L114.93 6.61336L114.269 10.45C113.912 12.5557 113.483 15.2503 113.322 16.428C113.143 17.6058 112.947 18.6765 112.893 18.8014C112.822 18.9442 112.232 18.2125 111.357 16.8742C110.589 15.6964 109.874 14.7328 109.767 14.7328C109.66 14.7328 109.928 14.5365 110.375 14.3045C111.643 13.6264 111.982 12.9661 111.982 11.1995C111.982 10.3608 111.875 9.46854 111.732 9.14733C111.446 8.46923 110.017 7.11302 109.446 6.97026C109.214 6.93457 108.678 6.80965 108.231 6.70258C107.784 6.61336 105.927 6.52413 104.087 6.52413H100.729V13.1267ZM106.766 10.5571C107.552 11.0924 107.016 12.2345 105.962 12.2345C105.587 12.2345 105.552 12.1631 105.552 11.253C105.552 10.3429 105.587 10.2716 105.962 10.2716C106.177 10.2716 106.552 10.3965 106.766 10.5571ZM137.991 13.1267C138.134 13.6621 138.295 14.251 138.348 14.4116C138.438 14.6792 138.33 14.7328 137.723 14.7328C137.312 14.7328 136.991 14.6792 136.991 14.59C136.991 14.5186 137.116 13.9833 137.259 13.3944C137.402 12.8055 137.527 12.0739 137.544 11.7884C137.58 11.3066 137.58 11.2887 137.652 11.6992C137.687 11.949 137.848 12.5914 137.991 13.1267Z" fill="#78716C"/>
<path d="M16.8807 0.0892308C16.7914 0.124921 16.3448 0.1963 15.8982 0.26768C14.5049 0.446128 14.5228 0.374749 15.5231 3.31915C16.8807 7.29856 16.8092 7.13796 17.3451 7.13796H17.8096L17.9346 4.94304C17.9882 3.74743 18.0954 2.14139 18.149 1.37406L18.274 6.39717e-06L17.6667 0.0178513C17.3273 0.0178513 16.9879 0.053541 16.8807 0.0892308Z" fill="#78716C"/>
<path d="M19.7745 0.303349C19.7209 0.392573 19.6316 1.69525 19.578 3.21207C19.5066 4.72888 19.3994 6.2457 19.3458 6.54906C19.2744 7.06656 19.3101 7.13794 19.6316 7.13794C19.8281 7.13794 20.0068 7.12009 20.0068 7.0844C20.0068 7.06656 20.2568 6.44199 20.5605 5.71035C21.0428 4.53259 22.329 0.874385 22.329 0.660247C22.329 0.535332 20.8106 0.178435 20.2926 0.178435C20.0425 0.178435 19.8103 0.231969 19.7745 0.303349Z" fill="#78716C"/>
<path d="M11.8969 1.71309C11.4146 1.96291 10.7358 2.37335 10.3964 2.64102C9.53893 3.33697 7.52039 5.37129 7.27031 5.81741C7.14527 6.03155 6.75228 6.7275 6.39501 7.35207C6.01989 7.99448 5.71621 8.61905 5.71621 8.76181C5.71621 8.90457 5.55544 9.52914 5.35895 10.1359C5.16245 10.7604 5.00169 11.5456 5.00169 11.8847V12.4914H8.46714H11.9326L12.0398 11.8847C12.2184 10.9924 13.3974 9.26147 14.3977 8.4763C14.88 8.08371 15.2909 7.7625 15.3087 7.7625C15.4338 7.72681 14.8979 5.97801 14.362 4.58611C14.0047 3.67602 13.6117 2.58748 13.5046 2.14136C13.3974 1.6774 13.2009 1.3205 13.0401 1.30265C12.8972 1.26696 12.3792 1.46326 11.8969 1.71309Z" fill="#78716C"/>
<path d="M24.7941 5.54974L22.5076 7.88742L23.3293 8.86889C24.3475 10.118 24.6869 10.7783 24.8119 11.6884L24.9191 12.4022L30.7782 12.4557C34.6724 12.4736 36.6374 12.4379 36.5838 12.313C36.4587 11.9204 27.5986 3.21206 27.3307 3.22991C27.1878 3.22991 26.0445 4.28276 24.7941 5.54974Z" fill="#78716C"/>
<path d="M24.9549 13.687C24.8834 13.7405 24.8298 14.0082 24.8298 14.2759C24.8298 14.9897 23.5615 16.8277 22.5255 17.6129C21.9717 18.0412 21.6323 18.4337 21.6323 18.6657C21.6144 18.8799 21.9002 19.8078 22.2575 20.7179C22.8291 22.2347 23.5615 24.501 23.5794 24.8401C23.5973 25.5003 26.7233 23.5374 28.3131 21.8778C29.8672 20.2539 30.9747 18.3088 31.5285 16.1674C31.7786 15.2038 31.9751 14.2224 31.9751 13.9904V13.5621H28.5275C26.6161 13.5621 25.0084 13.6156 24.9549 13.687Z" fill="#78716C"/>
<path d="M0 13.8298C0 13.8654 2.10785 16.0068 4.66229 18.5765L9.34244 23.234L11.7182 20.8428C13.0223 19.5401 14.1119 18.3802 14.1119 18.291C14.1119 18.1839 13.8082 17.7556 13.4331 17.3452C12.5935 16.3816 12.0219 15.293 11.879 14.4008L11.7718 13.7405H5.89485C2.64375 13.7405 0 13.7762 0 13.8298Z" fill="#78716C"/>
<path d="M16.7914 19.1654C16.7914 19.3081 16.5056 20.1468 16.1483 21.0034C15.0765 23.6266 14.5764 25.3576 14.8622 25.536C15.1301 25.7145 16.97 26.107 17.0593 26.0178C17.1129 25.9643 17.5059 20.2004 17.5059 19.3795C17.5059 19.0405 17.4166 18.9156 17.1486 18.9156C16.9522 18.9156 16.7914 19.0226 16.7914 19.1654Z" fill="#78716C"/>
<path d="M19.3101 19.0762C19.06 19.2368 18.7921 22.0206 18.7742 24.7509L18.7563 26.0535H19.4709C20.2747 26.0535 21.7573 25.768 22.1325 25.5182C22.3111 25.4111 22.3468 25.304 22.2218 25.1256C22.061 24.9115 21.8645 24.3404 21.5073 23.0199C21.1857 21.8243 19.9532 18.9156 19.7745 18.9156C19.6495 18.9156 19.453 18.987 19.3101 19.0762Z" fill="#78716C"/>
</svg>
