<svg width="155" height="29" viewBox="0 0 155 29" fill="none" xmlns="http://www.w3.org/2000/svg">
<path d="M0 0L22.0311 14.4779L0 28.8924V0Z" fill="#78716C"/>
<path d="M66.4895 18.5109C65.9945 18.826 65.1235 19.1166 63.8766 19.3818C63.2709 19.4993 62.813 19.604 62.4988 19.6902C61.7199 19.9064 61.1767 20.1844 60.8557 20.5181C60.5338 20.8585 60.3733 21.3088 60.3733 21.8773C60.3733 22.5751 60.5895 23.1437 61.028 23.5703C61.4605 23.996 62.035 24.2123 62.7522 24.2123C63.8513 24.2123 64.7467 23.898 65.4454 23.2611C66.1432 22.6309 66.4895 21.7971 66.4895 20.7715V18.5109ZM73.3196 26.859V8.08962H79.5152V11.5363C80.2012 10.1838 81.0595 9.19459 82.0851 8.57705L82.1932 8.51285L82.33 8.43682L82.4627 8.36755L82.4821 8.35656L82.6283 8.28645L82.7043 8.25181L82.7305 8.24083L82.869 8.18085L82.9594 8.14452L82.9755 8.13777L82.9974 8.12932L83.0321 8.1158L83.0498 8.10904L83.0971 8.09215L83.1073 8.08792L83.185 8.06005L83.2458 8.03977L83.3742 7.99669L83.3843 7.99331L83.4232 7.98148L83.5702 7.93755L83.7206 7.89616L83.7467 7.8894C83.849 7.86236 83.9529 7.83702 84.0593 7.81506L84.137 7.79816L84.1446 7.79732C84.2401 7.77705 84.3373 7.7593 84.4361 7.74325L84.4851 7.7348L84.5848 7.71875C84.8847 7.67398 85.1981 7.64272 85.5225 7.62414L85.8021 7.61147H85.8063L85.8747 7.60978V2.52925H92.3813V8.08962H95.6793V14.1889H92.3813V20.5062C92.3813 21.8089 92.5494 22.6731 92.8873 23.0947C93.2235 23.5128 93.8436 23.724 94.7467 23.7308H94.7999C94.9764 23.7299 95.1108 23.724 95.2155 23.7181C95.3329 23.7122 95.4445 23.7054 95.5492 23.6936V23.6995L95.6058 23.6936V27.8077C94.9325 27.9378 94.2711 28.0366 93.6223 28.1101C93.0047 28.1752 92.4083 28.2115 91.8355 28.2149L91.7511 28.2157H91.6945C89.4583 28.2157 87.9259 27.6725 87.1039 26.5785C86.2828 25.4845 85.8747 23.1622 85.8747 19.604V14.3013C85.6281 14.2692 85.3839 14.243 85.1415 14.2261C84.8695 14.2075 84.6101 14.2016 84.3685 14.2016C83.3801 14.2016 82.5649 14.3503 81.9161 14.646C81.2682 14.9425 80.7478 15.3902 80.3659 16.012C80.1184 16.415 79.9545 17.0131 79.8531 17.7784L79.8261 18.004C79.7619 18.7643 79.7315 19.8169 79.7315 21.1669V27.7705H67.0141C66.9406 27.4554 66.8781 27.1344 66.8232 26.7948C66.7674 26.4611 66.7176 26.1088 66.6686 25.7507C65.7664 26.6529 64.8025 27.3194 63.7769 27.7519C62.7581 28.1845 61.6396 28.4007 60.4164 28.4007C58.5198 28.4007 57.0186 27.882 55.9137 26.8379L55.8478 26.7745V27.8077C55.1745 27.9378 54.513 28.0366 53.8642 28.1101C53.2154 28.1786 52.592 28.2157 51.993 28.2157C49.756 28.2157 48.2245 27.6725 47.4025 26.5785C46.9708 26.0041 46.654 25.0917 46.4504 23.8389C45.9435 24.7868 45.2153 25.6054 44.2658 26.2947C42.2333 27.7705 39.3855 28.5122 35.7166 28.5122C29.1611 28.5122 25.2109 25.1289 24.7817 18.3529H31.3423C31.4462 21.5555 32.7075 23.4773 36.3958 23.5078C37.7796 23.5196 38.8541 23.2797 39.6144 22.8167C40.3747 22.3597 40.7574 21.7101 40.7574 20.8771C40.7574 20.4505 40.6645 20.0737 40.4854 19.74C40.3063 19.4063 40.0529 19.1529 39.7251 18.9856C39.2309 18.7204 38.0203 18.3005 36.0866 17.7387C34.1597 17.1702 32.5284 16.6202 31.2004 16.0889C29.2853 15.3294 27.8272 14.3224 26.8329 13.0747C25.8385 11.8269 25.3384 10.3688 25.3384 8.7063C25.3384 6.16182 26.2956 4.13518 28.2039 2.63485C30.1131 1.13367 32.7075 0.379272 35.9759 0.379272C39.1819 0.379272 41.7264 1.17168 43.6052 2.75143C44.831 3.78122 45.7087 5.33562 46.1733 7.03786V2.52925H52.6232V8.08962H56.0488V10.7946C56.4628 10.1872 56.9713 9.66851 57.5745 9.23767C59.101 8.15043 61.2687 7.60724 64.0802 7.60724C65.828 7.60724 67.3047 7.81759 68.5026 8.24337C69.7081 8.66322 70.6467 9.3061 71.32 10.1644C71.7897 10.7769 72.1234 11.511 72.3143 12.3642C72.5061 13.2166 72.6049 14.5818 72.6049 16.4656V23.9217C72.6049 24.8113 72.6852 25.5158 72.8457 26.0286C72.9614 26.3994 73.1194 26.6757 73.3196 26.859ZM56.0488 14.205H52.6232V20.5062C52.6232 21.8097 52.7897 22.674 53.1293 23.0947C53.3751 23.403 53.7772 23.599 54.3305 23.6826C54.2824 23.3422 54.2579 22.9857 54.2579 22.6123C54.2579 20.9878 54.6896 19.6657 55.5546 18.646C56.4138 17.6272 57.7232 16.9108 59.4719 16.5028C60.4417 16.2865 61.665 16.0525 63.1535 15.7983C65.3769 15.4342 66.4895 14.9028 66.4895 14.205V13.7294C66.4895 13.1608 66.2732 12.7224 65.8466 12.4259C65.4141 12.1294 64.778 11.9807 63.9315 11.9807C63.0175 11.9807 62.2884 12.1665 61.7511 12.5433C61.2138 12.9201 60.8802 13.476 60.7441 14.205H56.0488ZM46.1733 9.8476H40.1399C39.8037 6.90184 38.5196 5.53161 35.5367 5.53161C34.4376 5.53161 33.548 5.76054 32.8562 6.21081C32.1702 6.66193 31.8247 7.23638 31.8247 7.93417C31.8247 9.11433 33.4619 10.2328 36.7354 11.2829C37.3284 11.4738 37.7796 11.6166 38.0947 11.7154L38.3667 11.8016C41.7391 12.9015 43.8519 13.7911 44.6983 14.4643C45.2863 14.9459 45.7771 15.4891 46.1733 16.0897V9.8476Z" fill="#78716C"/>
<path d="M118.002 27.8765V8.10345H133.922V12.1457H123.363V16.0115H131.074V19.9718H123.363V23.8342H134.262V27.8765H118.002Z" fill="#78716C"/>
<path d="M140.71 22.1722C141.578 23.245 142.823 23.7806 144.445 23.7806C146.072 23.7806 147.331 23.2442 148.205 22.1722C149.985 19.9901 150.096 15.9841 148.318 13.8004C147.443 12.725 146.186 12.1826 144.558 12.1826C142.936 12.1826 141.691 12.7182 140.824 13.7919C139.061 15.9723 138.949 19.9918 140.71 22.1722ZM133.96 18.004C133.96 14.7913 134.902 12.2476 136.781 10.3815C138.666 8.51624 141.221 7.58191 144.445 7.58191C147.68 7.58191 150.245 8.51624 152.149 10.3866C154.048 12.2612 155 14.8006 155 18.004C155 21.2083 154.048 23.7477 152.149 25.6223C150.245 27.4918 147.68 28.4269 144.445 28.4269C141.221 28.4269 138.666 27.4918 136.781 25.6265C134.902 23.7612 133.96 21.2176 133.96 18.004Z" fill="#78716C"/>
<path d="M103.104 22.1722C103.971 23.245 105.217 23.7806 106.839 23.7806C108.466 23.7806 109.725 23.2442 110.598 22.1722C110.9 21.8021 111.153 21.3798 111.359 20.9227H117.09C116.672 22.7914 115.822 24.3585 114.542 25.6223C112.638 27.4918 110.074 28.4269 106.839 28.4269C103.614 28.4269 101.06 27.4918 99.175 25.6265C97.2954 23.7612 96.3535 21.2176 96.3535 18.004C96.3535 14.7913 97.2954 12.2476 99.175 10.3815C101.06 8.51624 103.614 7.58191 106.839 7.58191C110.074 7.58191 112.638 8.51624 114.542 10.3866C115.735 11.5642 116.555 13.0054 116.999 14.7077H111.294C111.13 14.3807 110.935 14.0766 110.711 13.8004C109.836 12.725 108.579 12.1826 106.952 12.1826C105.33 12.1826 104.085 12.7182 103.217 13.7919C101.455 15.9723 101.343 19.9918 103.104 22.1722Z" fill="#78716C"/>
</svg>
