<svg width="155" height="82" viewBox="0 0 155 82" fill="none" xmlns="http://www.w3.org/2000/svg">
<path fill-rule="evenodd" clip-rule="evenodd" d="M133.809 0.695034C128.418 2.15317 121.678 5.68365 115.725 10.1677C111.295 13.5046 104.325 20.2788 100.835 24.6398L98.1203 28.0313H91.2906H84.4609L84.5642 46.545L84.6678 65.0588H87.2294H89.7911L89.8975 56.8415L90.0043 48.6241H91.9172C97.1567 48.6241 97.9938 49.4756 101.571 58.4465L104.287 65.2568H107.032C109.481 65.2568 109.75 65.182 109.522 64.5638C109.382 64.1828 107.988 60.7597 106.426 56.9575C104.023 51.1115 103.305 49.7579 101.775 48.1901L99.9654 46.3359L101.381 45.9071C103.365 45.3063 105.722 43.2304 106.582 41.3259C107.983 38.2283 107.362 33.5707 105.24 31.2513C104.211 30.1254 100.8 28.4368 99.5449 28.4312C99.057 28.4289 98.6582 28.2447 98.6582 28.0218C98.6582 27.7988 100.83 25.374 103.484 22.6332C112.236 13.5961 120.732 7.64829 129.066 4.72331C142.406 0.0420019 151.07 4.40571 151.756 16.1508C152.823 34.4095 132.781 62.5948 111.072 73.3653C104.535 76.6082 100.369 77.6905 95.334 77.4525C92.6262 77.3246 91.3324 77.064 89.9881 76.3758C86.9122 74.8008 84.7927 72.2853 83.6238 68.821C83.3775 68.0915 83.3425 68.2733 83.4902 69.51C84.0491 74.1894 87.0706 78.6022 91.0589 80.5628C92.8169 81.427 93.9724 81.6836 96.6558 81.8055C106.85 82.2693 118.33 76.27 130.876 63.923L136.097 58.7835V62.0202V65.2568H138.659H141.221V58.6956V52.1344L143.617 48.4982C146.722 43.7876 150.974 35.1643 152.555 30.3721C157.194 16.3155 155.136 5.1225 147.196 1.21619C145.253 0.260998 144.429 0.105762 140.827 0.0174507C137.7 -0.0589805 135.985 0.106554 133.809 0.695034ZM8.56897 22.0867C5.74764 23.0118 2.86285 25.3776 1.62302 27.7826C1.02006 28.952 0.777291 30.1507 0.770198 31.995C0.751281 36.8232 3.09576 40.0211 9.60111 44.0394C17.0515 48.6419 19.4464 51.1467 19.4433 54.3351C19.4382 60.0298 11.3442 62.2324 3.39882 58.7015C2.18697 58.163 1.14892 57.7689 1.09217 57.8264C1.03542 57.8838 0.863598 59.2112 0.710295 60.7763L0.431274 63.6224L2.7458 64.3404C4.52988 64.8941 6.36952 65.0588 10.7747 65.0588C16.1321 65.0588 16.6282 64.9935 18.715 64.0102C23.424 61.7917 25.8931 58.0113 25.9187 52.9803C25.9467 47.5652 23.7145 44.9269 14.5186 39.5051C12.5679 38.355 10.2841 36.8735 9.44308 36.213C5.89345 33.4246 6.01483 29.1223 9.69924 27.1442C12.0165 25.8999 18.6145 25.8797 21.6679 27.1078L23.6944 27.9224L23.9297 26.4919C24.0593 25.7051 24.1673 24.4905 24.1697 23.7927C24.1736 22.6712 24.0026 22.4712 22.6961 22.0649C21.8835 21.8122 18.9128 21.5366 16.095 21.4522C11.7682 21.3223 10.5982 21.421 8.56897 22.0867ZM25.7504 30.2094V32.3874H30.8736H35.9969V48.8221V65.2568H38.5585H41.1201V48.8336V32.4104L46.3419 32.2999L51.5637 32.1894L51.6827 30.1103L51.8021 28.0313H38.7761H25.7504V30.2094ZM62.6146 28.7243C61.4685 31.7194 50.1844 64.5274 50.1844 64.864C50.1844 65.1396 50.9962 65.2532 52.4232 65.1776L54.6621 65.0588L56.0804 60.5046L57.4988 55.9504L65.3918 55.8435L73.2847 55.7366L74.7484 60.4967L76.2121 65.2568H78.568C80.0829 65.2568 80.9239 65.094 80.9239 64.8006C80.9239 64.5499 78.1309 56.175 74.7169 46.1902L68.5098 28.0356L65.6948 28.0332C63.3763 28.0317 62.8329 28.1536 62.6146 28.7243ZM114.028 46.644V65.2568H116.582H119.136L119.242 56.6435L119.348 48.0301L127.723 47.9232L136.097 47.8162L136.106 48.9132L136.115 50.0102L136.899 49.0201C137.33 48.4756 138.479 46.8329 139.452 45.3697L141.221 42.7096V35.3702V28.0313H138.659H136.097V35.9595V43.8878L127.723 43.7808L119.348 43.6739L119.241 35.8526L119.135 28.0313H116.581H114.028V46.644ZM89.9881 38.3816V44.7721L93.6355 44.58C97.6643 44.3685 99.165 43.803 100.763 41.8942C102.052 40.3549 102.441 38.3055 101.832 36.2629C100.909 33.1672 98.4691 31.9914 92.9663 31.9914H89.9881V38.3816ZM62.4333 41.7944C60.8254 46.5308 59.4318 50.6292 59.3369 50.9012C59.2033 51.2838 60.5976 51.3962 65.4781 51.3962H71.7919L68.777 42.2879C67.1187 37.2782 65.6708 33.1803 65.5592 33.1811C65.4481 33.1815 64.0412 37.0577 62.4333 41.7944Z" fill="#78716C"/>
<path d="M2.71331 70.0788C2.68636 69.8512 2.57704 69.6745 2.38538 69.5487C2.19371 69.4229 1.95861 69.3601 1.6801 69.3601C1.47645 69.3601 1.29826 69.393 1.14552 69.4589C0.994281 69.5248 0.875985 69.6154 0.790633 69.7307C0.706778 69.846 0.66485 69.977 0.66485 70.1237C0.66485 70.2465 0.69405 70.3521 0.752449 70.4404C0.812345 70.5273 0.888713 70.5999 0.981553 70.6583C1.07439 70.7152 1.17172 70.7624 1.27355 70.7998C1.37537 70.8357 1.46896 70.8649 1.55431 70.8874L2.0215 71.0132C2.1413 71.0446 2.27457 71.0881 2.42131 71.1435C2.56956 71.1989 2.71106 71.2745 2.84583 71.3703C2.98209 71.4647 3.0944 71.586 3.18275 71.7342C3.27109 71.8824 3.31527 72.0644 3.31527 72.28C3.31527 72.5286 3.25013 72.7532 3.11986 72.9538C2.99108 73.1545 2.8024 73.314 2.55383 73.4323C2.30676 73.5506 2.00653 73.6097 1.65314 73.6097C1.32371 73.6097 1.03845 73.5565 0.797371 73.4502C0.557786 73.3439 0.369112 73.1957 0.23135 73.0055C0.0950856 72.8153 0.0179689 72.5945 0 72.3429H0.575006C0.58998 72.5166 0.648379 72.6603 0.750203 72.7741C0.853524 72.8865 0.983799 72.9703 1.14103 73.0257C1.29975 73.0796 1.47046 73.1066 1.65314 73.1066C1.86577 73.1066 2.05669 73.0721 2.2259 73.0033C2.39511 72.9329 2.52913 72.8355 2.62796 72.7113C2.72679 72.5855 2.7762 72.4387 2.7762 72.271C2.7762 72.1183 2.73352 71.994 2.64817 71.8982C2.56282 71.8023 2.45051 71.7245 2.31125 71.6646C2.17199 71.6047 2.0215 71.5523 1.85978 71.5073L1.29376 71.3456C0.934384 71.2423 0.649876 71.0948 0.440239 70.9031C0.230601 70.7115 0.125783 70.4606 0.125783 70.1507C0.125783 69.8931 0.195412 69.6685 0.334671 69.4768C0.475428 69.2837 0.664102 69.1339 0.900693 69.0276C1.13878 68.9198 1.40457 68.8659 1.69806 68.8659C1.99455 68.8659 2.2581 68.9191 2.4887 69.0254C2.7193 69.1302 2.90198 69.274 3.03675 69.4566C3.17301 69.6393 3.24489 69.8467 3.25238 70.0788H2.71331Z" fill="#78716C"/>
<path d="M4.23112 73.5288V68.9288H7.00732V69.4229H4.78816V70.9773H6.86357V71.4714H4.78816V73.0347H7.04326V73.5288H4.23112Z" fill="#78716C"/>
<path d="M8.01134 73.5288V68.9288H9.56565C9.92503 68.9288 10.22 68.9902 10.4506 69.113C10.6812 69.2343 10.8519 69.4012 10.9627 69.6139C11.0735 69.8265 11.1289 70.0683 11.1289 70.3394C11.1289 70.6104 11.0735 70.8507 10.9627 71.0604C10.8519 71.27 10.682 71.4347 10.4529 71.5545C10.2238 71.6728 9.93102 71.732 9.57463 71.732H8.31681V71.2288H9.55666C9.80224 71.2288 9.9999 71.1929 10.1496 71.121C10.3009 71.0491 10.4102 70.9473 10.4776 70.8155C10.5465 70.6823 10.5809 70.5235 10.5809 70.3394C10.5809 70.1552 10.5465 69.9942 10.4776 69.8564C10.4087 69.7187 10.2986 69.6124 10.1474 69.5375C9.99615 69.4611 9.79625 69.4229 9.54768 69.4229H8.56837V73.5288H8.01134ZM10.1766 71.4624L11.3086 73.5288H10.6618L9.54768 71.4624H10.1766Z" fill="#78716C"/>
<path d="M12.1408 68.9288L13.5065 72.8011H13.5604L14.926 68.9288H15.51L13.8209 73.5288H13.2459L11.5568 68.9288H12.1408Z" fill="#78716C"/>
<path d="M16.7835 68.9288V73.5288H16.2265V68.9288H16.7835Z" fill="#78716C"/>
<path d="M21.602 70.3663H21.045C21.012 70.2061 20.9544 70.0653 20.872 69.944C20.7912 69.8228 20.6923 69.7209 20.5755 69.6386C20.4602 69.5547 20.3322 69.4918 20.1915 69.4499C20.0507 69.408 19.904 69.387 19.7512 69.387C19.4727 69.387 19.2204 69.4574 18.9943 69.5981C18.7697 69.7389 18.5907 69.9463 18.4575 70.2203C18.3257 70.4943 18.2598 70.8305 18.2598 71.2288C18.2598 71.6271 18.3257 71.9633 18.4575 72.2373C18.5907 72.5114 18.7697 72.7187 18.9943 72.8595C19.2204 73.0003 19.4727 73.0706 19.7512 73.0706C19.904 73.0706 20.0507 73.0497 20.1915 73.0077C20.3322 72.9658 20.4602 72.9037 20.5755 72.8213C20.6923 72.7375 20.7912 72.6349 20.872 72.5136C20.9544 72.3908 21.012 72.2501 21.045 72.0913H21.602C21.5601 72.3264 21.4837 72.5368 21.3729 72.7225C21.2621 72.9082 21.1243 73.0661 20.9596 73.1964C20.7949 73.3252 20.61 73.4233 20.4048 73.4907C20.2012 73.558 19.9833 73.5917 19.7512 73.5917C19.3589 73.5917 19.01 73.4959 18.7045 73.3042C18.3991 73.1126 18.1587 72.84 17.9835 72.4866C17.8083 72.1333 17.7207 71.714 17.7207 71.2288C17.7207 70.7437 17.8083 70.3244 17.9835 69.971C18.1587 69.6176 18.3991 69.3451 18.7045 69.1534C19.01 68.9617 19.3589 68.8659 19.7512 68.8659C19.9833 68.8659 20.2012 68.8996 20.4048 68.967C20.61 69.0344 20.7949 69.1332 20.9596 69.2635C21.1243 69.3922 21.2621 69.5495 21.3729 69.7352C21.4837 69.9193 21.5601 70.1297 21.602 70.3663ZM19.5176 73.5468H19.9579L19.9219 73.7265C20.0387 73.7445 20.1458 73.7931 20.2431 73.8725C20.3405 73.9534 20.3891 74.0814 20.3891 74.2566C20.3891 74.4498 20.309 74.607 20.1488 74.7283C19.9901 74.8511 19.7557 74.9125 19.4458 74.9125L19.4278 74.5621C19.567 74.5621 19.6823 74.5396 19.7737 74.4947C19.8665 74.4512 19.9129 74.3779 19.9129 74.2746C19.9129 74.1712 19.8748 74.1009 19.7984 74.0634C19.722 74.026 19.5985 74.0005 19.4278 73.9871L19.5176 73.5468Z" fill="#78716C"/>
<path d="M26.3834 71.2288C26.3834 71.714 26.2958 72.1333 26.1206 72.4866C25.9455 72.84 25.7051 73.1126 25.3996 73.3042C25.0942 73.4959 24.7453 73.5917 24.353 73.5917C23.9606 73.5917 23.6117 73.4959 23.3063 73.3042C23.0008 73.1126 22.7605 72.84 22.5853 72.4866C22.4101 72.1333 22.3225 71.714 22.3225 71.2288C22.3225 70.7437 22.4101 70.3244 22.5853 69.971C22.7605 69.6176 23.0008 69.3451 23.3063 69.1534C23.6117 68.9617 23.9606 68.8659 24.353 68.8659C24.7453 68.8659 25.0942 68.9617 25.3996 69.1534C25.7051 69.3451 25.9455 69.6176 26.1206 69.971C26.2958 70.3244 26.3834 70.7437 26.3834 71.2288ZM25.8444 71.2288C25.8444 70.8305 25.7777 70.4943 25.6445 70.2203C25.5127 69.9463 25.3338 69.7389 25.1076 69.5981C24.883 69.4574 24.6315 69.387 24.353 69.387C24.0744 69.387 23.8221 69.4574 23.596 69.5981C23.3714 69.7389 23.1925 69.9463 23.0592 70.2203C22.9274 70.4943 22.8615 70.8305 22.8615 71.2288C22.8615 71.6271 22.9274 71.9633 23.0592 72.2373C23.1925 72.5114 23.3714 72.7187 23.596 72.8595C23.8221 73.0003 24.0744 73.0706 24.353 73.0706C24.6315 73.0706 24.883 73.0003 25.1076 72.8595C25.3338 72.7187 25.5127 72.5114 25.6445 72.2373C25.7777 71.9633 25.8444 71.6271 25.8444 71.2288Z" fill="#78716C"/>
<path d="M29.8357 70.0788C29.8088 69.8512 29.6995 69.6745 29.5078 69.5487C29.3161 69.4229 29.081 69.3601 28.8025 69.3601C28.5989 69.3601 28.4207 69.393 28.2679 69.4589C28.1167 69.5248 27.9984 69.6154 27.913 69.7307C27.8292 69.846 27.7873 69.977 27.7873 70.1237C27.7873 70.2465 27.8165 70.3521 27.8749 70.4404C27.9348 70.5273 28.0111 70.5999 28.104 70.6583C28.1968 70.7152 28.2941 70.7624 28.396 70.7998C28.4978 70.8357 28.5914 70.8649 28.6767 70.8874L29.1439 71.0132C29.2637 71.0446 29.397 71.0881 29.5437 71.1435C29.692 71.1989 29.8335 71.2745 29.9682 71.3703C30.1045 71.4647 30.2168 71.586 30.3052 71.7342C30.3935 71.8824 30.4377 72.0644 30.4377 72.28C30.4377 72.5286 30.3725 72.7532 30.2423 72.9538C30.1135 73.1545 29.9248 73.314 29.6763 73.4323C29.4292 73.5506 29.1289 73.6097 28.7756 73.6097C28.4461 73.6097 28.1609 73.5565 27.9198 73.4502C27.6802 73.3439 27.4915 73.1957 27.3538 73.0055C27.2175 72.8153 27.1404 72.5945 27.1224 72.3429H27.6974C27.7124 72.5166 27.7708 72.6603 27.8726 72.7741C27.9759 72.8865 28.1062 72.9703 28.2634 73.0257C28.4222 73.0796 28.5929 73.1066 28.7756 73.1066C28.9882 73.1066 29.1791 73.0721 29.3483 73.0033C29.5175 72.9329 29.6515 72.8355 29.7504 72.7113C29.8492 72.5855 29.8986 72.4387 29.8986 72.271C29.8986 72.1183 29.8559 71.994 29.7706 71.8982C29.6852 71.8023 29.5729 71.7245 29.4337 71.6646C29.2944 71.6047 29.1439 71.5523 28.9822 71.5073L28.4162 71.3456C28.0568 71.2423 27.7723 71.0948 27.5627 70.9031C27.353 70.7115 27.2482 70.4606 27.2482 70.1507C27.2482 69.8931 27.3178 69.6685 27.4571 69.4768C27.5978 69.2837 27.7865 69.1339 28.0231 69.0276C28.2612 68.9198 28.527 68.8659 28.8205 68.8659C29.117 68.8659 29.3805 68.9191 29.6111 69.0254C29.8417 69.1302 30.0244 69.274 30.1592 69.4566C30.2954 69.6393 30.3673 69.8467 30.3748 70.0788H29.8357Z" fill="#78716C"/>
<path d="M34.9114 73.5288V68.9288H37.6876V69.4229H35.4684V70.9773H37.5438V71.4714H35.4684V73.0347H37.7235V73.5288H34.9114Z" fill="#78716C"/>
<path d="M40.219 69.4229V68.9288H43.669V69.4229H42.2225V73.5288H41.6655V69.4229H40.219Z" fill="#78716C"/>
<path d="M44.5287 73.5288V68.9288H47.3049V69.4229H45.0857V70.9773H47.1611V71.4714H45.0857V73.0347H47.3408V73.5288H44.5287Z" fill="#78716C"/>
<path d="M52.0105 70.3663H51.4535C51.4205 70.2061 51.3629 70.0653 51.2805 69.944C51.1997 69.8228 51.1008 69.7209 50.984 69.6386C50.8687 69.5547 50.7407 69.4918 50.5999 69.4499C50.4592 69.408 50.3124 69.387 50.1597 69.387C49.8812 69.387 49.6289 69.4574 49.4028 69.5981C49.1782 69.7389 48.9992 69.9463 48.8659 70.2203C48.7342 70.4943 48.6683 70.8305 48.6683 71.2288C48.6683 71.6271 48.7342 71.9633 48.8659 72.2373C48.9992 72.5114 49.1782 72.7187 49.4028 72.8595C49.6289 73.0003 49.8812 73.0706 50.1597 73.0706C50.3124 73.0706 50.4592 73.0497 50.5999 73.0077C50.7407 72.9658 50.8687 72.9037 50.984 72.8213C51.1008 72.7375 51.1997 72.6349 51.2805 72.5136C51.3629 72.3908 51.4205 72.2501 51.4535 72.0913H52.0105C51.9686 72.3264 51.8922 72.5368 51.7814 72.7225C51.6706 72.9082 51.5328 73.0661 51.3681 73.1964C51.2034 73.3252 51.0185 73.4233 50.8133 73.4907C50.6097 73.558 50.3918 73.5917 50.1597 73.5917C49.7674 73.5917 49.4185 73.4959 49.113 73.3042C48.8075 73.1126 48.5672 72.84 48.392 72.4866C48.2168 72.1333 48.1292 71.714 48.1292 71.2288C48.1292 70.7437 48.2168 70.3244 48.392 69.971C48.5672 69.6176 48.8075 69.3451 49.113 69.1534C49.4185 68.9617 49.7674 68.8659 50.1597 68.8659C50.3918 68.8659 50.6097 68.8996 50.8133 68.967C51.0185 69.0344 51.2034 69.1332 51.3681 69.2635C51.5328 69.3922 51.6706 69.5495 51.7814 69.7352C51.8922 69.9193 51.9686 70.1297 52.0105 70.3663Z" fill="#78716C"/>
<path d="M56.5583 68.9288V73.5288H56.0193L53.5126 69.9171H53.4677V73.5288H52.9106V68.9288H53.4497L55.9654 72.5495H56.0103V68.9288H56.5583Z" fill="#78716C"/>
<path d="M61.5543 71.2288C61.5543 71.714 61.4667 72.1333 61.2915 72.4866C61.1163 72.84 60.8759 73.1126 60.5705 73.3042C60.265 73.4959 59.9161 73.5917 59.5238 73.5917C59.1314 73.5917 58.7825 73.4959 58.4771 73.3042C58.1716 73.1126 57.9313 72.84 57.7561 72.4866C57.5809 72.1333 57.4933 71.714 57.4933 71.2288C57.4933 70.7437 57.5809 70.3244 57.7561 69.971C57.9313 69.6176 58.1716 69.3451 58.4771 69.1534C58.7825 68.9617 59.1314 68.8659 59.5238 68.8659C59.9161 68.8659 60.265 68.9617 60.5705 69.1534C60.8759 69.3451 61.1163 69.6176 61.2915 69.971C61.4667 70.3244 61.5543 70.7437 61.5543 71.2288ZM61.0152 71.2288C61.0152 70.8305 60.9486 70.4943 60.8153 70.2203C60.6835 69.9463 60.5046 69.7389 60.2785 69.5981C60.0539 69.4574 59.8023 69.387 59.5238 69.387C59.2453 69.387 58.9929 69.4574 58.7668 69.5981C58.5422 69.7389 58.3633 69.9463 58.23 70.2203C58.0982 70.4943 58.0323 70.8305 58.0323 71.2288C58.0323 71.6271 58.0982 71.9633 58.23 72.2373C58.3633 72.5114 58.5422 72.7187 58.7668 72.8595C58.9929 73.0003 59.2453 73.0706 59.5238 73.0706C59.8023 73.0706 60.0539 73.0003 60.2785 72.8595C60.5046 72.7187 60.6835 72.5114 60.8153 72.2373C60.9486 71.9633 61.0152 71.6271 61.0152 71.2288Z" fill="#78716C"/>
<path d="M62.4909 73.5288V68.9288H63.0479V73.0347H65.1862V73.5288H62.4909Z" fill="#78716C"/>
<path d="M69.7509 71.2288C69.7509 71.714 69.6633 72.1333 69.4881 72.4866C69.3129 72.84 69.0726 73.1126 68.7671 73.3042C68.4616 73.4959 68.1127 73.5917 67.7204 73.5917C67.3281 73.5917 66.9792 73.4959 66.6737 73.3042C66.3682 73.1126 66.1279 72.84 65.9527 72.4866C65.7775 72.1333 65.6899 71.714 65.6899 71.2288C65.6899 70.7437 65.7775 70.3244 65.9527 69.971C66.1279 69.6176 66.3682 69.3451 66.6737 69.1534C66.9792 68.9617 67.3281 68.8659 67.7204 68.8659C68.1127 68.8659 68.4616 68.9617 68.7671 69.1534C69.0726 69.3451 69.3129 69.6176 69.4881 69.971C69.6633 70.3244 69.7509 70.7437 69.7509 71.2288ZM69.2118 71.2288C69.2118 70.8305 69.1452 70.4943 69.0119 70.2203C68.8802 69.9463 68.7012 69.7389 68.4751 69.5981C68.2505 69.4574 67.9989 69.387 67.7204 69.387C67.4419 69.387 67.1896 69.4574 66.9635 69.5981C66.7389 69.7389 66.5599 69.9463 66.4266 70.2203C66.2949 70.4943 66.229 70.8305 66.229 71.2288C66.229 71.6271 66.2949 71.9633 66.4266 72.2373C66.5599 72.5114 66.7389 72.7187 66.9635 72.8595C67.1896 73.0003 67.4419 73.0706 67.7204 73.0706C67.9989 73.0706 68.2505 73.0003 68.4751 72.8595C68.7012 72.7187 68.8802 72.5114 69.0119 72.2373C69.1452 71.9633 69.2118 71.6271 69.2118 71.2288Z" fill="#78716C"/>
<path d="M73.8321 70.3663C73.7827 70.2151 73.7175 70.0796 73.6367 69.9598C73.5573 69.8385 73.4622 69.7352 73.3514 69.6498C73.2421 69.5644 73.1178 69.4993 72.9786 69.4544C72.8393 69.4095 72.6866 69.387 72.5204 69.387C72.2478 69.387 72 69.4574 71.7769 69.5981C71.5538 69.7389 71.3763 69.9463 71.2446 70.2203C71.1128 70.4943 71.0469 70.8305 71.0469 71.2288C71.0469 71.6271 71.1135 71.9633 71.2468 72.2373C71.3801 72.5114 71.5605 72.7187 71.7881 72.8595C72.0157 73.0003 72.2718 73.0706 72.5563 73.0706C72.8198 73.0706 73.0519 73.0145 73.2526 72.9022C73.4547 72.7884 73.612 72.6282 73.7243 72.4215C73.8381 72.2134 73.895 71.9685 73.895 71.687L74.0657 71.723H72.6821V71.2288H74.4341V71.723C74.4341 72.1018 74.3532 72.4312 74.1915 72.7113C74.0312 72.9913 73.8096 73.2084 73.5266 73.3626C73.2451 73.5154 72.9217 73.5917 72.5563 73.5917C72.149 73.5917 71.7911 73.4959 71.4827 73.3042C71.1757 73.1126 70.9361 72.84 70.7639 72.4866C70.5932 72.1333 70.5078 71.714 70.5078 71.2288C70.5078 70.8649 70.5565 70.5378 70.6538 70.2473C70.7527 69.9553 70.8919 69.7067 71.0716 69.5016C71.2513 69.2964 71.4639 69.1392 71.7095 69.0299C71.9551 68.9206 72.2254 68.8659 72.5204 68.8659C72.7629 68.8659 72.9891 68.9026 73.1987 68.976C73.4098 69.0478 73.5977 69.1504 73.7625 69.2837C73.9287 69.4155 74.0672 69.5734 74.178 69.7576C74.2888 69.9403 74.3652 70.1432 74.4071 70.3663H73.8321Z" fill="#78716C"/>
<path d="M75.9451 68.9288V73.5288H75.3881V68.9288H75.9451Z" fill="#78716C"/>
<path d="M77.2507 73.5288H76.6667L78.3558 68.9288H78.9308L80.6199 73.5288H80.0359L78.6612 69.6565H78.6253L77.2507 73.5288ZM77.4663 71.732H79.8202V72.2261H77.4663V71.732Z" fill="#78716C"/>
<path d="M0.197658 80.2492V75.6492H2.97386V76.1433H0.754695V77.6976H2.83011V78.1918H0.754695V79.7551H3.0098V80.2492H0.197658Z" fill="#78716C"/>
<path d="M4.04112 75.6492H4.70597L6.26927 79.4676H6.32318L7.88647 75.6492H8.55132V80.2492H8.03023V76.7543H7.9853L6.54779 80.2492H6.04466L4.60714 76.7543H4.56222V80.2492H4.04112V75.6492Z" fill="#78716C"/>
<path d="M11.5736 80.2492V75.6492H13.1279C13.4873 75.6492 13.7823 75.7106 14.0129 75.8334C14.2435 75.9546 14.4142 76.1216 14.525 76.3342C14.6358 76.5469 14.6912 76.7887 14.6912 77.0597C14.6912 77.3308 14.6358 77.5711 14.525 77.7807C14.4142 77.9904 14.2443 78.1551 14.0152 78.2749C13.7861 78.3932 13.4933 78.4523 13.1369 78.4523H11.8791V77.9492H13.119C13.3645 77.9492 13.5622 77.9133 13.7119 77.8414C13.8632 77.7695 13.9725 77.6677 14.0399 77.5359C14.1087 77.4026 14.1432 77.2439 14.1432 77.0597C14.1432 76.8756 14.1087 76.7146 14.0399 76.5768C13.971 76.4391 13.8609 76.3327 13.7097 76.2579C13.5584 76.1815 13.3585 76.1433 13.11 76.1433H12.1307V80.2492H11.5736ZM13.7389 78.1828L14.8709 80.2492H14.224L13.11 78.1828H13.7389Z" fill="#78716C"/>
<path d="M15.6827 80.2492V75.6492H18.4589V76.1433H16.2397V77.6976H18.3151V78.1918H16.2397V79.7551H18.4948V80.2492H15.6827Z" fill="#78716C"/>
<path d="M23.2278 77.0867H22.6707C22.6378 76.9265 22.5801 76.7857 22.4978 76.6644C22.4169 76.5431 22.3181 76.4413 22.2013 76.359C22.086 76.2751 21.958 76.2122 21.8172 76.1703C21.6764 76.1283 21.5297 76.1074 21.377 76.1074C21.0984 76.1074 20.8461 76.1778 20.62 76.3185C20.3954 76.4593 20.2165 76.6667 20.0832 76.9407C19.9514 77.2147 19.8855 77.5509 19.8855 77.9492C19.8855 78.3475 19.9514 78.6837 20.0832 78.9577C20.2165 79.2317 20.3954 79.4391 20.62 79.5799C20.8461 79.7206 21.0984 79.791 21.377 79.791C21.5297 79.791 21.6764 79.7701 21.8172 79.7281C21.958 79.6862 22.086 79.6241 22.2013 79.5417C22.3181 79.4578 22.4169 79.3553 22.4978 79.234C22.5801 79.1112 22.6378 78.9704 22.6707 78.8117H23.2278C23.1858 79.0468 23.1095 79.2572 22.9987 79.4429C22.8879 79.6285 22.7501 79.7865 22.5854 79.9168C22.4207 80.0456 22.2357 80.1437 22.0306 80.211C21.8269 80.2784 21.6091 80.3121 21.377 80.3121C20.9846 80.3121 20.6357 80.2163 20.3303 80.0246C20.0248 79.8329 19.7845 79.5604 19.6093 79.207C19.4341 78.8536 19.3465 78.4344 19.3465 77.9492C19.3465 77.464 19.4341 77.0448 19.6093 76.6914C19.7845 76.338 20.0248 76.0655 20.3303 75.8738C20.6357 75.6821 20.9846 75.5863 21.377 75.5863C21.6091 75.5863 21.8269 75.62 22.0306 75.6874C22.2357 75.7547 22.4207 75.8536 22.5854 75.9838C22.7501 76.1126 22.8879 76.2699 22.9987 76.4555C23.1095 76.6397 23.1858 76.8501 23.2278 77.0867Z" fill="#78716C"/>
<path d="M27.2099 75.6492H27.767V78.6949C27.767 79.0094 27.6928 79.2901 27.5446 79.5372C27.3979 79.7828 27.1905 79.9767 26.9224 80.1189C26.6544 80.2597 26.3399 80.3301 25.9791 80.3301C25.6182 80.3301 25.3037 80.2597 25.0357 80.1189C24.7676 79.9767 24.5595 79.7828 24.4113 79.5372C24.2645 79.2901 24.1911 79.0094 24.1911 78.6949V75.6492H24.7482V78.65C24.7482 78.8746 24.7976 79.0745 24.8964 79.2497C24.9953 79.4234 25.136 79.5604 25.3187 79.6607C25.5029 79.7596 25.723 79.809 25.9791 79.809C26.2351 79.809 26.4552 79.7596 26.6394 79.6607C26.8236 79.5604 26.9644 79.4234 27.0617 79.2497C27.1605 79.0745 27.2099 78.8746 27.2099 78.65V75.6492Z" fill="#78716C"/>
<path d="M28.9426 80.2492V75.6492H30.4969C30.8563 75.6492 31.1513 75.7106 31.3819 75.8334C31.6125 75.9546 31.7832 76.1216 31.894 76.3342C32.0048 76.5469 32.0602 76.7887 32.0602 77.0597C32.0602 77.3308 32.0048 77.5711 31.894 77.7807C31.7832 77.9904 31.6132 78.1551 31.3841 78.2749C31.155 78.3932 30.8623 78.4523 30.5059 78.4523H29.2481V77.9492H30.4879C30.7335 77.9492 30.9312 77.9133 31.0809 77.8414C31.2321 77.7695 31.3415 77.6677 31.4088 77.5359C31.4777 77.4026 31.5122 77.2439 31.5122 77.0597C31.5122 76.8756 31.4777 76.7146 31.4088 76.5768C31.34 76.4391 31.2299 76.3327 31.0787 76.2579C30.9274 76.1815 30.7275 76.1433 30.4789 76.1433H29.4996V80.2492H28.9426ZM31.1079 78.1828L32.2399 80.2492H31.593L30.4789 78.1828H31.1079Z" fill="#78716C"/>
<path d="M35.5673 76.7992C35.5404 76.5716 35.4311 76.3949 35.2394 76.2691C35.0477 76.1433 34.8126 76.0804 34.5341 76.0804C34.3305 76.0804 34.1523 76.1134 33.9995 76.1793C33.8483 76.2451 33.73 76.3357 33.6446 76.451C33.5608 76.5663 33.5189 76.6974 33.5189 76.8441C33.5189 76.9669 33.5481 77.0725 33.6065 77.1608C33.6664 77.2477 33.7427 77.3203 33.8356 77.3787C33.9284 77.4356 34.0257 77.4828 34.1276 77.5202C34.2294 77.5561 34.323 77.5853 34.4083 77.6078L34.8755 77.7336C34.9953 77.765 35.1286 77.8084 35.2753 77.8638C35.4236 77.9193 35.5651 77.9949 35.6998 78.0907C35.8361 78.185 35.9484 78.3063 36.0368 78.4546C36.1251 78.6028 36.1693 78.7848 36.1693 79.0004C36.1693 79.249 36.1041 79.4736 35.9739 79.6742C35.8451 79.8749 35.6564 80.0343 35.4078 80.1526C35.1608 80.2709 34.8605 80.3301 34.5072 80.3301C34.1777 80.3301 33.8925 80.2769 33.6514 80.1706C33.4118 80.0643 33.2231 79.9161 33.0854 79.7259C32.9491 79.5357 32.872 79.3148 32.854 79.0633H33.429C33.444 79.237 33.5024 79.3807 33.6042 79.4945C33.7075 79.6068 33.8378 79.6907 33.995 79.7461C34.1538 79.8 34.3245 79.827 34.5072 79.827C34.7198 79.827 34.9107 79.7925 35.0799 79.7236C35.2491 79.6533 35.3831 79.5559 35.482 79.4316C35.5808 79.3059 35.6302 79.1591 35.6302 78.9914C35.6302 78.8387 35.5875 78.7144 35.5022 78.6185C35.4168 78.5227 35.3045 78.4448 35.1653 78.3849C35.026 78.3251 34.8755 78.2726 34.7138 78.2277L34.1478 78.066C33.7884 77.9627 33.5039 77.8152 33.2943 77.6235C33.0846 77.4318 32.9798 77.181 32.9798 76.8711C32.9798 76.6135 33.0494 76.3889 33.1887 76.1972C33.3294 76.0041 33.5181 75.8543 33.7547 75.748C33.9928 75.6402 34.2586 75.5863 34.5521 75.5863C34.8486 75.5863 35.1121 75.6394 35.3427 75.7458C35.5733 75.8506 35.756 75.9943 35.8908 76.177C36.027 76.3597 36.0989 76.5671 36.1064 76.7992H35.5673Z" fill="#78716C"/>
<path d="M41.0297 77.9492C41.0297 78.4344 40.9421 78.8536 40.7669 79.207C40.5917 79.5604 40.3513 79.8329 40.0459 80.0246C39.7404 80.2163 39.3915 80.3121 38.9992 80.3121C38.6069 80.3121 38.258 80.2163 37.9525 80.0246C37.647 79.8329 37.4067 79.5604 37.2315 79.207C37.0563 78.8536 36.9687 78.4344 36.9687 77.9492C36.9687 77.464 37.0563 77.0448 37.2315 76.6914C37.4067 76.338 37.647 76.0655 37.9525 75.8738C38.258 75.6821 38.6069 75.5863 38.9992 75.5863C39.3915 75.5863 39.7404 75.6821 40.0459 75.8738C40.3513 76.0655 40.5917 76.338 40.7669 76.6914C40.9421 77.0448 41.0297 77.464 41.0297 77.9492ZM40.4906 77.9492C40.4906 77.5509 40.424 77.2147 40.2907 76.9407C40.1589 76.6667 39.98 76.4593 39.7539 76.3185C39.5293 76.1778 39.2777 76.1074 38.9992 76.1074C38.7207 76.1074 38.4684 76.1778 38.2422 76.3185C38.0176 76.4593 37.8387 76.6667 37.7054 76.9407C37.5736 77.2147 37.5078 77.5509 37.5078 77.9492C37.5078 78.3475 37.5736 78.6837 37.7054 78.9577C37.8387 79.2317 38.0176 79.4391 38.2422 79.5799C38.4684 79.7206 38.7207 79.791 38.9992 79.791C39.2777 79.791 39.5293 79.7206 39.7539 79.5799C39.98 79.4391 40.1589 79.2317 40.2907 78.9577C40.424 78.6837 40.4906 78.3475 40.4906 77.9492Z" fill="#78716C"/>
<path d="M44.5452 76.7992C44.5183 76.5716 44.4089 76.3949 44.2173 76.2691C44.0256 76.1433 43.7905 76.0804 43.512 76.0804C43.3083 76.0804 43.1302 76.1134 42.9774 76.1793C42.8262 76.2451 42.7079 76.3357 42.6225 76.451C42.5387 76.5663 42.4967 76.6974 42.4967 76.8441C42.4967 76.9669 42.5259 77.0725 42.5843 77.1608C42.6442 77.2477 42.7206 77.3203 42.8134 77.3787C42.9063 77.4356 43.0036 77.4828 43.1054 77.5202C43.2073 77.5561 43.3009 77.5853 43.3862 77.6078L43.8534 77.7336C43.9732 77.765 44.1065 77.8084 44.2532 77.8638C44.4015 77.9193 44.543 77.9949 44.6777 78.0907C44.814 78.185 44.9263 78.3063 45.0146 78.4546C45.103 78.6028 45.1472 78.7848 45.1472 79.0004C45.1472 79.249 45.082 79.4736 44.9518 79.6742C44.823 79.8749 44.6343 80.0343 44.3857 80.1526C44.1387 80.2709 43.8384 80.3301 43.485 80.3301C43.1556 80.3301 42.8703 80.2769 42.6293 80.1706C42.3897 80.0643 42.201 79.9161 42.0632 79.7259C41.927 79.5357 41.8499 79.3148 41.8319 79.0633H42.4069C42.4219 79.237 42.4803 79.3807 42.5821 79.4945C42.6854 79.6068 42.8157 79.6907 42.9729 79.7461C43.1316 79.8 43.3024 79.827 43.485 79.827C43.6977 79.827 43.8886 79.7925 44.0578 79.7236C44.227 79.6533 44.361 79.5559 44.4599 79.4316C44.5587 79.3059 44.6081 79.1591 44.6081 78.9914C44.6081 78.8387 44.5654 78.7144 44.4801 78.6185C44.3947 78.5227 44.2824 78.4448 44.1431 78.3849C44.0039 78.3251 43.8534 78.2726 43.6917 78.2277L43.1257 78.066C42.7663 77.9627 42.4818 77.8152 42.2721 77.6235C42.0625 77.4318 41.9577 77.181 41.9577 76.8711C41.9577 76.6135 42.0273 76.3889 42.1666 76.1972C42.3073 76.0041 42.496 75.8543 42.7326 75.748C42.9707 75.6402 43.2365 75.5863 43.53 75.5863C43.8264 75.5863 44.09 75.6394 44.3206 75.7458C44.5512 75.8506 44.7339 75.9943 44.8686 76.177C45.0049 76.3597 45.0768 76.5671 45.0843 76.7992H44.5452Z" fill="#78716C"/>
<path d="M47.9684 80.2492V75.6492H48.5255V77.6976H50.9782V75.6492H51.5353V80.2492H50.9782V78.1918H48.5255V80.2492H47.9684Z" fill="#78716C"/>
<path d="M55.7325 75.6492H56.2895V78.6949C56.2895 79.0094 56.2154 79.2901 56.0672 79.5372C55.9204 79.7828 55.713 79.9767 55.445 80.1189C55.177 80.2597 54.8625 80.3301 54.5016 80.3301C54.1408 80.3301 53.8263 80.2597 53.5583 80.1189C53.2902 79.9767 53.0821 79.7828 52.9338 79.5372C52.7871 79.2901 52.7137 79.0094 52.7137 78.6949V75.6492H53.2708V78.65C53.2708 78.8746 53.3202 79.0745 53.419 79.2497C53.5178 79.4234 53.6586 79.5604 53.8413 79.6607C54.0255 79.7596 54.2456 79.809 54.5016 79.809C54.7577 79.809 54.9778 79.7596 55.162 79.6607C55.3462 79.5604 55.4869 79.4234 55.5843 79.2497C55.6831 79.0745 55.7325 78.8746 55.7325 78.65V75.6492Z" fill="#78716C"/>
<path d="M57.4652 75.6492H58.13L59.6933 79.4676H59.7472L61.3105 75.6492H61.9754V80.2492H61.4543V76.7543H61.4094L59.9718 80.2492H59.4687L58.0312 76.7543H57.9863V80.2492H57.4652V75.6492Z" fill="#78716C"/>
<path d="M63.3442 80.2492H62.7602L64.4493 75.6492H65.0243L66.7134 80.2492H66.1294L64.7547 76.3769H64.7188L63.3442 80.2492ZM63.5598 78.4523H65.9137V78.9465H63.5598V78.4523Z" fill="#78716C"/>
<path d="M71.1408 75.6492V80.2492H70.6017L68.0951 76.6375H68.0502V80.2492H67.4931V75.6492H68.0322L70.5478 79.2699H70.5928V75.6492H71.1408Z" fill="#78716C"/>
<path d="M76.2 77.9492C76.2 78.4344 76.1124 78.8536 75.9372 79.207C75.762 79.5604 75.5217 79.8329 75.2162 80.0246C74.9107 80.2163 74.5618 80.3121 74.1695 80.3121C73.7772 80.3121 73.4283 80.2163 73.1228 80.0246C72.8173 79.8329 72.577 79.5604 72.4018 79.207C72.2266 78.8536 72.139 78.4344 72.139 77.9492C72.139 77.464 72.2266 77.0448 72.4018 76.6914C72.577 76.338 72.8173 76.0655 73.1228 75.8738C73.4283 75.6821 73.7772 75.5863 74.1695 75.5863C74.5618 75.5863 74.9107 75.6821 75.2162 75.8738C75.5217 76.0655 75.762 76.338 75.9372 76.6914C76.1124 77.0448 76.2 77.464 76.2 77.9492ZM75.6609 77.9492C75.6609 77.5509 75.5943 77.2147 75.461 76.9407C75.3292 76.6667 75.1503 76.4593 74.9242 76.3185C74.6996 76.1778 74.448 76.1074 74.1695 76.1074C73.891 76.1074 73.6387 76.1778 73.4126 76.3185C73.1879 76.4593 73.009 76.6667 72.8757 76.9407C72.744 77.2147 72.6781 77.5509 72.6781 77.9492C72.6781 78.3475 72.744 78.6837 72.8757 78.9577C73.009 79.2317 73.1879 79.4391 73.4126 79.5799C73.6387 79.7206 73.891 79.791 74.1695 79.791C74.448 79.791 74.6996 79.7206 74.9242 79.5799C75.1503 79.4391 75.3292 79.2317 75.461 78.9577C75.5943 78.6837 75.6609 78.3475 75.6609 77.9492Z" fill="#78716C"/>
<path d="M79.7155 76.7992C79.6886 76.5716 79.5793 76.3949 79.3876 76.2691C79.1959 76.1433 78.9608 76.0804 78.6823 76.0804C78.4787 76.0804 78.3005 76.1134 78.1477 76.1793C77.9965 76.2451 77.8782 76.3357 77.7928 76.451C77.709 76.5663 77.6671 76.6974 77.6671 76.8441C77.6671 76.9669 77.6963 77.0725 77.7547 77.1608C77.8146 77.2477 77.8909 77.3203 77.9838 77.3787C78.0766 77.4356 78.1739 77.4828 78.2758 77.5202C78.3776 77.5561 78.4712 77.5853 78.5565 77.6078L79.0237 77.7336C79.1435 77.765 79.2768 77.8084 79.4235 77.8638C79.5718 77.9193 79.7133 77.9949 79.848 78.0907C79.9843 78.185 80.0966 78.3063 80.185 78.4546C80.2733 78.6028 80.3175 78.7848 80.3175 79.0004C80.3175 79.249 80.2523 79.4736 80.1221 79.6742C79.9933 79.8749 79.8046 80.0343 79.556 80.1526C79.309 80.2709 79.0087 80.3301 78.6554 80.3301C78.3259 80.3301 78.0407 80.2769 77.7996 80.1706C77.56 80.0643 77.3713 79.9161 77.2336 79.7259C77.0973 79.5357 77.0202 79.3148 77.0022 79.0633H77.5772C77.5922 79.237 77.6506 79.3807 77.7524 79.4945C77.8557 79.6068 77.986 79.6907 78.1432 79.7461C78.302 79.8 78.4727 79.827 78.6554 79.827C78.868 79.827 79.0589 79.7925 79.2281 79.7236C79.3973 79.6533 79.5313 79.5559 79.6302 79.4316C79.729 79.3059 79.7784 79.1591 79.7784 78.9914C79.7784 78.8387 79.7357 78.7144 79.6504 78.6185C79.565 78.5227 79.4527 78.4448 79.3135 78.3849C79.1742 78.3251 79.0237 78.2726 78.862 78.2277L78.296 78.066C77.9366 77.9627 77.6521 77.8152 77.4425 77.6235C77.2328 77.4318 77.128 77.181 77.128 76.8711C77.128 76.6135 77.1976 76.3889 77.3369 76.1972C77.4776 76.0041 77.6663 75.8543 77.9029 75.748C78.141 75.6402 78.4068 75.5863 78.7003 75.5863C78.9968 75.5863 79.2603 75.6394 79.4909 75.7458C79.7215 75.8506 79.9042 75.9943 80.039 76.177C80.1752 76.3597 80.2471 76.5671 80.2546 76.7992H79.7155Z" fill="#78716C"/>
</svg>
