<svg width="155" height="144" viewBox="0 0 155 144" fill="none" xmlns="http://www.w3.org/2000/svg">
<path d="M155 92.8376L95.9221 144L95.4067 143.409L154.484 92.2463L155 92.8376Z" fill="#78716C"/>
<path d="M60.4351 0.591452L1.34686 51.7632L0.831222 51.1717L59.9194 -3.65899e-05L60.4351 0.591452Z" fill="#78716C"/>
<path d="M97.7883 99.2963H98.2395L98.2204 92.6132H97.5963L95.6957 99.2963H96.1083L96.4348 98.1472H97.7789L97.7883 99.2963ZM97.0971 95.8186C97.4139 94.6997 97.6539 93.7321 97.8171 93.0668C97.7883 93.7321 97.7595 94.6997 97.7692 95.8186L97.7789 97.7542H96.5498L97.0971 95.8186Z" fill="#78716C"/>
<path d="M100.752 93.7315C100.829 93.1569 100.896 92.9754 101.424 92.9754H101.712C102.24 92.9754 102.25 93.1569 102.173 93.7315L102 94.9411H102.423L102.614 93.6107C102.73 92.7942 102.566 92.5522 101.808 92.5522H101.434C100.666 92.5522 100.426 92.7942 100.311 93.6107L99.6479 98.2981C99.5326 99.1146 99.7056 99.3565 100.474 99.3565H100.848C101.606 99.3565 101.837 99.1146 101.952 98.2981L102.182 96.6649H101.76L101.549 98.177C101.462 98.7516 101.405 98.933 100.867 98.933H100.589C100.051 98.933 100.042 98.7516 100.119 98.177L100.752 93.7315Z" fill="#78716C"/>
<path d="M104.589 93.7315C104.666 93.1569 104.733 92.9754 105.261 92.9754H105.549C106.078 92.9754 106.087 93.1569 106.01 93.7315L105.837 94.9411H106.26L106.452 93.6107C106.567 92.7942 106.404 92.5522 105.645 92.5522H105.271C104.503 92.5522 104.263 92.7942 104.148 93.6107L103.485 98.2981C103.37 99.1146 103.543 99.3565 104.311 99.3565H104.685C105.444 99.3565 105.674 99.1146 105.789 98.2981L106.02 96.6649H105.597L105.386 98.177C105.3 98.7516 105.242 98.933 104.705 98.933H104.426C103.888 98.933 103.879 98.7516 103.956 98.177L104.589 93.7315Z" fill="#78716C"/>
<path d="M108.59 93.0062H109.915L109.972 92.6132H108.196L107.255 99.2963H109.032L109.08 98.8728H107.755L108.167 95.9999H109.32L109.377 95.5767H108.225L108.59 93.0062Z" fill="#78716C"/>
<path d="M110.478 99.2963H112.129L112.178 98.8728H110.977L111.87 92.6132H111.419L110.478 99.2963Z" fill="#78716C"/>
<path d="M114.748 93.0062H116.072L116.13 92.6132H114.354L113.413 99.2963H115.189L115.237 98.8728H113.912L114.325 95.9999H115.477L115.535 95.5767H114.383L114.748 93.0062Z" fill="#78716C"/>
<path d="M119.295 96.877C119.382 96.2722 119.305 95.9699 118.921 95.8791C119.324 95.7884 119.497 95.4861 119.583 94.8812L119.756 93.6412C119.871 92.8549 119.698 92.6132 118.93 92.6132H117.567L116.626 99.2963H117.077L117.529 96.0909H118.335C118.873 96.0909 118.911 96.3023 118.835 96.9072L118.652 98.268C118.595 98.6914 118.537 99.0846 118.585 99.2963H119.075C119.026 98.9637 119.055 98.5402 119.122 98.1168L119.295 96.877ZM119.113 94.9114C119.036 95.4859 118.969 95.6674 118.441 95.6674H117.586L117.961 93.0062H118.815C119.353 93.0062 119.362 93.1877 119.276 93.7623L119.113 94.9114Z" fill="#78716C"/>
<path d="M122.345 99.2963H122.796L122.777 92.6132H122.153L120.252 99.2963H120.665L120.992 98.1472H122.336L122.345 99.2963ZM121.654 95.8186C121.971 94.6997 122.211 93.7321 122.374 93.0668C122.345 93.7321 122.316 94.6997 122.326 95.8186L122.336 97.7542H121.107L121.654 95.8186Z" fill="#78716C"/>
<path d="M124.685 99.2963L125.568 93.0062H126.317L126.375 92.6132H124.416L124.358 93.0062H125.107L124.224 99.2963H124.685Z" fill="#78716C"/>
<path d="M126.689 99.2963H127.14L128.081 92.6132H127.629L126.689 99.2963Z" fill="#78716C"/>
<path d="M130.641 99.2963H131.14L132.081 92.6132H131.678L131.035 97.1795C130.977 97.6028 130.939 97.9658 130.9 98.2984C130.891 97.9658 130.881 97.6027 130.833 97.2096L130.353 92.6132H129.758L128.817 99.2963H129.211L129.902 94.4578C129.959 94.0344 129.988 93.6714 130.017 93.3388C130.036 93.6714 130.075 94.0345 130.113 94.4276L130.641 99.2963Z" fill="#78716C"/>
<path d="M134.354 96.1508H135.054L134.776 98.177C134.69 98.7516 134.632 98.933 134.094 98.933H133.816C133.278 98.933 133.269 98.7516 133.346 98.177L133.979 93.7315C134.056 93.1569 134.123 92.9754 134.651 92.9754H134.939C135.467 92.9754 135.477 93.1569 135.4 93.7315L135.227 94.911H135.659L135.842 93.6107C135.957 92.7942 135.794 92.5522 135.035 92.5522H134.661C133.893 92.5522 133.653 92.7942 133.538 93.6107L132.875 98.2981C132.76 99.1146 132.933 99.3565 133.701 99.3565H134.075C134.834 99.3565 135.064 99.1146 135.179 98.2981L135.544 95.7276H134.411L134.354 96.1508Z" fill="#78716C"/>
<path d="M95.8958 110.811H96.3504L97.2983 104.078H96.8438L95.8958 110.811Z" fill="#78716C"/>
<path d="M101.319 105.906C101.407 105.632 101.503 105.236 101.6 104.9C101.542 105.236 101.474 105.632 101.436 105.906L100.739 110.811H101.194L102.141 104.078H101.464L99.9652 109.136C99.8879 109.41 99.8106 109.745 99.7427 110.05C99.7623 109.745 99.7717 109.41 99.7623 109.136L99.6461 104.078H98.9882L98.0403 110.811H98.4371L99.1237 105.906C99.1625 105.632 99.2206 105.144 99.2591 104.779C99.2398 105.144 99.2398 105.601 99.2493 105.906L99.3655 110.811H99.8396L101.319 105.906Z" fill="#78716C"/>
<path d="M102.874 110.811H103.328L103.706 108.1H104.547C105.311 108.1 105.553 107.856 105.669 107.033L105.94 105.144C106.056 104.322 105.882 104.078 105.118 104.078H103.822L102.874 110.811ZM105.002 104.504C105.524 104.504 105.543 104.687 105.466 105.266L105.224 106.912C105.137 107.49 105.079 107.673 104.547 107.673H103.764L104.218 104.504H105.002Z" fill="#78716C"/>
<path d="M108.133 110.811H108.587L108.568 104.078H107.939L106.024 110.811H106.44L106.769 109.684H108.123L108.133 110.811ZM107.436 107.308C107.756 106.18 107.997 105.236 108.162 104.535C108.133 105.236 108.104 106.211 108.114 107.308L108.123 109.258H106.885L107.436 107.308Z" fill="#78716C"/>
<path d="M111.119 105.205C111.196 104.626 111.264 104.444 111.796 104.444H112.086C112.618 104.444 112.628 104.626 112.55 105.205L112.376 106.455H112.802L112.995 105.084C113.111 104.261 112.947 104.017 112.183 104.017H111.805C111.032 104.017 110.79 104.261 110.674 105.084L110.006 109.806C109.89 110.629 110.064 110.873 110.838 110.873H111.215C111.98 110.873 112.212 110.629 112.328 109.806L112.56 108.161H112.134L111.922 109.684C111.834 110.263 111.776 110.446 111.235 110.446H110.954C110.413 110.446 110.403 110.263 110.48 109.684L111.119 105.205Z" fill="#78716C"/>
<path d="M114.588 110.811L115.478 104.504H116.232L116.291 104.078H114.317L114.259 104.504H115.014L114.124 110.811H114.588Z" fill="#78716C"/>
<path d="M6.08977 61.305C8.81101 61.305 10.7422 61.9109 11.8832 63.0921L11.225 63.8191C10.1715 62.7893 8.50379 62.2743 6.22165 62.2743C2.79813 62.2743 1.08637 63.6372 1.08637 66.3631C1.08637 67.3929 1.5033 68.241 2.33714 68.8468C3.17099 69.4828 4.18595 69.9673 5.3875 70.3005C6.58904 70.6337 7.78511 70.967 8.97572 71.3304C10.166 71.6939 11.181 72.2694 12.0151 73.0569C12.849 73.8444 13.2659 74.9042 13.2659 76.2066C13.2659 77.6907 12.6405 78.9023 11.3894 79.811C10.1387 80.6893 8.32815 81.1435 5.95818 81.1435C4.79493 81.1435 3.64839 80.992 2.51826 80.6891C1.38812 80.3863 0.548808 79.9321 0 79.3567L0.658509 78.6296C1.7777 79.6594 3.5004 80.1745 5.8266 80.1745C7.95529 80.1745 9.56251 79.7806 10.6489 78.9932C11.7353 78.2057 12.2783 77.2669 12.2783 76.2371C12.2783 75.1164 11.8614 74.2379 11.0275 73.5715C10.1937 72.8749 9.17324 72.3904 7.97169 72.027C6.76468 71.6938 5.56861 71.3605 4.38347 70.9971C3.19317 70.6336 2.18368 70.0583 1.34953 69.3011C0.515683 68.5439 0.0987602 67.5444 0.0987602 66.2723C0.0987602 64.6065 0.663979 63.3343 1.79411 62.5165C2.92424 61.6987 4.35613 61.305 6.08977 61.305Z" fill="#78716C"/>
<path d="M31.9929 61.325V62.3549H24.7696V81.2241H23.7376V62.3549H16.5144V61.325H31.9929Z" fill="#78716C"/>
<path d="M57.3651 81.2841H75.7723L66.5687 61.3849L57.3651 81.2841ZM74.3559 80.3754H58.7811C61.3699 74.7722 63.9705 69.1388 66.5687 63.5356C69.1665 69.1388 71.7587 74.7722 74.3559 80.3754Z" fill="#78716C"/>
<path d="M37.5721 81.1938H37.5788H38.2658H38.4901L51.6302 81.0725H51.6305H53.2456L46.0078 75.1664L45.4915 74.7121C48.661 73.8337 52.5665 71.532 52.6218 67.8672C52.671 64.5961 50.353 61.3553 45.3125 61.3553H37.5721V81.1938ZM38.4901 80.3455L38.4904 70.3203L50.5906 80.2245L38.4901 80.3455ZM38.4904 69.018L38.4907 62.809L38.4889 62.2639H39.1705C40.7537 62.2336 45.8331 62.1731 47.2081 62.4154C50.2123 62.9908 51.7484 65.444 51.704 67.8973C51.6472 71.0775 47.591 73.3491 44.5343 73.9549L38.4904 69.018Z" fill="#78716C"/>
<path d="M135.413 80.5681H153.814L144.613 60.7063L135.413 80.5681ZM152.399 79.69H136.829C139.417 74.0585 142.016 68.4572 144.613 62.8257C147.21 68.4572 149.802 74.0585 152.399 79.69Z" fill="#78716C"/>
<path d="M109.963 79.5898C108.713 81.1642 106.666 81.9513 103.824 81.9513C100.983 81.9513 98.9478 81.1339 97.72 79.5292C96.4925 77.9245 95.8785 75.3207 95.8785 71.748C95.8785 68.1753 96.4925 65.5714 97.72 63.9668C98.9478 62.3621 100.983 61.5446 103.824 61.5446C107.121 61.5446 109.361 62.6346 110.543 64.7843L96.888 76.1686L96.1492 75.4418L109.213 64.5723C108.212 63.2401 106.416 62.5741 103.824 62.5741C102.688 62.5741 101.733 62.6951 100.96 62.9071C100.187 63.1493 99.4764 63.6036 98.8282 64.2394C98.1802 64.9055 97.6972 65.844 97.3792 67.0551C97.0608 68.2964 96.9016 69.8708 96.9016 71.748C96.9016 73.6251 97.0608 75.1694 97.3792 76.4107C97.6972 77.6521 98.1802 78.5906 98.8282 79.2264C99.4764 79.8925 100.187 80.3165 100.96 80.5587C101.733 80.8009 102.688 80.9218 103.824 80.9218C106.416 80.9218 108.212 80.2558 109.213 78.9237L109.963 79.5898Z" fill="#78716C"/>
<path d="M92.4355 61.4805V62.51H85.2149V81.3423H84.1833V62.51H76.9626V61.4805H92.4355Z" fill="#78716C"/>
<path d="M129.388 63.2747C128.137 61.7306 126.091 60.9433 123.249 60.9433C120.407 60.9433 118.372 61.7305 117.145 63.3654C115.917 64.9701 115.303 67.5437 115.303 71.1467C115.303 74.7193 115.917 77.3232 117.145 78.9279C118.372 80.5326 120.407 81.35 123.249 81.35C126.546 81.35 128.785 80.26 129.968 78.1103L128.638 78.3223C127.637 79.6545 125.841 80.3205 123.249 80.3205C122.113 80.3205 121.157 80.1996 120.385 79.9574C119.612 79.7152 118.901 79.2912 118.253 78.6251C117.605 77.9893 117.122 77.0508 116.804 75.8094C116.485 74.5681 116.326 73.0238 116.326 71.1467C116.326 69.2695 116.485 67.6951 116.804 66.4537C117.122 65.2427 117.605 64.2739 118.253 63.6381C118.901 63.0022 119.612 62.548 120.385 62.3058C121.157 62.0938 122.113 61.9728 123.249 61.9728C125.841 61.9728 127.637 62.6388 128.638 63.971L129.388 63.2747Z" fill="#78716C"/>
<path d="M131.309 70.6282H123.667V71.713H131.309V70.6282Z" fill="#78716C"/>
<path d="M131.31 71.0651L131.311 71.1257C131.311 74.7286 130.697 77.3022 129.469 78.9069C128.324 80.4207 126.476 81.2079 123.927 81.329V80.2995C124.82 80.2692 125.588 80.1482 126.23 79.9666C127.002 79.7244 127.713 79.2701 128.361 78.6343C129.009 77.9985 129.492 77.0599 129.81 75.8186C130.129 74.5772 130.288 73.0028 130.288 71.1257V71.0651H131.31Z" fill="#78716C"/>
<path d="M123.912 70.629L130.345 76.1378L129.633 76.9656L122.243 70.6375L123.912 70.629Z" fill="#78716C"/>
</svg>
