<svg width="155" height="55" viewBox="0 0 155 55" fill="none" xmlns="http://www.w3.org/2000/svg">
<path d="M69.4376 43.7542C69.6182 43.7542 69.7813 43.924 69.9277 44.2619L70.3392 45.524C70.4822 45.9639 70.6662 46.3394 70.8912 46.6514C71.2558 46.3921 71.5469 46.0877 71.7652 45.7381C71.9082 45.5131 72.0905 45.1317 72.3122 44.5939C72.4995 44.1398 72.6559 43.9106 72.7797 43.9064C72.8549 43.9031 72.9486 43.9516 73.0615 44.0536C73.2907 44.3915 73.4504 44.752 73.5399 45.135C73.5776 45.3006 73.6378 45.6962 73.7206 46.3218C73.8034 46.9474 73.9121 47.4551 74.0476 47.8457L74.1831 48.1334C74.2316 48.2388 74.2558 48.3417 74.2558 48.4437C74.2558 48.6235 74.153 48.7138 73.9464 48.7138L73.7657 48.6971L73.6194 48.6519C73.473 48.4679 73.3542 48.1786 73.2639 47.7838C73.2079 47.5471 73.1477 47.1774 73.0841 46.674C73.0239 46.1855 72.9712 45.851 72.926 45.6712C72.543 45.7832 72.2461 45.9881 72.0353 46.285L71.4942 47.0461C71.2767 47.2937 70.9966 47.4175 70.6553 47.4175C70.4027 47.4175 70.2488 47.3573 70.1928 47.2377C70.1552 47.1549 70.0615 46.8354 69.911 46.2792C69.7721 45.7648 69.5864 45.3065 69.3531 44.9042C68.9809 45.1484 68.7007 45.4964 68.5134 45.9472C68.3854 46.2591 68.2767 46.6999 68.1864 47.2711C68.1111 47.7562 68.0266 48.0004 67.933 48.0038C67.8502 48.0079 67.713 47.8967 67.5215 47.6717C67.488 47.6525 67.4705 47.5923 67.4705 47.4911C67.4705 47.1833 67.57 46.73 67.769 46.1328C67.984 45.4938 68.2349 44.9435 68.5243 44.4818C68.8295 43.9968 69.1331 43.7542 69.4376 43.7542ZM78.3958 47.829C78.3958 47.8817 78.3097 47.9343 78.1366 47.987C77.9977 48.028 77.9015 48.0489 77.8497 48.0489C77.4658 48.0489 77.143 47.9586 76.8795 47.7788C76.5684 47.5605 76.412 47.2469 76.412 46.837C76.412 46.5669 76.5132 46.2758 76.7164 45.9639C76.9606 45.5992 77.2458 45.4169 77.5729 45.4169C77.7686 45.4169 77.9283 45.4771 78.0521 45.5976C78.1759 45.718 78.2378 45.8719 78.2378 46.0601C78.2378 46.2441 78.1575 46.4406 77.9961 46.6514C77.8196 46.8805 77.6272 46.9951 77.4206 46.9951C77.3872 46.9951 77.3638 46.9867 77.3504 46.97C77.3378 46.9533 77.3211 46.9441 77.3027 46.9441C77.2534 46.9441 77.1313 46.9784 76.9364 47.0461C77.0041 47.2527 77.1446 47.4083 77.3587 47.5137C77.5277 47.5965 77.7175 47.6374 77.9283 47.6374C77.9509 47.6374 77.9768 47.6333 78.0069 47.6232C78.037 47.614 78.0638 47.6098 78.0864 47.6098C78.1541 47.6098 78.2219 47.6341 78.2913 47.6826C78.3607 47.7319 78.3958 47.7805 78.3958 47.829ZM77.7083 46.1947V45.9187C77.7008 45.9187 77.6841 45.9129 77.6573 45.902C77.6314 45.8903 77.603 45.8853 77.5729 45.8853C77.4717 45.8853 77.3479 45.9639 77.2015 46.122C77.0769 46.2608 76.9999 46.3737 76.9698 46.4598C77.0451 46.5234 77.117 46.556 77.184 46.556C77.2182 46.556 77.3086 46.5142 77.4549 46.4314C77.6272 46.3377 77.7117 46.2591 77.7083 46.1947ZM83.7193 45.5064C83.7494 45.5817 83.7644 45.6511 83.7644 45.7146C83.7644 45.8961 83.6473 45.9865 83.4148 45.9865C83.3772 45.9865 83.2099 45.9614 82.913 45.9104C82.6161 45.8593 82.4497 45.8342 82.412 45.8342C82.2799 45.8342 82.2013 45.8434 82.1754 45.8627C82.1486 45.8811 82.136 45.9354 82.136 46.0258C82.136 46.2324 82.1636 46.5669 82.2205 47.0294C82.2916 47.5965 82.3685 47.8934 82.4513 47.9193C82.4171 47.9536 82.4003 48.0054 82.4003 48.0774C82.2799 48.1451 82.1528 48.1786 82.0173 48.1786C81.8818 48.1786 81.7881 47.9887 81.7354 47.6098C81.717 47.4551 81.6919 47.0796 81.6618 46.4824C81.6392 46.035 81.6024 45.7707 81.5498 45.6879C81.5347 45.6611 81.4569 45.6461 81.3181 45.6427C81.2169 45.6352 81.0831 45.6335 80.9183 45.6369C80.7042 45.6444 80.6122 45.6477 80.6423 45.6477C80.567 45.6477 80.5085 45.6143 80.4675 45.5465C80.4483 45.5022 80.4282 45.4562 80.4056 45.4102C80.3939 45.3876 80.3889 45.3659 80.3889 45.3433C80.3889 45.2112 80.5896 45.1125 80.9911 45.0489C81.2211 45.0263 81.4502 45.0021 81.6794 44.9761C81.6794 44.8666 81.6752 44.7344 81.6677 44.5805C81.6643 44.4099 81.6618 44.292 81.6618 44.2243C81.6618 44.0127 81.6811 43.8604 81.7187 43.7659C81.7639 43.6497 81.8458 43.5911 81.9663 43.5911C82.019 43.5911 82.0741 43.6196 82.1327 43.6756C82.1912 43.7316 82.2205 43.7877 82.2205 43.8404V44.9862C82.3443 45.1183 82.5877 45.2011 82.9498 45.2346C83.3128 45.2689 83.5687 45.3592 83.7193 45.5064ZM88.5919 46.6514C88.5919 47.0612 88.4113 47.3974 88.0508 47.66C87.7388 47.8858 87.406 47.9979 87.053 47.9979C86.7226 47.9979 86.4341 47.8708 86.1882 47.6149C85.9423 47.3598 85.8185 47.0704 85.8185 46.7475C85.8185 46.4281 85.9615 46.1203 86.2476 45.8225C86.5478 45.5039 86.8857 45.3441 87.2621 45.3441C87.615 45.3441 87.9287 45.4863 88.203 45.7724C88.4623 46.0425 88.5919 46.3361 88.5919 46.6514ZM88.0959 46.674C88.0959 46.4481 88.0039 46.2608 87.8199 46.1102C87.651 45.9789 87.4645 45.9129 87.2621 45.9129C87.2429 45.9129 87.1667 45.989 87.0338 46.1412C86.8999 46.2934 86.7804 46.3695 86.6758 46.3695C86.6189 46.3695 86.5796 46.3561 86.557 46.3302C86.4441 46.5518 86.3881 46.6965 86.3881 46.7643C86.3881 46.9784 86.4918 47.144 86.6976 47.2602C86.8598 47.3464 87.0346 47.3899 87.222 47.3899C87.4177 47.3899 87.6 47.3372 87.7689 47.2318C87.9864 47.0963 88.0959 46.9106 88.0959 46.674ZM93.7623 47.006C93.6954 47.0177 93.6276 47.0294 93.5599 47.0403C93.4512 47.0553 93.3792 47.093 93.3458 47.1532C93.0489 47.6299 92.8607 47.9076 92.7821 47.987C92.6165 48.1485 92.3672 48.2296 92.0327 48.2296C91.8295 48.2296 91.6045 48.0548 91.3561 47.7052C91.1269 47.3824 91.0123 47.1264 91.0123 46.9391C91.0123 46.5443 91.1269 46.2232 91.3561 45.9748C91.5852 45.7272 91.888 45.6034 92.2635 45.6034C92.2936 45.6034 92.3689 45.6176 92.4894 45.6452C92.609 45.6737 92.6867 45.6879 92.7202 45.6879C92.8105 45.6879 92.8707 45.5072 92.9008 45.1468C92.9493 44.5939 92.987 44.2602 93.0129 44.144C93.0924 43.7827 93.2387 43.6028 93.4528 43.6028C93.5239 43.6028 93.5825 43.6497 93.6276 43.7433C93.6611 43.8186 93.6778 43.8897 93.6778 43.9575C93.6778 44.0812 93.6301 44.2861 93.534 44.5722C93.4386 44.8574 93.3909 45.1242 93.3909 45.3717C93.3909 45.616 93.4286 45.9078 93.5039 46.2457C93.5783 46.5987 93.6653 46.8521 93.7623 47.006ZM93.0129 46.6229C93.0129 46.5142 92.9677 46.3695 92.8783 46.1889C92.4609 46.234 92.1682 46.2892 91.9992 46.3528C91.7283 46.4582 91.5928 46.6254 91.5928 46.8538C91.5928 46.9633 91.6605 47.1156 91.796 47.3104C91.9499 47.5362 92.1055 47.6491 92.2635 47.6491C92.384 47.6491 92.5362 47.5321 92.7202 47.2996C92.9159 47.052 93.0129 46.8262 93.0129 46.6229ZM99.0071 46.6514C99.0071 47.0612 98.8265 47.3974 98.466 47.66C98.154 47.8858 97.822 47.9979 97.4682 47.9979C97.1378 47.9979 96.8501 47.8708 96.6034 47.6149C96.3575 47.3598 96.2346 47.0704 96.2346 46.7475C96.2346 46.4281 96.3768 46.1203 96.6628 45.8225C96.963 45.5039 97.3018 45.3441 97.6773 45.3441C98.0302 45.3441 98.3439 45.4863 98.6182 45.7724C98.8775 46.0425 99.0071 46.3361 99.0071 46.6514ZM98.5111 46.674C98.5111 46.4481 98.4191 46.2608 98.2351 46.1102C98.0662 45.9789 97.8797 45.9129 97.6773 45.9129C97.6581 45.9129 97.5819 45.989 97.449 46.1412C97.316 46.2934 97.1964 46.3695 97.091 46.3695C97.035 46.3695 96.9948 46.3561 96.9731 46.3302C96.8602 46.5518 96.8041 46.6965 96.8041 46.7643C96.8041 46.9784 96.907 47.144 97.1136 47.2602C97.275 47.3464 97.4498 47.3899 97.638 47.3899C97.8329 47.3899 98.0152 47.3372 98.1841 47.2318C98.4024 47.0963 98.5111 46.9106 98.5111 46.674ZM107.154 43.6697C107.365 43.6664 107.555 43.6907 107.724 43.7433C107.972 43.8186 108.096 43.9391 108.096 44.1038C108.096 44.1866 108.064 44.2769 108 44.3748C107.962 44.3706 107.919 44.3664 107.868 44.3606C107.816 44.3547 107.786 44.3522 107.775 44.3522H107.538C107.252 44.348 106.995 44.3932 106.766 44.4877C106.559 44.5739 106.454 44.7252 106.45 44.9427C106.45 45.0372 106.662 45.2053 107.087 45.4487C107.609 45.7498 107.893 45.9204 107.938 45.9614C108.164 46.1562 108.278 46.4741 108.282 46.9123C108.286 47.2945 108.092 47.6107 107.701 47.8574C107.363 48.0715 106.994 48.1786 106.591 48.1786C106.29 48.1786 105.998 48.115 105.715 47.987C105.431 47.8591 105.289 47.6809 105.289 47.4518V47.1808C105.289 47.0796 105.319 47.0294 105.379 47.0294C105.898 47.2878 106.477 47.4175 107.115 47.4175C107.258 47.3874 107.352 47.3054 107.397 47.1699C107.423 47.0871 107.437 46.9541 107.437 46.7701C107.437 46.4874 107.279 46.2725 106.963 46.122L106.084 45.7046C105.768 45.5131 105.609 45.258 105.605 44.9377C105.601 44.6792 105.795 44.399 106.186 44.0988C106.557 43.8169 106.881 43.6739 107.154 43.6697ZM113.335 46.6288C113.335 46.9483 113.209 47.241 112.957 47.5078C112.682 47.7972 112.343 47.9569 111.937 47.987C111.58 48.013 111.3 47.8909 111.098 47.6207C110.928 47.3915 110.843 47.1139 110.843 46.7869C110.843 46.5426 110.883 46.3152 110.962 46.1044C111.052 45.8644 111.167 45.7439 111.306 45.7439C111.328 45.7439 111.351 45.7481 111.374 45.7556C111.411 45.7816 111.45 45.8075 111.491 45.8342C111.533 45.8719 111.55 45.9354 111.542 46.0258C111.538 46.0559 111.505 46.1646 111.44 46.3528C111.377 46.5401 111.345 46.653 111.345 46.6907C111.345 46.8111 111.397 46.9441 111.5 47.0913C111.604 47.2377 111.711 47.3129 111.824 47.3163C112.125 47.3313 112.333 47.2753 112.45 47.1473C112.487 47.0988 112.559 46.9424 112.664 46.6798C112.672 46.3486 112.681 46.142 112.692 46.0601C112.703 45.9095 112.728 45.8292 112.768 45.82C112.808 45.8108 112.844 45.8058 112.878 45.8058C113.088 45.8058 113.228 45.9204 113.295 46.1496C113.321 46.2516 113.335 46.4113 113.335 46.6288ZM118.218 47.7729C118.116 47.8967 118.012 47.972 117.902 47.9979C117.752 48.0205 117.603 48.0431 117.455 48.0657C117.306 48.0882 117.134 48.0974 116.939 48.0941C116.822 48.0866 116.704 48.079 116.583 48.0715C116.313 48.0673 116.178 47.9628 116.178 47.7562C116.178 47.7261 116.182 47.6918 116.189 47.6542C116.227 47.4518 116.385 47.1908 116.663 46.8713C116.963 46.5217 117.119 46.3319 117.13 46.3018C117.1 46.2533 117.038 46.2232 116.945 46.2123H116.719C116.693 46.2081 116.589 46.2156 116.409 46.234C116.229 46.2533 116.126 46.2625 116.099 46.2625C116.058 46.2658 116.016 46.2683 115.975 46.2683C115.907 46.2566 115.841 46.2173 115.778 46.1496C115.8 46.0969 115.823 46.045 115.846 45.9915C115.883 45.9129 115.943 45.846 116.023 45.7891C116.104 45.733 116.473 45.7105 117.13 45.7213C117.262 45.7255 117.41 45.7481 117.575 45.7891C117.813 45.8493 117.931 45.9279 117.931 46.0258C117.931 46.0559 117.92 46.086 117.897 46.1161C117.84 46.2064 117.664 46.4088 117.367 46.725C117.085 47.0219 116.884 47.2711 116.764 47.4743C116.832 47.527 116.965 47.5588 117.164 47.5697C117.303 47.5739 117.444 47.5772 117.587 47.5814C117.609 47.5814 117.655 47.5756 117.725 47.5647C117.794 47.553 117.844 47.5496 117.875 47.553H118.116C118.222 47.568 118.274 47.6015 118.274 47.6542C118.274 47.6843 118.256 47.7244 118.218 47.7729ZM123.057 46.6288C123.057 46.9483 122.931 47.241 122.679 47.5078C122.405 47.7972 122.065 47.9569 121.659 47.987C121.302 48.013 121.023 47.8909 120.819 47.6207C120.65 47.3915 120.566 47.1139 120.566 46.7869C120.566 46.5426 120.605 46.3152 120.684 46.1044C120.774 45.8644 120.889 45.7439 121.028 45.7439C121.05 45.7439 121.073 45.7481 121.095 45.7556C121.133 45.7816 121.172 45.8075 121.214 45.8342C121.255 45.8719 121.272 45.9354 121.264 46.0258C121.261 46.0559 121.227 46.1646 121.163 46.3528C121.1 46.5401 121.067 46.653 121.067 46.6907C121.067 46.8111 121.12 46.9441 121.223 47.0913C121.325 47.2377 121.433 47.3129 121.546 47.3163C121.847 47.3313 122.056 47.2753 122.172 47.1473C122.209 47.0988 122.281 46.9424 122.386 46.6798C122.393 46.3486 122.403 46.142 122.414 46.0601C122.425 45.9095 122.451 45.8292 122.49 45.82C122.53 45.8108 122.567 45.8058 122.6 45.8058C122.811 45.8058 122.95 45.9204 123.017 46.1496C123.043 46.2516 123.057 46.4113 123.057 46.6288ZM128.216 47.6659C128.273 47.7261 128.301 47.788 128.301 47.8515C128.301 47.9268 128.266 47.9946 128.194 48.0548C128.122 48.115 128.062 48.1451 128.014 48.1451C127.987 48.1451 127.768 48.0531 127.355 47.8683C126.858 47.6508 126.528 47.5095 126.363 47.4459C126.344 47.4309 126.327 47.4233 126.312 47.4233C126.262 47.4233 126.244 47.527 126.255 47.7336C126.267 47.9854 126.265 48.1334 126.25 48.1786C126.205 48.3325 126.093 48.4136 125.917 48.4211C125.793 47.8607 125.705 47.3706 125.653 46.95C125.623 46.7133 125.602 46.4582 125.59 46.1838C125.582 45.9915 125.567 45.8627 125.545 45.7949C125.541 45.7832 125.54 45.7347 125.54 45.6477C125.54 45.2388 125.566 44.8139 125.618 44.3748C125.694 43.781 125.797 43.4841 125.928 43.4841C126.101 43.4841 126.188 43.6455 126.188 43.9683C126.188 44.0026 126.161 44.21 126.109 44.5914C126.057 44.9728 126.03 45.1802 126.03 45.2145C126.03 45.4922 126.045 45.682 126.075 45.7832C126.083 45.8133 126.098 45.8284 126.12 45.8284C126.124 45.8284 126.211 45.7891 126.38 45.7105C126.548 45.631 126.731 45.5858 126.926 45.575C127.111 45.5641 127.334 45.5917 127.596 45.6594C127.916 45.7381 128.076 45.8434 128.076 45.9748C128.076 46.0425 128.029 46.1203 127.934 46.2064C127.841 46.2926 127.775 46.3361 127.738 46.3361C127.715 46.3361 127.62 46.3034 127.453 46.2399C127.285 46.1763 127.146 46.142 127.033 46.1387C126.758 46.1203 126.477 46.219 126.188 46.4373V46.556C126.188 46.582 126.185 46.6271 126.182 46.6907C126.178 46.7317 126.18 46.7634 126.188 46.7843C126.196 46.8044 126.212 46.8262 126.238 46.8488C126.317 46.9316 126.49 47.0236 126.757 47.1248C126.956 47.1958 127.153 47.2678 127.349 47.3389L128.216 47.6659ZM131.494 44.4877C131.501 44.5889 131.477 44.6541 131.421 44.6843C131.399 44.696 131.347 44.7035 131.269 44.7068C131.138 44.7185 131.034 44.6675 130.959 44.5546C130.91 44.476 130.882 44.3949 130.874 44.3129C130.867 44.2075 130.863 44.1607 130.863 44.1716C130.863 44.0628 130.966 43.9876 131.173 43.9466C131.199 43.9391 131.224 43.9349 131.246 43.9349C131.37 43.9349 131.45 44.0177 131.483 44.1833C131.486 44.2845 131.491 44.3857 131.494 44.4877ZM131.286 48.0715C131.271 48.0899 131.225 48.1008 131.15 48.1025C131.076 48.1041 131.025 48.1133 130.998 48.1275C130.773 48.023 130.636 47.8984 130.587 47.7562C130.579 47.7261 130.564 47.553 130.542 47.2377C130.527 47.0043 130.519 46.8973 130.519 46.9165C130.519 46.837 130.564 46.5878 130.654 46.1671C130.681 46.1479 130.765 46.0969 130.908 46.0149C131.073 46.1571 131.159 46.285 131.168 46.398L131.094 47.006C131.072 47.1005 131.06 47.185 131.06 47.2602C131.06 47.3765 131.101 47.4886 131.181 47.5956C131.262 47.7027 131.302 47.8047 131.302 47.9026C131.302 47.9511 131.297 48.0079 131.286 48.0715Z" fill="#78716C"/>
<path fill-rule="evenodd" clip-rule="evenodd" d="M78.9362 43.7524C78.9387 43.9238 78.8534 44.1221 78.6827 44.3487C78.5121 44.5745 78.354 44.6883 78.2102 44.6883C78.1583 44.6883 78.1199 44.6699 78.0948 44.6339C78.0747 44.6046 78.0622 44.5745 78.058 44.5427C78.058 44.5202 78.0914 44.4675 78.1592 44.3838C78.2512 44.2693 78.339 44.153 78.4226 44.0359C78.4251 44.0317 78.4879 43.918 78.6117 43.6947C78.6543 43.6186 78.7045 43.5793 78.7605 43.5767C78.8283 43.5742 78.8743 43.5893 78.8994 43.6202C78.9236 43.652 78.9362 43.6963 78.9362 43.7524Z" fill="#78716C"/>
<path d="M70.7749 0.0175603C71.4641 0.0117058 71.8145 0.18985 71.8262 0.552831L71.6038 1.03374C71.081 1.23613 70.514 1.37247 69.9018 1.44356C69.5806 1.47952 69.3606 1.61333 69.2419 1.84501C69.1532 2.02315 69.1139 2.28411 69.1265 2.62869C69.1557 3.57377 69.1708 3.87068 69.1708 3.52024C70.4186 3.17566 71.2148 3.00003 71.5594 2.99417C71.8622 2.98832 72.0136 3.09872 72.0136 3.32454C72.0136 3.43159 71.9659 3.60638 71.8714 3.84977C71.3244 3.99864 70.7783 4.14668 70.2313 4.29555C69.4234 4.52722 69.016 4.7706 69.0102 5.02652C69.0043 5.3711 69.0637 5.65296 69.1884 5.87293C69.3372 6.14056 69.5722 6.27438 69.8926 6.27438C70.1719 6.27438 70.5809 6.22838 71.1178 6.13638C71.6556 6.04355 72.0579 5.99503 72.3255 5.98918C72.8842 5.97663 73.1728 6.14307 73.1903 6.48765L73.2255 6.55038C73.2439 6.56794 73.2522 6.60391 73.2522 6.65744C73.2522 6.70511 73.2288 6.75278 73.1811 6.79962C73.1159 6.86569 72.9762 6.91838 72.7629 6.9602L71.4791 7.20107C71.4674 7.20107 71.2207 7.23033 70.7398 7.29055C70.6386 7.30226 70.5014 7.31398 70.3291 7.32569H70.0707C70.0832 7.32569 69.7437 7.31397 69.0545 7.29055C68.7518 7.27801 68.5527 7.23954 68.4582 7.1743C68.4164 7.14503 68.3779 7.10906 68.3419 7.06725C68.306 7.02543 68.2734 6.98696 68.2441 6.951L68.1011 6.71932V5.33849C68.1011 4.89271 68.045 4.66689 67.9305 4.66104L67.7063 4.73213C67.6168 4.76224 67.5073 4.78315 67.3751 4.79486C67.1066 4.79486 66.8432 4.69951 66.5864 4.50966V3.84977C66.7052 3.82049 66.7662 3.75777 66.7688 3.66242C66.7721 3.56791 67.1627 3.5169 67.9413 3.51104C67.9413 3.39813 67.9229 3.0594 67.8878 2.49569L67.8343 1.64846C67.7983 1.10232 67.9882 0.686655 68.4047 0.40062C68.6656 0.216621 69.1348 0.101196 69.8123 0.0535232C70.074 0.0359596 70.3944 0.0242512 70.7749 0.0175603ZM75.773 5.81939C75.7847 5.86706 75.7906 5.91474 75.7906 5.96241C75.7906 6.29529 75.5622 6.61895 75.1048 6.93342C74.6891 7.22448 74.3177 7.37001 73.9907 7.37001C73.9313 7.37001 73.8812 7.36416 73.8393 7.35245C73.744 7.34074 73.6495 7.32903 73.5541 7.31648C73.4295 7.30478 73.3459 7.24874 73.3049 7.14754C73.2807 7.08816 73.3133 7.01121 73.4028 6.91586C73.4914 6.82052 73.5809 6.75863 73.6704 6.72852H73.6478C73.6445 6.72852 73.6495 6.72852 73.6612 6.72852C73.6846 6.73437 73.7323 6.74023 73.8034 6.74692C74.1187 6.77034 74.4925 6.56543 74.9266 6.13135C74.9442 6.11965 74.9534 6.09875 74.9534 6.06947C74.9534 5.99169 74.7376 5.69478 74.3069 5.1779C73.8761 4.66103 73.6553 4.26628 73.6428 3.99279C73.6378 3.73686 73.7381 3.49347 73.9464 3.2618C74.1722 3.00671 74.4482 2.87541 74.7752 2.86955C74.9768 2.8637 75.134 2.94064 75.2478 3.10122C75.3481 3.23755 75.3875 3.37137 75.3632 3.50268C75.3398 3.61475 75.2595 3.67162 75.1223 3.67162C75.0813 3.67162 75.0111 3.66577 74.9132 3.65406C74.8154 3.64235 74.7426 3.63566 74.6949 3.63566C74.5402 3.63566 74.439 3.68919 74.3922 3.79624C74.4039 4.03377 74.6264 4.39926 75.0604 4.89272C75.5121 5.40959 75.7496 5.71819 75.773 5.81939ZM79.9958 6.17569C79.8653 6.31871 79.5032 6.49685 78.9085 6.71096C78.3565 6.90667 78.0178 7.00452 77.8932 7.00452C77.4056 7.00452 77.0209 6.85314 76.739 6.55038C76.4563 6.24761 76.3158 5.82859 76.3158 5.29332C76.3158 4.59245 76.6035 4.00784 77.1798 3.5378C77.6908 3.12799 78.2495 2.92308 78.8558 2.92308C78.9144 2.92308 78.9863 2.9766 79.0691 3.08366C79.1527 3.19071 79.1937 3.28271 79.1937 3.35966C79.1937 3.66911 79.0248 3.87653 78.6861 3.98359C78.3766 4.07308 78.068 4.16172 77.7594 4.25122C77.4206 4.42936 77.2509 4.7681 77.2509 5.2674C77.2509 5.75417 77.4742 5.99755 77.9199 5.99755H78.1157C78.1926 5.99169 78.257 5.98918 78.3072 5.98918C78.3574 5.98918 78.4042 5.97998 78.4452 5.96241C78.487 5.94401 78.5355 5.93565 78.5924 5.93565C78.6493 5.93565 78.8165 5.89132 79.0959 5.80183C79.3752 5.71234 79.5417 5.66801 79.5952 5.66801C79.6604 5.66801 79.7942 5.71569 79.9958 5.81103V6.17569ZM84.6644 4.82162C84.6644 5.46896 84.3792 6.00089 83.8096 6.41656C83.3161 6.77368 82.7901 6.951 82.2314 6.951C81.7087 6.951 81.2528 6.74944 80.8639 6.34547C80.4742 5.94151 80.2802 5.48402 80.2802 4.973C80.2802 4.46784 80.506 3.98108 80.9568 3.51104C81.4327 3.00672 81.9671 2.75331 82.5617 2.75331C83.1196 2.75331 83.6164 2.97995 84.0496 3.43159C84.4595 3.85897 84.6644 4.32231 84.6644 4.82162ZM83.8799 4.85675C83.8799 4.50046 83.7343 4.20355 83.4433 3.96603C83.1765 3.75777 82.8821 3.65406 82.5617 3.65406C82.5316 3.65406 82.4112 3.7745 82.2004 4.01453C81.9897 4.25541 81.8007 4.37583 81.6351 4.37583C81.5456 4.37583 81.4828 4.35493 81.4477 4.31311C81.2696 4.66438 81.1801 4.89271 81.1801 4.99976C81.1801 5.33849 81.3432 5.59944 81.6702 5.78427C81.9253 5.9206 82.2021 5.98918 82.499 5.98918C82.8076 5.98918 83.0962 5.90554 83.3638 5.73911C83.7084 5.525 83.8799 5.23144 83.8799 4.85675ZM86.4726 6.42576C86.4726 6.52612 86.404 6.61896 86.2677 6.70176C86.1548 6.76699 86.0653 6.79962 86 6.79962C85.7031 6.79376 85.4656 5.98583 85.2875 4.37583C85.1628 3.21748 85.1035 2.37694 85.1093 1.85338C85.1327 0.742691 85.3318 0.193195 85.7065 0.204904C85.9616 0.204904 86.0895 0.526068 86.0895 1.16756C86.0895 1.35741 86.0745 1.68109 86.0452 2.13858C86.0151 2.59607 86 2.93814 86 3.16396C86 3.38392 86.0126 3.57377 86.036 3.73435C86.3329 5.44554 86.4784 6.34212 86.4726 6.42576ZM91.3368 6.71932C91.3368 6.85648 91.2942 6.97024 91.208 7.06307C91.1219 7.15507 91.0132 7.20107 90.8827 7.20107C90.6393 7.20107 90.4102 7.12998 90.1969 6.98696C89.9828 6.84478 89.8222 6.66915 89.7151 6.46089C89.5964 6.44333 89.4835 6.50856 89.3764 6.65744C89.2518 6.82973 89.1715 6.92423 89.1355 6.94263C88.9398 7.02543 88.6429 7.06725 88.2448 7.06725C87.9119 7.06725 87.615 6.8799 87.3533 6.50521C87.1274 6.17903 87.0154 5.87292 87.0154 5.58773C87.0154 5.05915 87.2763 4.5657 87.799 4.10821C88.2984 3.66912 88.8035 3.44915 89.3145 3.44915C89.4391 3.44915 89.5579 3.48762 89.6708 3.56456C89.813 3.65991 89.8849 3.77868 89.8849 3.92086C89.8849 4.0045 89.8582 4.09064 89.8046 4.17929C90.1668 4.31645 90.3483 4.53308 90.3483 4.83082C90.3483 4.88937 90.3391 4.97467 90.3215 5.08423C90.3031 5.19463 90.2947 5.26991 90.2947 5.31173C90.2947 5.36525 90.3006 5.40958 90.3123 5.44555C90.3892 5.64711 90.5858 5.90555 90.9003 6.22085C91.1922 6.51191 91.3368 6.67834 91.3368 6.71932ZM89.4659 4.39341C89.4065 4.39341 89.3187 4.38337 89.1999 4.36246C89.0812 4.34155 88.9992 4.33151 88.9515 4.33151C88.7692 4.33151 88.5267 4.47871 88.2289 4.77227C87.9295 5.06667 87.7815 5.32009 87.7815 5.5342C87.7815 5.65966 87.835 5.79849 87.9404 5.95321C88.0767 6.14892 88.2415 6.24762 88.438 6.24762C88.8386 6.24762 89.1079 6.02431 89.2443 5.57937C89.3221 5.18126 89.3948 4.78566 89.4659 4.39341ZM98.1432 5.38282C98.0361 5.40038 97.929 5.41878 97.822 5.43634C97.6497 5.45976 97.5368 5.51914 97.4833 5.61449C97.0141 6.36888 96.7172 6.80881 96.5925 6.93342C96.3308 7.18935 95.936 7.31648 95.4074 7.31648C95.0863 7.31648 94.73 7.04049 94.3377 6.48765C93.9747 5.97664 93.7941 5.57267 93.7941 5.27576C93.7941 4.65184 93.9747 4.14416 94.3377 3.75191C94.6999 3.35965 95.1782 3.16396 95.7721 3.16396C95.8197 3.16396 95.9385 3.1857 96.1292 3.23087C96.319 3.27519 96.4412 3.29776 96.4947 3.29776C96.6369 3.29776 96.7322 3.01257 96.7799 2.44217C96.8568 1.56817 96.9162 1.03959 96.9572 0.855593C97.0826 0.285195 97.3143 0 97.653 0C97.766 0 97.858 0.0744415 97.929 0.222477C97.9826 0.341241 98.0093 0.454985 98.0093 0.561202C98.0093 0.757747 97.9332 1.08141 97.7818 1.53304C97.6305 1.98468 97.5544 2.4062 97.5544 2.79846C97.5544 3.18402 97.6146 3.64485 97.7333 4.17929C97.8521 4.73798 97.9884 5.13944 98.1432 5.38282ZM96.9572 4.77645C96.9572 4.60416 96.8861 4.37584 96.7439 4.09065C96.084 4.16174 95.6207 4.24787 95.3539 4.34907C94.9257 4.51551 94.7124 4.7798 94.7124 5.14278C94.7124 5.31424 94.8186 5.55511 95.0327 5.86373C95.2761 6.22085 95.5228 6.399 95.7721 6.399C95.9628 6.399 96.2028 6.215 96.4947 5.84617C96.8033 5.45391 96.9572 5.09762 96.9572 4.77645ZM101.814 6.6842C101.814 6.767 101.677 6.85062 101.403 6.93342C101.184 6.99866 101.032 7.03128 100.949 7.03128C100.343 7.03128 99.8318 6.8891 99.4161 6.6039C98.9235 6.25932 98.6767 5.76336 98.6767 5.11518C98.6767 4.6878 98.8365 4.22696 99.1577 3.73435C99.5441 3.15809 99.9957 2.86955 100.513 2.86955C100.821 2.86955 101.074 2.9649 101.27 3.15476C101.466 3.34545 101.564 3.58882 101.564 3.88573C101.564 4.17678 101.436 4.48875 101.181 4.82162C100.901 5.18376 100.599 5.36525 100.272 5.36525C100.218 5.36525 100.181 5.35188 100.16 5.32511C100.14 5.29835 100.114 5.28496 100.084 5.28496C100.007 5.28496 99.8142 5.33849 99.5056 5.44555C99.6118 5.77173 99.8351 6.01846 100.174 6.18489C100.441 6.31536 100.741 6.38059 101.074 6.38059C101.11 6.38059 101.152 6.3739 101.198 6.35885C101.246 6.34379 101.288 6.33627 101.323 6.33627C101.43 6.33627 101.539 6.37474 101.649 6.45252C101.759 6.52946 101.814 6.60725 101.814 6.6842ZM100.727 4.09983V3.66242C100.715 3.66242 100.687 3.65406 100.646 3.63566C100.605 3.6181 100.56 3.6089 100.513 3.6089C100.352 3.6089 100.155 3.73435 99.9238 3.98359C99.7281 4.20355 99.6059 4.38169 99.5591 4.51801C99.6779 4.61921 99.7908 4.67024 99.8978 4.67024C99.9514 4.67024 100.094 4.60416 100.325 4.47369C100.599 4.32566 100.733 4.20103 100.727 4.09983ZM107.184 0.240867C107.47 0.240867 107.728 0.507666 107.96 1.04294L108.61 3.03934C108.836 3.73435 109.127 4.32817 109.484 4.82162C110.06 4.4118 110.52 3.93005 110.865 3.37722C111.091 3.02093 111.379 2.41792 111.73 1.56818C112.027 0.849742 112.273 0.486759 112.469 0.480905C112.588 0.47505 112.737 0.552839 112.915 0.712583C113.278 1.24785 113.53 1.81824 113.673 2.42377C113.732 2.68555 113.827 3.31116 113.958 4.29974C114.088 5.28915 114.261 6.09289 114.475 6.71096L114.688 7.1651C114.766 7.33154 114.804 7.49546 114.804 7.65521C114.804 7.94041 114.641 8.08342 114.314 8.08342L114.029 8.05666L113.797 7.98558C113.566 7.69369 113.378 7.23619 113.236 6.6131C113.147 6.23841 113.051 5.65297 112.951 4.85675C112.856 4.08479 112.773 3.5562 112.701 3.271C112.095 3.44915 111.625 3.77283 111.293 4.24203L110.438 5.44555C110.093 5.83696 109.651 6.03351 109.11 6.03351C108.711 6.03351 108.468 5.93816 108.379 5.74831C108.319 5.61784 108.17 5.11268 107.933 4.23283C107.714 3.41905 107.419 2.69476 107.051 2.05912C106.462 2.44469 106.02 2.99417 105.723 3.70759C105.521 4.20104 105.348 4.89856 105.206 5.80183C105.087 6.56794 104.954 6.95434 104.805 6.9602C104.674 6.96605 104.458 6.79124 104.155 6.43412C104.101 6.40484 104.074 6.30951 104.074 6.14893C104.074 5.66217 104.232 4.94624 104.546 4.00199C104.885 2.99167 105.283 2.12101 105.741 1.39003C106.222 0.623927 106.703 0.240867 107.184 0.240867ZM118.724 4.78566C118.724 5.29082 118.525 5.75416 118.127 6.17569C117.694 6.63402 117.156 6.88575 116.514 6.93342C115.95 6.97524 115.508 6.78205 115.187 6.35467C114.919 5.99169 114.785 5.55176 114.785 5.03572C114.785 4.64933 114.848 4.2897 114.972 3.95682C115.115 3.57712 115.296 3.38642 115.516 3.38642C115.552 3.38642 115.587 3.39228 115.623 3.40482C115.682 3.44581 115.745 3.48763 115.81 3.52944C115.876 3.58882 115.902 3.68919 115.891 3.83221C115.885 3.87988 115.831 4.05217 115.73 4.34907C115.629 4.64598 115.579 4.82413 115.579 4.88351C115.579 5.0742 115.66 5.28496 115.824 5.51663C115.987 5.7483 116.158 5.86707 116.336 5.87293C116.812 5.89718 117.141 5.80769 117.325 5.60529C117.384 5.52834 117.497 5.28161 117.664 4.86594C117.676 4.34322 117.691 4.0162 117.709 3.88573C117.727 3.6482 117.767 3.52191 117.829 3.50685C117.891 3.4918 117.949 3.48428 118.003 3.48428C118.335 3.48428 118.555 3.66576 118.662 4.02791C118.703 4.18849 118.724 4.44108 118.724 4.78566ZM121.396 5.81939C121.409 5.86706 121.415 5.91474 121.415 5.96241C121.415 6.29529 121.186 6.61895 120.728 6.93342C120.313 7.22448 119.941 7.37001 119.614 7.37001C119.555 7.37001 119.505 7.36416 119.463 7.35245C119.368 7.34074 119.273 7.32903 119.178 7.31648C119.053 7.30478 118.969 7.24874 118.928 7.14754C118.904 7.08816 118.937 7.01121 119.026 6.91586C119.116 6.82052 119.204 6.75863 119.293 6.72852H119.271C119.268 6.72852 119.273 6.72852 119.285 6.72852C119.308 6.73437 119.356 6.74023 119.427 6.74692C119.742 6.77034 120.117 6.56543 120.55 6.13135C120.568 6.11965 120.577 6.09875 120.577 6.06947C120.577 5.99169 120.362 5.69478 119.93 5.1779C119.5 4.66103 119.279 4.26628 119.267 3.99279C119.261 3.73686 119.362 3.49347 119.57 3.2618C119.796 3.00671 120.072 2.87541 120.399 2.86955C120.6 2.8637 120.758 2.94064 120.871 3.10122C120.972 3.23755 121.011 3.37137 120.987 3.50268C120.963 3.61475 120.883 3.67162 120.747 3.67162C120.705 3.67162 120.635 3.66577 120.537 3.65406C120.439 3.64235 120.366 3.63566 120.318 3.63566C120.164 3.63566 120.063 3.68919 120.016 3.79624C120.027 4.03377 120.25 4.39926 120.684 4.89272C121.136 5.40959 121.373 5.71819 121.396 5.81939ZM123.472 1.39923C123.484 1.55982 123.445 1.66353 123.356 1.7112C123.32 1.72876 123.24 1.74047 123.115 1.74716C122.908 1.76472 122.744 1.68443 122.625 1.50628C122.548 1.38166 122.504 1.25371 122.491 1.12323C122.48 0.956799 122.474 0.882364 122.474 0.899927C122.474 0.727637 122.637 0.608865 122.964 0.543629C123.006 0.53192 123.044 0.526069 123.08 0.526069C123.276 0.526069 123.4 0.656549 123.454 0.91833C123.46 1.07807 123.466 1.23865 123.472 1.39923ZM123.142 7.06725C123.119 7.09735 123.047 7.11325 122.929 7.1166C122.81 7.1191 122.73 7.13249 122.688 7.15674C122.332 6.99031 122.114 6.79376 122.037 6.56794C122.025 6.52027 122.001 6.24762 121.966 5.74831C121.942 5.38031 121.93 5.21053 121.93 5.24064C121.93 5.11519 122.001 4.72043 122.144 4.05468C122.185 4.02541 122.319 3.94512 122.545 3.81465C122.807 4.03963 122.943 4.24202 122.955 4.42017L122.839 5.38282C122.804 5.53169 122.786 5.66551 122.786 5.78427C122.786 5.96827 122.85 6.14474 122.977 6.31453C123.105 6.48347 123.169 6.64573 123.169 6.79962C123.169 6.8774 123.16 6.96605 123.142 7.06725ZM127.232 6.17569C127.1 6.31871 126.738 6.49685 126.145 6.71096C125.592 6.90667 125.253 7.00452 125.128 7.00452C124.641 7.00452 124.256 6.85314 123.974 6.55038C123.691 6.24761 123.551 5.82859 123.551 5.29332C123.551 4.59245 123.839 4.00784 124.415 3.5378C124.926 3.12799 125.485 2.92308 126.091 2.92308C126.15 2.92308 126.221 2.9766 126.304 3.08366C126.388 3.19071 126.429 3.28271 126.429 3.35966C126.429 3.66911 126.26 3.87653 125.921 3.98359C125.613 4.07308 125.303 4.16172 124.995 4.25122C124.656 4.42936 124.487 4.7681 124.487 5.2674C124.487 5.75417 124.709 5.99755 125.155 5.99755H125.351C125.429 5.99169 125.492 5.98918 125.542 5.98918C125.593 5.98918 125.639 5.97998 125.68 5.96241C125.722 5.94401 125.771 5.93565 125.828 5.93565C125.884 5.93565 126.052 5.89132 126.331 5.80183C126.61 5.71234 126.777 5.66801 126.83 5.66801C126.896 5.66801 127.029 5.71569 127.232 5.81103V6.17569ZM131.927 6.71932C131.927 6.85648 131.884 6.97024 131.797 7.06307C131.711 7.15507 131.603 7.20107 131.472 7.20107C131.229 7.20107 131 7.12998 130.786 6.98696C130.572 6.84478 130.412 6.66915 130.305 6.46089C130.186 6.44333 130.073 6.50856 129.966 6.65744C129.841 6.82973 129.761 6.92423 129.726 6.94263C129.529 7.02543 129.232 7.06725 128.834 7.06725C128.501 7.06725 128.204 6.8799 127.943 6.50521C127.717 6.17903 127.605 5.87292 127.605 5.58773C127.605 5.05915 127.866 4.5657 128.388 4.10821C128.888 3.66912 129.393 3.44915 129.904 3.44915C130.029 3.44915 130.147 3.48762 130.26 3.56456C130.402 3.65991 130.474 3.77868 130.474 3.92086C130.474 4.0045 130.448 4.09064 130.394 4.17929C130.756 4.31645 130.938 4.53308 130.938 4.83082C130.938 4.88937 130.928 4.97467 130.911 5.08423C130.893 5.19463 130.884 5.26991 130.884 5.31173C130.884 5.36525 130.89 5.40958 130.902 5.44555C130.98 5.64711 131.175 5.90555 131.49 6.22085C131.781 6.51191 131.927 6.67834 131.927 6.71932ZM130.055 4.39341C129.996 4.39341 129.908 4.38337 129.789 4.36246C129.671 4.34155 129.589 4.33151 129.541 4.33151C129.359 4.33151 129.116 4.47871 128.818 4.77227C128.519 5.06667 128.371 5.32009 128.371 5.5342C128.371 5.65966 128.424 5.79849 128.53 5.95321C128.666 6.14892 128.832 6.24762 129.027 6.24762C129.428 6.24762 129.697 6.02431 129.834 5.57937C129.911 5.18126 129.984 4.78566 130.055 4.39341Z" fill="#78716C"/>
<path fill-rule="evenodd" clip-rule="evenodd" d="M118.173 1.54798C118.176 1.81729 118.043 2.13092 117.773 2.48721C117.503 2.84434 117.255 3.02331 117.028 3.02331C116.946 3.02331 116.886 2.99405 116.847 2.93801C116.815 2.89118 116.796 2.8435 116.788 2.79332C116.788 2.75819 116.842 2.67456 116.948 2.54325C117.093 2.3626 117.231 2.17943 117.364 1.99544C117.367 1.98791 117.466 1.80892 117.661 1.45765C117.729 1.33638 117.808 1.27448 117.895 1.27114C118.002 1.26779 118.075 1.29037 118.115 1.33972C118.153 1.3899 118.173 1.45933 118.173 1.54798Z" fill="#78716C"/>
<path fill-rule="evenodd" clip-rule="evenodd" d="M131.041 36.4535C131.041 36.9478 130.891 37.3626 130.591 37.6955C130.292 38.0283 129.914 38.1948 129.46 38.1948C128.612 38.1948 127.815 37.9372 127.072 37.4211C126.328 36.9051 125.769 36.2712 125.398 35.5176C124.984 35.4532 124.592 35.6916 124.219 36.2277C123.786 36.8516 123.508 37.202 123.382 37.2597C122.702 37.5675 121.666 37.7114 120.281 37.7114C119.123 37.7114 118.087 37.0364 117.18 35.6798C116.393 34.4989 116.002 33.3899 116.002 32.357C116.002 30.4434 116.914 28.6619 118.731 27.0034C120.47 25.4152 122.224 24.6165 124.002 24.6165C124.436 24.6165 124.848 24.7595 125.243 25.0355C125.736 25.3826 125.986 25.8099 125.986 26.3251C125.986 26.6271 125.894 26.9382 125.707 27.261C126.968 27.7562 127.599 28.5407 127.599 29.6154C127.599 29.8303 127.568 30.1381 127.506 30.5354C127.444 30.9327 127.412 31.207 127.412 31.3575C127.412 31.5516 127.429 31.7147 127.475 31.8418C127.739 32.5736 128.426 33.5078 129.522 34.6469C130.535 35.7008 131.041 36.3038 131.041 36.4535ZM124.56 28.0355C124.353 28.0355 124.043 27.997 123.63 27.9226C123.216 27.8473 122.927 27.8097 122.761 27.8097C122.121 27.8097 121.279 28.3416 120.235 29.4063C119.19 30.471 118.669 31.3901 118.669 32.1638C118.669 32.6154 118.854 33.1222 119.227 33.6793C119.7 34.3893 120.281 34.744 120.963 34.744C122.368 34.744 123.386 33.9603 123.784 32.3252C124.131 30.9026 124.312 29.4548 124.56 28.0355Z" fill="#78716C"/>
<path fill-rule="evenodd" clip-rule="evenodd" d="M57.1305 54.1107C56.4605 54.4444 55.9838 54.6267 55.6944 54.6267C54.0343 54.6267 60.0878 36.9419 59.499 35.5936C57.9877 36.3246 57.0594 36.7487 56.7173 36.8833C55.8634 37.2212 55.1056 37.3993 54.4441 37.3993C52.4393 37.3993 50.9732 36.9485 50.049 36.0453C48.9919 35.0132 48.7267 33.4751 49.2528 31.4328C49.8014 29.3034 51.6406 27.2602 54.7694 25.3039C57.6264 23.5183 59.9967 22.6267 61.8777 22.6267C63.3864 22.6267 63.9945 23.1971 63.7009 24.3371C63.629 24.6156 63.4943 24.9384 63.297 25.3039C63.5253 25.2186 63.7737 25.1751 64.043 25.1751C64.498 25.1751 64.8827 25.2838 65.2005 25.4979C65.5167 25.7129 65.6655 26.0039 65.658 26.3686C65.6404 27.1431 65.4389 28.2504 65.05 29.6906C64.5398 31.5825 64.242 32.7233 64.1693 33.1097C63.7636 35.28 58.9663 53.1957 57.1305 54.1107ZM61.7589 27.3036C62.1971 26.4012 62.2206 25.9496 61.8275 25.9496C61.6627 25.9496 61.3633 26.0466 60.9317 26.2398C60.4993 26.433 60.2309 26.53 60.128 26.53C59.632 26.53 58.3357 27.0945 56.2464 28.2387C53.9799 29.4807 52.758 30.4651 52.5748 31.1743C52.3925 31.8836 52.6175 32.4623 53.2422 32.9165C53.8018 33.3221 54.5319 33.5295 55.4419 33.5295C56.4338 33.5295 57.6423 32.97 59.0675 31.8518C60.4918 30.7336 61.3574 29.5827 61.6619 28.4009C61.7614 28.0129 61.794 27.6482 61.7589 27.3036Z" fill="#78716C"/>
<path fill-rule="evenodd" clip-rule="evenodd" d="M70.872 15.5684C70.872 17.1073 70.2221 18.3735 68.9174 19.3596C67.7933 20.2093 66.5898 20.63 65.3135 20.63C64.1192 20.63 63.0771 20.15 62.1889 19.1898C61.2998 18.2305 60.8549 17.1424 60.8549 15.9288C60.8549 14.7287 61.3767 13.5762 62.4021 12.4554C63.4944 11.2619 64.7096 10.6556 66.0671 10.6556C67.3425 10.6556 68.4766 11.1909 69.4669 12.2647C70.4036 13.2809 70.872 14.3824 70.872 15.5684ZM69.0805 15.6528C69.0805 14.8056 68.7534 14.0922 68.0827 13.5352C67.478 13.0334 66.8005 12.7942 66.0671 12.7942C65.9993 12.7942 65.7242 13.0802 65.2424 13.6523C64.7607 14.2235 64.3291 14.5095 63.9494 14.5095C63.7462 14.5095 63.6031 14.4602 63.522 14.3615C63.1147 15.1945 62.9106 15.7381 62.9106 15.9916C62.9106 16.797 63.2803 17.4259 64.0314 17.8558C64.6101 18.1878 65.2458 18.3426 65.924 18.3426C66.6299 18.3426 67.289 18.1452 67.8995 17.7504C68.6857 17.2411 69.0805 16.5427 69.0805 15.6528Z" fill="#78716C"/>
<path fill-rule="evenodd" clip-rule="evenodd" d="M59.632 20.9053C59.5776 20.9755 59.4145 21.0149 59.1427 21.0215C58.8717 21.0282 58.6886 21.06 58.5932 21.1169C57.7794 20.7221 57.2759 20.2579 57.107 19.7193C57.0727 19.6089 57.0225 18.9566 56.9439 17.7706C56.887 16.8958 56.8628 16.4926 56.8628 16.5629C56.8628 16.2668 57.0259 15.3284 57.3512 13.7469C57.4466 13.6766 57.7518 13.4851 58.2679 13.1748C58.865 13.7117 59.2531 14.1943 59.2038 14.615L58.9395 16.9025C58.8976 17.2629 58.8174 17.5732 58.8174 17.8559C58.8174 18.2933 58.9637 18.7132 59.2548 19.1155C59.5467 19.5178 59.693 19.9025 59.693 20.2697C59.693 20.4537 59.673 20.6652 59.632 20.9053Z" fill="#78716C"/>
<path fill-rule="evenodd" clip-rule="evenodd" d="M60.3848 7.43644C60.4057 7.81782 60.3245 8.06622 60.1205 8.17746C60.0402 8.22095 59.8545 8.24102 59.571 8.26193C59.0951 8.29705 58.7162 8.11724 58.4511 7.68986C58.2688 7.39714 58.1684 7.09018 58.145 6.77989C58.1157 6.38513 58.104 6.20783 58.104 6.25048C58.104 5.84066 58.4795 5.5655 59.2247 5.40325C59.3217 5.38234 59.4079 5.3606 59.489 5.3606C59.9373 5.3606 60.2593 5.66503 60.3446 6.2923C60.3948 6.67034 60.3647 7.05506 60.3848 7.43644Z" fill="#78716C"/>
<path fill-rule="evenodd" clip-rule="evenodd" d="M51.47 4.90295C51.8765 4.97321 52.155 5.36964 52.3047 6.08891C52.467 6.87927 52.5757 7.29662 52.63 7.33844L53.2816 7.50822L54.3404 7.59269L55.6025 7.52913L56.6002 7.38109L56.9264 7.82603C57.0494 7.99414 57.1088 8.24924 57.1088 8.58796C57.1088 8.79956 57.0544 8.98356 56.9457 9.13912L56.6814 9.51967H55.6435C55.4795 9.51967 55.2629 9.47283 54.9919 9.4352L53.3226 9.20269C53.1478 9.17844 53.0031 9.22777 52.8943 9.27712C52.7873 9.32563 52.6911 9.5205 52.61 9.85922C52.5288 10.1971 52.4879 11.7302 52.4879 14.4542V21.4219L51.2358 21.8459L50.2038 21.4428L50.0039 18.7748L49.9428 16.1278C49.9311 15.6192 49.9654 14.3982 50.0449 12.4637L50.1461 9.98636C50.1569 9.73127 50.1394 9.48453 50.085 9.2445C49.8542 8.87734 49.5514 8.63814 49.1901 8.69418L48.4976 8.79956L47.683 8.88487C47.1703 8.93756 46.6852 8.7293 46.2377 8.41901L45.9927 8.05854C45.9793 8.01672 45.9182 7.8871 45.8915 7.65626C45.8639 7.43212 45.9509 7.25982 46.0747 7.14775L46.4 6.85168C46.7939 6.85168 47.3869 6.89768 48.1814 6.98884C48.9752 7.08084 49.569 7.12683 49.9629 7.12683C50.0449 7.12683 50.0917 7.07749 50.1051 6.9788L50.0641 6.68189L50.0449 6.38499L50.1051 5.98354C50.1293 5.82379 50.2314 5.69499 50.3292 5.5595C50.3944 5.46917 50.5467 5.373 50.8176 5.29522C51.0895 5.21743 51.3069 5.08612 51.47 4.90295Z" fill="#78716C"/>
<path fill-rule="evenodd" clip-rule="evenodd" d="M40.7638 15.6177C40.7889 17.5305 39.8798 19.7318 38.0657 22.23C37.1934 23.4301 35.5901 25.2559 33.2592 27.7123C30.8772 30.2231 29.5382 31.7453 29.2287 32.2605C29.0213 32.6042 28.8457 32.9705 28.701 33.3569C28.701 33.7659 29.1652 34.0327 30.0969 34.1314L32.8251 34.4216L34.5932 34.7762L35.9573 34.8732C36.3085 34.8975 36.8162 34.8239 37.4761 34.6474L38.4379 34.389C38.7582 34.3028 38.9974 34.4082 39.1195 34.4534L40.41 34.9418C39.4767 33.8102 39.0125 32.3767 39.0125 30.6479C39.0125 29.0998 39.5578 27.4246 40.6869 25.649C42.0175 23.5539 43.6008 22.5202 45.3998 22.5202C46.4745 22.5202 47.3535 22.8639 48.0351 23.5523C48.7176 24.2398 49.0588 25.1213 49.0588 26.1968C49.0588 27.2507 48.6156 28.3806 47.7257 29.5833C46.7555 30.8955 45.6992 31.5512 44.5626 31.5512C44.3769 31.5512 44.2473 31.5027 44.1753 31.4057C44.1026 31.3087 44.0148 31.261 43.9119 31.261C43.6426 31.261 42.971 31.4542 41.8954 31.8414C42.2684 33.024 43.0429 33.9173 44.2213 34.5178C45.1514 34.992 46.1951 35.2279 47.3535 35.2279C47.4773 35.2279 47.622 35.2011 47.7876 35.1476C47.9532 35.0932 48.097 35.0664 48.2217 35.0664C48.5938 35.0664 48.9719 35.207 49.3532 35.4855C49.7355 35.7648 49.927 36.045 49.927 36.3243C49.927 36.6254 49.4519 36.9299 48.5002 37.2276C47.7366 37.4668 47.2088 37.5831 46.9194 37.5831C44.8101 37.5831 43.0278 37.0737 41.586 36.0341L41.5182 35.9848C41.5291 36.0425 41.5358 36.1019 41.5383 36.1629C41.5584 36.6572 40.9386 37.1297 39.6774 37.5831C38.7273 37.9251 36.8246 38.1175 33.9726 38.1635L31.9879 38.1953H30.0651C28.0403 38.1953 26.6636 38.1116 25.9418 37.9368C24.2666 37.532 23.4144 36.6254 23.3985 35.2279C23.3734 32.9496 24.2666 30.6479 26.0656 28.3254C27.0157 27.1001 28.7821 25.312 31.3681 22.971C33.7225 20.8408 34.9026 19.4231 34.9026 18.7139C34.9026 18.5199 34.768 18.2029 34.4995 17.7621C34.231 17.3222 33.6414 16.9592 32.7323 16.6816C31.7412 16.3788 30.7476 16.2383 29.7556 16.2625L28.4534 16.2943C27.9366 16.3069 27.2131 16.3913 26.2831 16.5201C25.9519 16.0041 25.7679 15.4989 25.7553 15.0047C25.7269 13.8655 26.759 13.0977 28.8248 12.6821C29.3224 12.5817 30.0141 12.5265 30.9031 12.5207C33.2182 12.5056 35.473 12.7306 37.6626 13.2307C39.71 13.6974 40.7488 14.4987 40.7638 15.6177ZM46.1441 26.9713V25.3906C46.1023 25.3906 46.0086 25.358 45.8648 25.2936C45.7201 25.2292 45.5654 25.1966 45.3998 25.1966C44.8419 25.1966 44.1511 25.6407 43.3532 26.5515C42.6632 27.3393 42.2475 27.9925 42.0819 28.4876C42.4951 28.8523 42.8882 29.0354 43.2604 29.0354C43.446 29.0354 43.9387 28.7912 44.7482 28.3254C45.6958 27.7809 46.1642 27.3368 46.1441 26.9713Z" fill="#78716C"/>
<path fill-rule="evenodd" clip-rule="evenodd" d="M79.5734 29.4548C79.5734 31.2814 78.8825 32.9608 77.4958 34.4863C75.9887 36.1432 74.1161 37.0565 71.883 37.2279C69.9201 37.3785 68.3737 36.6826 67.263 35.1312C66.3279 33.8239 65.8679 32.2282 65.8679 30.3572C65.8679 28.9597 66.0854 27.6591 66.5186 26.4548C67.0146 25.079 67.646 24.3906 68.4105 24.3906C68.5342 24.3906 68.6589 24.4124 68.7826 24.455C68.9892 24.6056 69.2209 24.736 69.4333 24.9067C69.6767 25.1015 69.7595 25.4879 69.7135 26.0031C69.6976 26.1762 69.5061 26.7994 69.1548 27.8741C68.8035 28.948 68.6279 29.5945 68.6279 29.8094C68.6279 30.4977 68.9123 31.2613 69.4802 32.0994C70.0489 32.9382 70.6435 33.3598 71.2633 33.3899C72.9168 33.4676 74.0801 33.1666 74.7049 32.4214C74.9282 32.1562 75.3046 31.2496 75.8833 29.745C75.9243 27.8523 75.9946 26.6722 76.0381 26.1972C76.1183 25.3382 76.2396 24.8799 76.4571 24.8264C76.6745 24.772 76.8753 24.7452 77.0618 24.7452C78.2193 24.7452 78.9971 25.3976 79.3559 26.7124C79.5131 27.2895 79.5734 28.2078 79.5734 29.4548Z" fill="#78716C"/>
<path fill-rule="evenodd" clip-rule="evenodd" d="M84.6183 37.7121C84.5364 37.8191 84.288 37.8785 83.8748 37.8885C83.4608 37.8994 83.1823 37.9479 83.0376 38.0341C81.7973 37.4319 81.0312 36.726 80.7736 35.9055C80.7209 35.7366 80.6448 34.7438 80.526 32.9381C80.439 31.6058 80.4022 30.9911 80.4022 31.099C80.4022 30.6482 80.6498 29.218 81.1458 26.8093C82.8335 25.5522 84.1115 26.8837 83.9676 28.1324L83.5645 31.6158C83.5009 32.1637 83.378 32.637 83.378 33.0677C83.378 33.7335 83.6013 34.3733 84.0454 34.9855C84.4895 35.5977 84.712 36.1849 84.712 36.7436C84.712 37.0237 84.681 37.3457 84.6183 37.7121Z" fill="#78716C"/>
<path fill-rule="evenodd" clip-rule="evenodd" d="M115.748 32.809C115.748 34.6791 115.69 36.0357 115.561 36.8729C115.235 39.0023 114.538 40.0661 113.484 40.0661C112.926 40.0661 112.554 39.5928 112.368 38.6468C112.245 38.0229 112.181 36.9156 112.181 35.3248V34.6474C112.181 32.3892 112.061 30.7859 111.808 29.8408C111.4 28.3136 110.59 27.5508 109.391 27.5508C108.771 27.5508 107.695 28.889 106.196 31.5829C105.339 33.1252 104.512 34.69 103.686 36.2599H102.35C102.315 36.9223 102.12 37.5186 101.767 38.0497C101.375 38.641 100.847 38.937 100.186 38.937C99.6686 38.937 98.9987 38.0488 98.2016 36.2599C96.7664 33.039 96.0279 31.3697 95.9694 31.2609C94.9942 29.4569 94.0566 28.5511 93.1475 28.5511C92.2375 28.5511 91.4539 29.3189 90.9462 30.9055C90.482 32.3507 90.1533 33.8353 89.6741 35.2604C89.1405 36.8461 88.3309 37.6148 87.38 37.6148C86.2224 37.6148 85.6437 36.6145 85.6437 34.6147C85.6437 34.3789 85.6537 34.0828 85.6738 33.7282C85.6947 33.3727 85.7056 33.1637 85.7056 33.0993C85.7056 31.5512 85.9239 29.6911 86.3563 27.5191C86.9986 24.2941 87.886 22.6807 89.0234 22.6807C89.5813 22.6807 89.9777 23.0186 90.14 23.7136C90.2679 24.2664 90.3566 24.821 90.4804 25.3579C90.8316 24.9715 91.4137 24.6445 92.2175 24.3584C92.8598 24.1293 93.3332 24.003 93.6435 24.003C94.6563 24.003 95.9033 24.9857 97.3945 26.9386C98.5479 28.4474 99.6878 30.3217 100.837 32.5506C101.008 32.8835 101.166 33.1929 101.309 33.479C101.127 32.1801 101.047 30.4614 101.111 28.3253C101.41 18.4069 102.373 13.4565 103.593 13.4565C104.667 13.4565 105.204 14.3163 105.204 16.0358C105.204 16.2081 105.147 16.7693 105.019 17.7144C104.858 18.897 104.752 19.6815 104.709 20.0688C104.629 20.778 104.585 21.2296 104.585 21.4228C104.585 23.8315 104.647 25.5728 104.77 26.6484C106.135 25.2935 107.049 24.4538 107.515 24.1318C107.98 23.8106 108.647 23.6066 109.514 23.5196C111.417 23.3272 112.986 24.5692 114.259 27.2288C115.239 29.2779 115.748 31.1313 115.748 32.809Z" fill="#78716C"/>
<path fill-rule="evenodd" clip-rule="evenodd" d="M109.439 29.7028C109.503 29.7229 109.509 29.7262 109.572 29.7062C109.554 29.6685 109.534 29.6351 109.516 29.6075C109.493 29.6351 109.464 29.671 109.439 29.7028Z" fill="#78716C"/>
<path fill-rule="evenodd" clip-rule="evenodd" d="M38.6896 24.268C38.8281 24.3774 38.8732 24.3399 39.0383 24.2798C39.1492 24.1128 39.2542 23.9489 39.3675 23.7955C39.2493 23.7005 39.2095 23.7313 39.0668 23.7839C38.9468 23.9379 38.826 24.0995 38.6896 24.268Z" fill="#78716C"/>
<path fill-rule="evenodd" clip-rule="evenodd" d="M71.2084 24.2374C72.74 24.3268 72.7447 24.3919 74.2769 24.3102C74.342 24.1428 74.4171 23.9809 74.5134 23.8265C72.7245 23.748 72.7213 23.6818 70.9326 23.7542C71.0319 23.8953 71.1284 24.0543 71.2084 24.2374Z" fill="#78716C"/>
<path fill-rule="evenodd" clip-rule="evenodd" d="M80.1716 24.2514C80.6776 24.3284 80.6809 24.3141 81.1928 24.2966C81.2153 24.2832 81.2371 24.264 81.258 24.2422C83.0896 24.4923 83.1247 24.3928 85.0116 24.315C85.0693 24.1536 85.1278 23.9921 85.1931 23.8316C83.4534 23.7538 83.3472 23.5957 81.7916 23.7245C80.8858 23.5497 80.7871 23.7396 79.735 23.8132C79.8889 23.9612 80.0377 24.0749 80.1716 24.2514Z" fill="#78716C"/>
<path fill-rule="evenodd" clip-rule="evenodd" d="M70.4136 29.6701C72.0127 29.7228 72.0152 29.8073 73.6135 29.7387C73.6679 29.5998 73.6929 29.405 73.7557 29.2461C73.7557 29.2335 73.7883 29.1992 73.7883 29.1867C72.1691 29.1808 72.1674 29.1457 70.5516 29.2553C70.4847 29.4802 70.4412 29.5664 70.4136 29.6701Z" fill="#78716C"/>
<path fill-rule="evenodd" clip-rule="evenodd" d="M33.7872 29.6715C35.3722 29.7524 35.3754 29.8169 36.9607 29.7375C36.9762 29.577 36.9933 29.4154 37.0179 29.2537C35.6311 29.1724 35.6263 29.109 34.2391 29.188C34.0812 29.356 33.9318 29.5178 33.7872 29.6715Z" fill="#78716C"/>
<path fill-rule="evenodd" clip-rule="evenodd" d="M72.2735 13.1176C86.5541 13.1992 86.5545 13.7905 100.835 13.7065C100.912 13.5404 100.992 13.3784 101.083 13.2232C86.5836 13.1458 86.5824 12.5545 72.0829 12.6343C72.1526 12.7943 72.2172 12.9552 72.2735 13.1176Z" fill="#78716C"/>
<path fill-rule="evenodd" clip-rule="evenodd" d="M71.7118 18.5586C85.6705 18.6378 85.6713 19.2099 99.6304 19.1276C99.6493 18.9621 99.6674 18.8024 99.6879 18.6435C78.7842 18.5241 91.9846 17.9569 71.9709 18.076C71.8901 18.2397 71.8068 18.4009 71.7118 18.5586Z" fill="#78716C"/>
<path fill-rule="evenodd" clip-rule="evenodd" d="M3.55353 34.9552C12.4233 35.1964 12.4239 35.3963 21.2965 35.3156C21.2954 35.1542 21.2951 34.9936 21.3015 34.8321C12.4244 34.7515 12.4215 34.325 3.54599 34.4718C3.34779 34.4748 3.31595 34.9484 3.55353 34.9552Z" fill="#78716C"/>
<path fill-rule="evenodd" clip-rule="evenodd" d="M132.408 34.9359C142.019 35.0102 142.026 35.5747 151.634 35.3337C151.872 35.3276 151.862 34.856 151.624 34.8503C141.84 34.6087 141.84 34.3645 132.053 34.4524C132.193 34.6265 132.313 34.7866 132.408 34.9359Z" fill="#78716C"/>
<path fill-rule="evenodd" clip-rule="evenodd" d="M97.5994 24.2529C98.3832 24.3299 98.3914 24.3754 99.1752 24.2946C99.1842 24.1324 99.1898 23.9704 99.1998 23.8115C98.1661 23.7313 98.1602 23.6878 97.1267 23.769C97.2811 23.9199 97.4415 24.083 97.5994 24.2529Z" fill="#78716C"/>
<path fill-rule="evenodd" clip-rule="evenodd" d="M126.701 23.8667C126.853 24.02 126.987 24.1799 127.107 24.3501C130.642 24.4344 130.644 24.2762 134.179 24.1973C134.197 24.039 134.222 23.8785 134.243 23.7137C130.477 23.5472 130.47 23.7897 126.701 23.8667Z" fill="#78716C"/>
<path fill-rule="evenodd" clip-rule="evenodd" d="M150.041 23.8037C150.009 23.9674 149.969 24.1304 149.938 24.2887C150.672 24.3689 150.681 24.3374 151.415 24.2592C151.05 24.1397 150.682 23.9817 150.29 23.7768C150.177 23.7217 150.149 23.74 150.041 23.8037Z" fill="#78716C"/>
<path fill-rule="evenodd" clip-rule="evenodd" d="M139.677 24.1163C139.784 24.1623 139.843 24.2802 139.943 24.3237C142.177 24.3446 142.177 24.3044 144.41 24.225C144.433 24.0636 144.461 23.9038 144.486 23.7416C142.096 23.6596 142.093 23.7817 139.702 23.8394C139.68 23.9565 139.699 24 139.677 24.1163Z" fill="#78716C"/>
<path fill-rule="evenodd" clip-rule="evenodd" d="M22.6586 29.5687C22.7407 29.4069 22.8261 29.246 22.9158 29.0852C16.3466 29.0041 16.3458 29.2575 9.77785 29.3571C9.70599 29.5559 9.61636 29.7167 9.53655 29.84C16.0967 29.9084 16.0976 29.6483 22.6586 29.5687Z" fill="#78716C"/>
<path fill-rule="evenodd" clip-rule="evenodd" d="M23.9521 13.3414C24.024 13.1809 24.1142 13.0196 24.2196 12.8583C20.7283 12.7763 20.7268 12.9194 17.2357 12.9998C17.2945 13.1602 17.3483 13.3212 17.407 13.4833C20.6738 13.6503 20.6813 13.4204 23.9521 13.3414Z" fill="#78716C"/>
<path fill-rule="evenodd" clip-rule="evenodd" d="M114.643 24.2212C116.693 24.3029 116.696 24.4092 118.745 24.3274C118.997 24.1535 119.248 23.9914 119.503 23.8441C116.886 23.7661 116.884 23.659 114.266 23.7371C114.393 23.8916 114.521 24.052 114.643 24.2212Z" fill="#78716C"/>
<path fill-rule="evenodd" clip-rule="evenodd" d="M47.8403 18.7814C47.8395 18.7554 47.9599 18.7504 47.9591 18.7253C47.9549 18.5422 48.067 18.4326 47.8871 18.4209C44.9825 18.2386 44.9783 18.2201 42.0694 18.2988C42.0192 18.4593 41.9682 18.6199 41.9097 18.7822C44.9072 18.8641 44.9072 18.911 47.9055 18.9043C47.9131 18.9043 47.8813 18.8859 47.8746 18.8825C47.8378 18.86 47.842 18.8064 47.8403 18.7814Z" fill="#78716C"/>
<path fill-rule="evenodd" clip-rule="evenodd" d="M54.2436 18.366C54.0531 18.5101 54.0422 18.71 54.2357 18.8493C54.5119 19.0469 54.5832 18.9078 54.9131 18.8373C54.9026 18.6939 54.8969 18.5364 54.8845 18.3549C54.6405 18.1248 54.501 18.1718 54.2436 18.366Z" fill="#78716C"/>
<path fill-rule="evenodd" clip-rule="evenodd" d="M106.692 18.6496C106.669 18.8211 106.644 18.9801 106.624 19.1332C120.828 19.209 120.828 18.6361 135.031 18.5538C135.062 18.3898 135.092 18.2283 135.122 18.0709C120.906 18.1165 120.908 18.5639 106.692 18.6496Z" fill="#78716C"/>
<path fill-rule="evenodd" clip-rule="evenodd" d="M146.654 13.3925C146.667 13.3632 146.698 13.3582 146.711 13.3306C146.776 13.1893 146.836 13.0722 146.922 12.9501C145.922 12.8857 145.916 12.828 144.917 12.9091C145.019 13.0638 145.126 13.2277 145.227 13.3933C145.929 13.5297 145.939 13.4067 146.654 13.3925Z" fill="#78716C"/>
<path fill-rule="evenodd" clip-rule="evenodd" d="M106.221 13.2344C106.314 13.3795 106.396 13.5431 106.477 13.7176C121.307 13.8044 121.307 13.1922 136.137 13.1076C136.171 12.9394 136.207 12.7778 136.243 12.6246C121.231 12.7033 121.234 13.1616 106.221 13.2344Z" fill="#78716C"/>
<path fill-rule="evenodd" clip-rule="evenodd" d="M51.0135 23.8609C50.9567 23.8609 50.9659 23.7655 50.909 23.7622C50.6313 23.7446 50.6246 23.7329 50.3595 23.8182C50.4247 23.9763 50.4749 24.1377 50.5251 24.3025C51.4978 24.3836 51.5045 24.3175 52.4772 24.2456C52.708 24.0834 52.9497 23.9228 53.1964 23.7622C52.1711 23.671 52.1652 23.7856 51.1365 23.8199C51.0629 23.8224 51.0779 23.8609 51.0135 23.8609Z" fill="#78716C"/>
<path fill-rule="evenodd" clip-rule="evenodd" d="M151.625 29.6765C151.859 29.6343 151.868 29.2379 151.634 29.1928C150.396 28.955 150.369 29.1666 149.111 29.2469C149.076 29.4107 149.015 29.5716 148.944 29.7291C150.235 30.1009 150.306 29.9144 151.625 29.6765Z" fill="#78716C"/>
<path fill-rule="evenodd" clip-rule="evenodd" d="M133.14 29.2602C131.241 29.1774 131.24 29.1298 129.34 29.1825C129.347 29.2878 129.39 29.4283 129.39 29.522C129.39 29.5789 129.348 29.6818 129.345 29.7436C131.25 29.7746 131.251 29.7445 133.155 29.6659C133.136 29.5086 133.133 29.4258 133.14 29.2602Z" fill="#78716C"/>
<path fill-rule="evenodd" clip-rule="evenodd" d="M54.2443 13.4011C54.7436 13.4848 54.7494 13.4505 55.2546 13.4237C55.2655 13.3693 55.2646 13.3058 55.2755 13.2498C55.309 13.0883 55.5122 12.9671 55.3566 12.9186C54.8264 12.7538 54.7954 12.8642 54.2468 12.9403C54.2451 13.0934 54.2451 13.2322 54.2443 13.4011Z" fill="#78716C"/>
<path fill-rule="evenodd" clip-rule="evenodd" d="M31.6115 18.497C29.0163 18.4811 29.0171 18.2218 26.4219 18.2227C26.4043 18.2252 26.4043 18.5012 26.3859 18.5037C25.7804 18.5873 25.7687 18.4016 25.1573 18.3983C25.0544 18.3975 25.1431 18.5003 25.0402 18.497C22.0527 18.4117 22.0494 18.1323 19.0619 18.2227C19.1163 18.4025 19.1698 18.5631 19.2116 18.7061C25.8347 18.7772 25.8339 19.0088 32.4579 18.9804C32.5039 18.9244 32.4378 18.819 32.4738 18.7713C32.3567 18.7119 32.3174 18.4175 32.0397 18.3322C31.9101 18.2929 31.7411 18.5304 31.6115 18.497Z" fill="#78716C"/>
<path fill-rule="evenodd" clip-rule="evenodd" d="M41.8424 13.3465C44.8697 13.4267 44.872 13.5547 47.8995 13.4783C47.9049 13.3255 47.9073 13.1653 47.9142 12.9949C44.6705 12.9096 44.6681 12.7824 41.4248 12.863C41.583 13.0205 41.7248 13.1824 41.8424 13.3465Z" fill="#78716C"/>
<path fill-rule="evenodd" clip-rule="evenodd" d="M106.248 35.0962C108.16 35.1791 108.18 35.4125 110.081 35.1737C110.317 35.1436 110.307 34.7216 110.072 34.6903C108.301 34.4501 108.287 34.534 106.503 34.6124C106.417 34.7729 106.334 34.9331 106.248 35.0962Z" fill="#78716C"/>
<path fill-rule="evenodd" clip-rule="evenodd" d="M91.6752 34.6918C91.6277 34.8524 91.5752 35.0133 91.5251 35.1745C93.4846 35.2567 93.4991 35.3491 95.444 35.0958C95.7033 35.0621 95.4963 34.6791 95.2435 34.6125C93.5203 34.1619 93.4544 34.6125 91.6752 34.6918Z" fill="#78716C"/>
<path fill-rule="evenodd" clip-rule="evenodd" d="M26.8745 24.2012C27.0326 24.0435 27.2 23.8822 27.3685 23.7175C23.8538 23.6332 23.8521 23.7797 20.3362 23.8636C20.3067 24.0304 20.2523 24.1909 20.189 24.3468C23.5264 24.5082 23.5333 24.2774 26.8745 24.2012Z" fill="#78716C"/>
<path fill-rule="evenodd" clip-rule="evenodd" d="M84.2194 20.9956C84.191 20.4503 84.2336 19.8991 84.1608 19.3588C84.0396 18.4606 83.5779 18.0248 82.9372 18.0248C82.821 18.0248 82.6972 18.0558 82.5584 18.0851C81.492 18.3176 80.9551 18.7115 80.9551 19.2978C80.9551 19.2376 80.9701 19.491 81.0136 20.0564C81.0471 20.5013 81.1901 20.9404 81.451 21.3594C81.804 21.9281 82.4421 21.9984 83.0727 21.9792C83.6674 21.9608 84.2671 21.8955 84.2194 20.9956Z" fill="#78716C"/>
<path fill-rule="evenodd" clip-rule="evenodd" d="M137.548 25.2714C138.151 22.4361 138.765 18.5052 139.133 18.2008C139.679 18.9276 140.02 19.3617 140.152 19.5114C140.479 19.8861 140.794 20.1595 141.107 20.3251C142.055 20.8286 142.857 20.9834 143.504 20.7868C144.242 20.5627 144.727 19.9019 144.951 18.8013C145.184 17.6563 144.789 16.227 143.76 14.5158C142.82 12.9535 141.906 11.9348 141.015 11.4656C140.298 11.0859 139.88 11.2046 139.755 11.8177C139.724 11.9665 139.712 12.1531 139.724 12.3755C139.634 12.2777 139.527 12.1949 139.399 12.1288C139.183 12.0126 138.976 11.9682 138.776 11.9908C138.578 12.0151 138.436 12.1121 138.357 12.2877C138.185 12.6591 138.023 13.232 137.875 14.0123C137.677 15.0385 137.553 15.6516 137.497 15.854C137.272 16.6786 136.207 22.0656 135.904 25.2622L135.695 26.7099C135.639 27.1473 134.475 29.6363 135.188 29.807L144.591 32.1998C148.325 33.1424 146.2 31.1895 147.289 28.9681C147.391 28.7808 147.361 28.6419 147.193 28.5507C147.892 25.8736 148.681 20.3753 149.118 20.0115C149.664 20.74 150.007 21.1707 150.136 21.3229C150.462 21.6968 150.778 21.9711 151.092 22.1367C152.042 22.6394 152.841 22.7941 153.488 22.5992C154.226 22.3767 154.71 21.7143 154.935 20.6154C155.17 19.4679 154.772 18.0385 153.744 16.3282C152.806 14.7667 151.89 13.7472 150.999 13.2763C150.285 12.8983 149.864 13.0153 149.741 13.6292C149.709 13.7781 149.699 13.9655 149.706 14.1896C149.618 14.0876 149.512 14.0073 149.383 13.9395C149.168 13.8258 148.961 13.7781 148.76 13.8024C148.559 13.8249 148.423 13.9245 148.341 14.101C148.169 14.4706 148.009 15.046 147.857 15.8247C147.663 16.8492 147.539 17.4665 147.483 17.6647C147.229 18.5897 145.92 25.2505 145.815 28.1267C143.872 27.5605 141.912 27.0378 140.033 26.3135C139.593 26.1454 138.497 25.6318 137.548 25.2714Z" fill="#78716C"/>
<path fill-rule="evenodd" clip-rule="evenodd" d="M13.0108 11.6566C13.8522 14.4258 15.2096 18.1493 15.0373 18.6043C14.2152 18.2588 13.7117 18.0606 13.526 17.9996C13.0618 17.8449 12.657 17.7721 12.3066 17.7913C11.2436 17.849 10.475 18.1317 10.0091 18.6377C9.47718 19.2156 9.37598 20.0403 9.71052 21.11C10.0593 22.2232 11.0872 23.2553 12.8017 24.202C14.3674 25.066 15.6487 25.4733 16.6456 25.4164C17.4485 25.3713 17.7538 25.0518 17.5673 24.4554C17.5221 24.3099 17.4427 24.1426 17.3256 23.957C17.451 23.9946 17.5832 24.0105 17.7254 24.0013C17.9687 23.9888 18.1695 23.9202 18.3317 23.7972C18.4923 23.6726 18.5676 23.5145 18.5517 23.3222C18.5224 22.9099 18.3869 22.3311 18.1394 21.5775C17.8182 20.5856 17.6309 19.9909 17.5823 19.786C17.3799 18.9547 15.7139 13.735 14.4401 10.8094L13.9249 9.44694C13.7635 9.0388 13.5745 6.27798 12.8753 6.50129L3.58167 9.31982C-0.105007 10.4447 2.67339 11.0318 2.798 13.5225C2.80135 13.7366 2.89335 13.842 3.08236 13.8337C3.764 16.515 5.72359 21.6871 5.51952 22.229C4.69738 21.8828 4.19305 21.6879 4.00738 21.6227C3.54487 21.4696 3.14007 21.3952 2.7888 21.4153C1.72412 21.4747 0.958844 21.7557 0.492154 22.2617C-0.0414438 22.8379 -0.140972 23.6626 0.192736 24.7314C0.539825 25.848 1.5719 26.8792 3.28309 27.826C4.84709 28.6899 6.1309 29.0964 7.12784 29.0404C7.92824 28.9969 8.23602 28.6774 8.04868 28.0811C8.00435 27.9347 7.92238 27.7674 7.80947 27.5767C7.93409 27.6194 8.0654 27.6344 8.20926 27.6261C8.45013 27.6119 8.65169 27.5458 8.81478 27.4212C8.97787 27.2966 9.04813 27.1393 9.03307 26.9445C9.00464 26.5338 8.86663 25.9525 8.62409 25.1998C8.29958 24.2112 8.10973 23.6124 8.06373 23.4117C7.83958 22.4783 5.77042 16.0291 4.47908 13.4841C6.4345 12.963 8.38322 12.396 10.3587 12.0464C10.8204 11.9644 12.0164 11.8381 13.0108 11.6566Z" fill="#78716C"/>
</svg>
