<svg width="400" height="400" viewBox="0 0 400 400" fill="none" xmlns="http://www.w3.org/2000/svg">
<g clip-path="url(#clip0_5_57)">
<path d="M322.377 123.445C319.729 122.147 318.589 124.62 317.041 125.876C316.511 126.281 316.062 126.807 315.615 127.293C311.745 131.428 307.222 134.144 301.314 133.819C292.678 133.333 285.303 136.049 278.785 142.655C277.399 134.508 272.796 129.642 265.789 126.523C262.122 124.902 258.415 123.28 255.848 119.754C254.056 117.242 253.566 114.444 252.67 111.688C252.1 110.027 251.529 108.324 249.614 108.039C247.536 107.715 246.72 109.457 245.907 110.918C242.647 116.877 241.384 123.443 241.507 130.089C241.793 145.047 248.107 156.962 260.656 165.435C262.082 166.408 262.448 167.38 262.001 168.799C261.145 171.718 260.127 174.554 259.231 177.474C258.66 179.338 257.803 179.743 255.807 178.933C248.923 176.056 242.973 171.799 237.718 166.652C228.795 158.018 220.729 148.493 210.665 141.034C208.336 139.311 205.944 137.675 203.495 136.129C193.228 126.159 204.84 117.97 207.528 116.998C210.339 115.984 208.506 112.499 199.42 112.539C190.334 112.58 182.023 115.619 171.431 119.673C169.882 120.282 168.253 120.727 166.582 121.091C156.967 119.267 146.986 118.861 136.555 120.036C116.917 122.224 101.233 131.507 89.7036 147.356C75.8522 166.41 72.5919 188.053 76.5849 210.631C80.7811 234.423 92.9216 254.123 111.581 269.526C130.934 285.494 153.22 293.318 178.641 291.818C194.082 290.927 211.276 288.861 230.668 272.443C235.557 274.875 240.69 275.848 249.205 276.578C255.765 277.187 262.08 276.254 266.969 275.241C274.629 273.62 274.099 266.526 271.328 265.23C248.881 254.774 253.809 259.029 249.328 255.584C260.735 242.087 277.929 228.062 284.651 182.623C285.18 179.017 284.731 176.747 284.651 173.828C284.61 172.046 285.017 171.357 287.055 171.153C292.676 170.504 298.135 168.966 303.147 166.208C317.691 158.263 323.559 145.212 324.944 129.566C325.147 127.175 324.904 124.702 322.377 123.447V123.445ZM195.632 264.255C173.875 247.151 163.324 241.516 158.965 241.759C154.891 242.003 155.624 246.664 156.52 249.704C157.456 252.704 158.68 254.77 160.39 257.405C161.572 259.148 162.387 261.741 159.21 263.689C152.202 268.024 140.02 262.229 139.449 261.944C125.271 253.595 113.415 242.57 105.063 227.492C96.9967 212.98 92.3107 197.417 91.5377 180.798C91.3338 176.786 92.5159 175.365 96.5076 174.637C101.763 173.663 107.181 173.46 112.437 174.23C134.641 177.474 153.544 187.404 169.393 203.13C178.438 212.087 185.282 222.789 192.332 233.246C199.828 244.352 207.895 254.932 218.162 263.606C221.788 266.646 224.68 268.956 227.451 270.66C219.098 271.591 205.164 271.794 195.632 264.255ZM206.155 196.393C206.5 194.996 207.757 193.972 209.28 193.972C209.656 193.973 210.028 194.041 210.379 194.174C210.828 194.337 211.235 194.58 211.561 194.944C212.131 195.512 212.458 196.322 212.458 197.173C212.458 198.957 211.032 200.375 209.24 200.375C208.483 200.382 207.749 200.116 207.173 199.625C206.597 199.134 206.217 198.453 206.104 197.704C206.033 197.268 206.051 196.823 206.155 196.393ZM237.4 214.209C235.675 214.869 233.958 215.386 232.299 215.454C229.202 215.615 225.821 214.359 223.989 212.819C221.137 210.428 219.1 209.091 218.244 204.914C217.878 203.13 218.081 200.375 218.407 198.794C219.14 195.389 218.325 193.2 215.922 191.214C213.967 189.593 211.481 189.148 208.752 189.148C207.733 189.148 206.797 188.702 206.104 188.337C204.963 187.771 204.026 186.352 204.922 184.608C205.208 184.041 206.594 182.663 206.92 182.42C210.626 180.312 214.905 181.001 218.856 182.582C222.523 184.082 225.294 186.837 229.286 190.728C233.36 195.429 234.093 196.727 236.416 200.254C238.25 203.009 239.92 205.848 241.061 209.089C241.642 210.784 241.108 212.227 239.512 213.244C238.863 213.658 238.116 213.935 237.4 214.209Z" fill="#4D6BFE"/>
</g>
<defs>
<clipPath id="clip0_5_57">
<rect width="400" height="400" fill="white"/>
</clipPath>
</defs>
</svg>
