<svg width="400" height="400" viewBox="0 0 400 400" fill="none" xmlns="http://www.w3.org/2000/svg">
<g clip-path="url(#clip0_5_106)">
<path d="M199.988 108C130.957 108 75 163.392 75 231.744V291H98.0341V285.086C98.0341 257.355 120.714 234.877 148.728 234.877C176.742 234.877 199.422 257.355 199.422 285.086V291H222.456V285.086C222.456 244.773 189.439 212.093 148.728 212.093C132.868 212.093 118.189 217.041 106.176 225.5C118.755 200.737 144.669 183.726 174.594 183.726C216.863 183.726 251.13 217.677 251.13 259.499V290.976H274.165V259.499C274.165 205.049 229.583 160.895 174.594 160.895C149.861 160.895 127.251 169.825 109.834 184.598C126.945 152.578 160.882 130.784 200.012 130.784C256.323 130.784 301.966 175.974 301.966 231.72V290.976H325V231.72C324.976 163.392 269.02 108 199.988 108Z" fill="black"/>
</g>
<defs>
<clipPath id="clip0_5_106">
<rect width="400" height="400" fill="white"/>
</clipPath>
</defs>
</svg>
